/* XPM */
static char *_2c1c8044c7e498cb9b7048a6e3afb5auX2ohGneqi8lofsV[] = {
/* columns rows colors chars-per-pixel */
"32 32 18 1 ",
"  c None",
". c black",
"X c #004000",
"o c #006000",
"O c #204020",
"+ c #306030",
"@ c #008000",
"# c #00A000",
"$ c #00C000",
"% c #00E000",
"& c #408040",
"* c #50A050",
"= c #608060",
"- c #78A078",
"; c #60C060",
": c #90C090",
"> c #A8E0A8",
", c #C0FFC0",
/* pixels */
"                                ",
"           #@#@                 ",
"        @o@@###@      %$$  #$   ",
"      @o@@oooooo$   %$@@@%%@@%  ",
"     ooXoo@@###@ $@$@@  #@@%  % ",
"    oXX@o@@#@#    %@    $@ $  % ",
"    Xooo          $@     $$     ",
"                ::>:            ",
"               :*>*::           ",
"              :*>:*:-           ",
"             :;:>*::+&          ",
"            ::;:,;>:&+   ...    ",
"           *:*>>>*:-++ .....    ",
"           >:;>>>;--&&O.....    ",
"          *:>*>>*::=+&+....     ",
"          :>:*>,*:>-+&+....     ",
"         *-:*>>>;-::+&+....     ",
"         *:>;:>:*::-+&+...      ",
"         ;>>*>:>;:--*=+...      ",
"         ;:>;,>>*::-+++...      ",
"         *:>*::>+::-+&+..       ",
"         -*:;>:;:-:-+&+..       ",
"        .:*>*::*:--+&&+.        ",
"        ..*::*:---=+&+..        ",
"        ..:+=*:-=*++&+..        ",
"         ..++&*=&&+&+..         ",
"          ...++&&++...          ",
"           ..........           ",
"             .......            ",
"                                ",
"                                ",
"                                "
};
