/* XPM */
static char *_3249d59060d4dd08f114c683578ea82J0NVVFavn10KKcWK[] = {
/* columns rows colors chars-per-pixel */
"64 64 206 2 ",
"   c None",
".  c #000000",
"X  c #0D0D0D",
"o  c #0A1212",
"O  c #141414",
"+  c #1B1B1B",
"@  c #201E1E",
"#  c #152C2C",
"$  c #232323",
"%  c #222C2C",
"&  c #2C2C2C",
"*  c #302F2F",
"=  c #2D3030",
"-  c #343434",
";  c #3C3C3C",
":  c #373F3F",
">  c #284040",
",  c #344A4A",
"<  c #3B4242",
"1  c #375353",
"2  c #3B5A5A",
"3  c #3B7575",
"4  c #3A7777",
"5  c #444343",
"6  c #4A4545",
"7  c #424C4C",
"8  c #4C4B4B",
"9  c #534E4E",
"0  c #545454",
"q  c #5C5B5B",
"w  c #585353",
"e  c #645E5E",
"r  c #496A6A",
"t  c #576F6F",
"y  c #427C7C",
"u  c #577373",
"i  c #646464",
"p  c #696565",
"a  c #6C6C6C",
"s  c #716D6D",
"d  c #7A6F6F",
"f  c #6D7979",
"g  c #667A7A",
"h  c #737373",
"j  c #7B7373",
"k  c #737D7D",
"l  c #7B7B7B",
"z  c #7A7979",
"x  c #7D7D7D",
"c  c #7B7B7B",
"v  c #837E7E",
"b  c #887E7E",
"n  c #0EBDBD",
"m  c #11BEBE",
"M  c #2EAFAF",
"N  c #2FB0B0",
"B  c #38B8B8",
"V  c #4B8484",
"C  c #478787",
"Z  c #528C8C",
"A  c #5E8989",
"S  c #5C8484",
"D  c #4E9898",
"F  c #529191",
"G  c #5C9A9A",
"H  c #668888",
"J  c #7C8888",
"K  c #669898",
"L  c #769898",
"P  c #47AAAA",
"I  c #56A8A8",
"U  c #5CBBBB",
"Y  c #64A1A1",
"T  c #6CA6A6",
"R  c #7BA6A6",
"E  c #72ACAC",
"W  c #7DADAD",
"Q  c #6FB0B0",
"!  c #7DBABA",
"~  c #78B4B4",
"^  c #14C4C4",
"/  c #14CACA",
"(  c #1ACCCC",
")  c #13D4D4",
"_  c #1CD4D4",
"`  c #15DCDC",
"'  c #1ADCDC",
"]  c #0DCDCD",
"[  c #2DC3C3",
"{  c #22CDCD",
"}  c #3BCECE",
"|  c #22D6D6",
" . c #2AD5D5",
".. c #2ADEDE",
"X. c #26DADA",
"o. c #39D6D6",
"O. c #1FE3E3",
"+. c #14EDED",
"@. c #1CEEEE",
"#. c #02F3F3",
"$. c #02FCFC",
"%. c #12F1F1",
"&. c #14FBFB",
"*. c #1CFEFE",
"=. c #1CF0F0",
"-. c #02E8E8",
";. c #24E5E5",
":. c #2BECEC",
">. c #2AE4E4",
",. c #33E6E6",
"<. c #3CEBEB",
"1. c #37EBEB",
"2. c #2BF1F1",
"3. c #24FEFE",
"4. c #2AFDFD",
"5. c #25F0F0",
"6. c #34FFFF",
"7. c #3DFEFE",
"8. c #43D8D8",
"9. c #6ED4D4",
"0. c #7BD4D4",
"q. c #7EDFDF",
"w. c #70D5D5",
"e. c #7ECACA",
"r. c #4CECEC",
"t. c #42EBEB",
"y. c #56ECEC",
"u. c #46F5F5",
"i. c #43FEFE",
"p. c #4CFEFE",
"a. c #4FF3F3",
"s. c #53FFFF",
"d. c #5EFEFE",
"f. c #76EAEA",
"g. c #6EF7F7",
"h. c #64FDFD",
"j. c #68FDFD",
"k. c #74FCFC",
"l. c #79FFFF",
"z. c #73F3F3",
"x. c #69E5E5",
"c. c #828282",
"v. c #848383",
"b. c #8A8686",
"n. c #8F8F8F",
"m. c #8B8A8A",
"M. c #868B8B",
"N. c #918D8D",
"B. c #988E8E",
"V. c #869C9C",
"C. c #8B9A9A",
"Z. c #919191",
"A. c #959393",
"S. c #999595",
"D. c #9C9B9B",
"F. c #929C9C",
"G. c #A29E9E",
"H. c #A09696",
"J. c #85A9A9",
"K. c #9CA1A1",
"L. c #97AAAA",
"P. c #81BBBB",
"I. c #85B6B6",
"U. c #9BB8B8",
"Y. c #A4A2A2",
"T. c #AAA5A5",
"R. c #ADABAB",
"E. c #A2A8A8",
"W. c #B2ADAD",
"Q. c #A7B9B9",
"!. c #B4B1B1",
"~. c #B9B4B4",
"^. c #BDBABA",
"/. c #8BC3C3",
"(. c #88CACA",
"). c #95C4C4",
"_. c #92D2D2",
"`. c #96D9D9",
"'. c #87D0D0",
"]. c #ACCCCC",
"[. c #A5C5C5",
"{. c #A8D7D7",
"}. c #ACDBDB",
"|. c #8CECEC",
" X c #83E5E5",
".X c #91EFEF",
"XX c #86F7F7",
"oX c #83FEFE",
"OX c #8EFEFE",
"+X c #8CF1F1",
"@X c #92FCFC",
"#X c #9CFEFE",
"$X c #98F6F6",
"%X c #A5E5E5",
"&X c #A4FEFE",
"*X c #ABFFFF",
"=X c #B4FFFF",
"-X c #BBFFFF",
";X c #C4FFFF",
":X c #CCFFFF",
">X c #D1FFFF",
",X c #DBFFFF",
"<X c #E5FFFF",
"1X c #EAFFFF",
"2X c #F6FFFF",
"3X c #FDFFFF",
/* pixels */
"                                                        . .             . .                                                     ",
"                                                        $ $             + +                                                     ",
"                                        . . . .     . $ q q $ . . . . O 5 6 + .     . . . .                                     ",
"                                        $ $ $ $     . $ q q - + O O + & 8 6 $ .     # $ & $                                     ",
"                                    . @ q z h 0 $ . + # @ - q q ; ; 0 0 & + $ + . $ w h z e @ .                                 ",
"                                    $ 5 v.D.n.a - $ & & O * h c.0 0 h i % O & & $ - a n.D.c.5 @                                 ",
"                                . @ t b.Z.m.a i i 0 ; - ; 9 h x q w a p 5 & & ; 0 i i a m.Z.b.t $ .                             ",
"                                + ; s n.n.x q q h a 6 - 6 q s a t w e q 7 ; - 5 a h 0 q z Z.Z.h ; +                             ",
"                            . $ w a t p z h 9 8 p e 5 - 7 w i i e 0 8 8 5 ; - 5 p a 8 0 h z p q a 0 $ .                         ",
"                            . $ a x 8 6 a a 9 6 p t 6 ; 5 0 p a p q q 0 5 ; - 7 i i 6 8 a a 8 8 x a $ .                         ",
"                            . $ p h 6 5 p e 5 5 i p 0 5 ; 8 x b.a a c.h 8 - 5 0 p i < 5 e p < 6 h p $ .                         ",
"                            . + q a 5 < q t ; ; q p 0 5 = 5 h x i p x h < - 5 w p e ; ; e t ; 5 a q + .                         ",
"                            . + 0 p 5 ; q q ; ; w t 8 ; & & 5 8 7 8 8 5 & & ; 8 t w ; ; q 0 ; 6 p w # .                         ",
"                            . + 0 q - & ; 5 - - 0 w 5 - $ $ $ - - - - $ $ $ - 6 0 9 ; - 5 ; & - q 0 + .                         ",
"                            . + 8 0 $ X O O + - 8 9 ; * $ $ $ $ * & $ @ $ $ - ; 8 8 - + + O X $ 0 8 + .                         ",
"                            . O ; ; + . . . O $ ; ; * $ + + $ = 7 7 = $ + + $ & ; ; $ O . . . O ; ; O .                         ",
"                                O O         . O $ & + O O O $ 7 H H 7 $ O o O + & $ O .         O O                             ",
"                                . .         . X O O O + + $ = 7 H H 7 & $ + + + + O . .         . .                             ",
"                                                . O + * ; 5 ; ; ; 5 ; ; - - & + X .                                             ",
"                                                X O - ; 8 8 ; < , , : ; 5 5 ; & + X                                             ",
"                                            . X $ - 6 7 6 ; * 1 I I , * 5 8 5 - - $ X .                                         ",
"                                            . X = 6 0 8 5 * + 1 0.0.1 @ ; 8 5 6 5 = O .                                         ",
"                                            . O = 8 8 8 ; $ X , _._., X $ ; 8 8 6 - X .                                         ",
"                                            . X & - 6 6 ; $ . % L H & X $ ; 8 8 - $ X .                                         ",
"                                                X + - 5 ; & X X % # X X & 5 8 5 + X                                             ",
"                                                + $ - ; 8 ; + o # # o + ; 8 6 ; $ +                                             ",
"                                            . + 8 0 - - i q & > F F > & q i ; - 0 8 + .                                         ",
"                                            X & a h 5 ; h s ; 2 9.9.2 < s h ; < h a & X                                         ",
"                                . . . . . X $ 8 z x 8 8 z z 8 r w.w.r 6 z z 8 8 x z 7 $ X . . . . .                             ",
"                                + $ $ $ $ & ; 0 s s 0 0 s a 9 u 0.0.t 9 s h 0 8 h h w ; + + $ & & $                             ",
"                        . . . O 6 p h z z a w 8 0 0 8 8 0 8 8 g `.`.t 5 0 w 6 7 w q 0 8 7 w z v.x i $ . . .                     ",
"                        $ $ & 5 z F.D.K.T.Z.a 8 5 6 0 0 8 5 6 k {.{.f 8 w 9 8 6 6 8 w q p z D.R.Y.x 5 $ & &                     ",
"                    . # q z c.Z.R.T.A.N.K.A.s 0 8 w e p w 9 9 f {.}.J e p p q 9 5 6 q s h c.A.S.Z.b.z c.n.h & . . .             ",
"                    @ 6 b.T.T.T.T.D.v v N.M.S y y y V Z C V 3 G %X%XQ F F Z V y 3 4 V A k v v.v z z N.Y.!.Z.7 $ $ $             ",
"            . . . $ p N.K.D.m.z s a p s j H M / ) / / / _ ` ) ,.$X$Xt.` ` _ ^ ^ / ) / M H d j s e e h v.N.n.x z z q # .         ",
"            $ $ $ 9 F.!.K.n.K C 3 3 y y Z P  .%.$.$.+.=.*.*.3.s.=X*Xd.3.*.*.@.+.#.$.%. .P Z Z V 3 y V S k c.A.Y.T.b.; @         ",
"        . + i x c.S.!.!.N.H [ ) ^ n m / ) >.a.u.+.+.u.d.d.h.oX*X,X,X*Xl.j.d.h.u.%.+.u.a.>._ ^ ^ m n ^ M S h c.A.K.S.x 0 + .     ",
"        & 7 x Y.T.T.R.K.K P ,.4.2.>.:.2.*.7.l.g.;.O.g.#X#X=X:X,X2X2X<X;X&X@X@Xg.O.;.k.l.7.*.5.:.:.:.:.o.P A k v N.S.F.z ; @     ",
"    . & h Z.m.b.v.v v K [ :.k.@X@X$X$XoXj.k.&XXX;.;.XX;X,X1X1X3X3X3X3X<X;X=X-XXX;.;.XX&Xk.h.XX@X$X@X$Xz.,.[ A j j v.S.A.z 0 @ . ",
"    . & b.R.S.J H Z Z P ,.s.#X:X;X-X$X@X@X&X;X&Xy.t.k.*X,X3X3X3X3X3X2X1X>X-X#Xk.t.a.$X-X#X&X;X:X-X-X;X#Xp.,.P Z Z K C.Y.T.z $ . ",
"    . $ a S.D.R B / ) ,.g.#X-X;X;X$Xr.r.+X:X<X,X*Xz.i.s.*X<X3X3X3X2X,X>X:X#Xp.i.k.&X=X-X=X;X1X,X*X#X=X-X&Xk.,.` ' } W R.~.b.& . ",
"    . + p Z.T.~ ..#.*.s.=X>X;X;X>X&Xr.r.$X>X1X1X>X#Xp.i.j.#X=X:X1X,X*XOXOXl.7.p.#X:X>X:X;X>X<X,X&X#X-X:X;XoX4.$.$.>.P.W.~.b.& . ",
"    . $ h Y.W.(.>.*.j.*X,X1X:X:X1X,X&X$X=X;X:X:X;X=X#Xl.i.4.4.h.*X*Xs.3.3.i.l.#X=X>X<X1X:X;X:X;X=X;X<X,X*Xj.*.$.#.../.~.T.h $ . ",
"    . $ s T.~.).:.4.@X>X<X>X:X:X1X1X>X;X:X:X;X;X:X:X-X@Xp.3.3.p.#X#Xs.3.3.p.#X;X=X-X<X<X-X=X:X:X;X:X1X,X*Xk.7.&.-. ./.W.Y.a $ . ",
"    . + i A.Y.! X.:.@X-X*X&X-X;X:X:X;X>X1X<X:X:X<X,X*XOXOXOXOX#X=X=X#X@XOX#X=X=X$X#X;X-X#X&X>X1X:X;X:X:X=X#Xl.u.+.{ E G.G.h $ . ",
"    . $ i Z.A.E _ 2.@X=X#X#X=X-X=X=X-X:X<X1X:X:X<X,X&X#X=X:X>X:X:X-X=X=X-X:X>X;X*X&X-X=X#X&X,X1X:X-X=X=X;X=Xl.p.+._ T A.Y.z $ . ",
"    . $ h S.N.K ' 4.OX;X=X=X-X=X#X@X=X;X:X:X;X;X:X;X=X=X-X>X1X1X:X=X#X#X=X>X1X1X<X,X;X-X=X-X:X:X;X=X#X#X-X#Xp.&.$.' T S.Y.z & . ",
"    . $ a B.m.T } u.OX=X=X=X-X=X#X#X=X-X=X=X-X;X:X:X;X-X=X;X<X<X:X=X&X&X=X:X<X2X2X<X;X*X=X=X-X;X;X-X#XOX@Xk.6.&.@.} R S.Z.p $ . ",
"    . + 0 z n.F.I.e.|.OXOX#X=X-X=X=X-X=X#X@X=X:X<X1X:X=X@X#X;X:X;X:X,X,X:X;X:X>X>X;X#XOX@X#X-X;X;X;X-X@Xp.6.s.y.Q T C.A.h 8 O . ",
"    . + 0 k n.D.G.L.'.q. X.X&X=X=X=X=X&XOXOX*X>X1X1X>X=X#X#X=X;X-X:X1X<X;X=X-X;X;X-X#XoXj.h.XX@XOX@X@Xz.1.,.f._.V.b.m.x q ; O . ",
"    . + i b.m.n.D.K.V.J.I.)..X@XOXOXOXOXl.OX=X:X>X>X:X-X=X-X;X;X;X;X>X;X&X#X-X;X;X;X-X@X<.=.3.4.:.:.4.1.U ~ U.Q.E.m.p 0 0 ; O . ",
"    . $ i b.c.c.m.N.N.A.H.U.`.|.+X|. Xq. X|.&X&X#XOXOX.X@XOXOX#X*X*X#XoXh.h.oX@X@X@X@Xz.o.( ;.;...>.2.8.W S.T.T.S.z 0 ; 6 ; O . ",
"    . + 0 h x z s x Y.R.T.E.Q.[.].[.J.V.L I.|.l.i.3.:.>.>.4.4.i.l.l.i.3.@.5.3.4.:.:.4.,.I K Q ! /.(._.).L.G.D.m.h w 8 ; 5 - o . ",
"    . O - 0 z c.f x Y.T.D.S.T.R.!.T.S.b.b.V.(.x.,.;. .{ ( ( ' t.f.f.,.O.| | ' _ ( _ ;.8.R B.S.Y.~.^.~.R.A.b.v.z q 8 5 ; - $ X . ",
"        O - h Z.b.b.n.m.h z F.G.S.A.G.Y.H.F.V.R P.P.~ E K K Q P.U.).P.~ ~ E Y K G Y ! /.Q.T.A.N.Y.T.Y.m.p q p i w 8 6 - + X     ",
"        . + 0 h J b.c.z h h m.n.z J D.Y.S.n.b.N.T.W.W.G.N.m.A.G.!.!.T.G.H.A.m.b.N.S.T.R.R.K.m.c.b.m.m.h 0 6 0 0 0 7 ; $ X .     ",
"            + - q h x c.b.c.x h a a c.b.h z n.G.R.!.^.!.G.A.m.A.!.^.!.T.Z.m.A.Y.R.!.R.D.c.z v z a i a i w 8 7 8 6 - + X         ",
"            . O - 8 q a x v.x s i i h h p s n.D.K.D.T.Y.S.n.c.m.D.T.E.D.b.v.m.S.Y.K.Z.b.s p a a 0 0 0 0 5 ; * & & & X .         ",
"                O + + & q h x h q q i a a s c.c.z h a a a h x x h h M.m.b.z h s a p i a h s q 8 0 8 8 ; + O X O o X             ",
"                . . . O ; 8 t w 5 ; 5 6 0 t h z a i 0 0 i a h a w w p h z s t 0 0 8 8 0 t 9 ; - - ; - $ X . . . . .             ",
"                        O + + + + O O + + * t z z a q q a z a i 0 8 0 0 p i 9 8 8 8 8 ; & + O o O O X X                         ",
"                        . . . . . . . . . O ; q q q 5 5 q q 0 5 ; ; = - < 5 - = - ; - $ X . . . . . . .                         ",
"                                            + + + + O O + + + O O O X O O O O X O O O X                                         ",
"                                            . . . . . . . . . . . . . . . . . . . . . .                                         "
};
