/* XPM */
static char *e2d9a2bd32de44a7d04d3eaebe6048a9Day11hYDMjulNUgO[] = {
/* columns rows colors chars-per-pixel */
"64 64 118 2 ",
"   c #005000",
".  c #005A00",
"X  c #006F00",
"o  c #007900",
"O  c #007400",
"+  c #006900",
"@  c #005900",
"#  c #005500",
"$  c #005B00",
"%  c #005F00",
"&  c #006100",
"*  c #006300",
"=  c #006700",
"-  c #007700",
";  c #005600",
":  c #005D00",
">  c #005C00",
",  c #005800",
"<  c #007200",
"1  c #007100",
"2  c #005E00",
"3  c #005700",
"4  c DarkGreen",
"5  c #006600",
"6  c #006200",
"7  c #005100",
"8  c #006D00",
"9  c #006B00",
"0  c #005200",
"q  c #004900",
"w  c #004D00",
"e  c #005300",
"r  c #004F00",
"t  c #004300",
"y  c #006A00",
"u  c #004A00",
"i  c #004100",
"p  c #006E00",
"a  c #007300",
"s  c #006800",
"d  c #006500",
"f  c #006000",
"g  c #004E00",
"h  c #004800",
"j  c #007000",
"k  c #007A00",
"l  c #004700",
"z  c #005400",
"x  c #006C00",
"c  c #004C00",
"v  c #007600",
"b  c #007E00",
"n  c #004400",
"m  c #004500",
"M  c #004B00",
"N  c #007C00",
"B  c #007B00",
"V  c #007500",
"C  c #007800",
"Z  c #004600",
"A  c #004200",
"S  c #004000",
"D  c #003D00",
"F  c #02660F",
"G  c #07602D",
"H  c #075C2D",
"J  c #025B0F",
"K  c #003F00",
"L  c #076F2D",
"P  c #167E8B",
"I  c #16798B",
"U  c #07612D",
"Y  c #003C00",
"T  c #07712D",
"R  c #16828B",
"E  c #167D8B",
"W  c #07632D",
"Q  c #007D00",
"!  c #026C0F",
"~  c #076B2D",
"^  c #07672D",
"/  c #02610F",
"(  c #007F00",
")  c #008400",
"_  c #008000",
"`  c #008600",
"'  c #008100",
"]  c #025D0F",
"[  c #07682D",
"{  c #076D2D",
"}  c #02690F",
"|  c #07662D",
" . c #167F8B",
".. c #07692D",
"X. c #16818B",
"o. c #16808B",
"O. c #026B0F",
"+. c #07702D",
"@. c #076E2D",
"#. c #02670F",
"$. c #025E0F",
"%. c #07642D",
"&. c #07652D",
"*. c #02620F",
"=. c #07772D",
"-. c #07812D",
";. c #168A8B",
":. c #02830F",
">. c #077E2D",
",. c #02530F",
"<. c #003E00",
"1. c #008300",
"2. c #008200",
"3. c #008700",
"4. c #003B00",
"5. c #008C00",
"6. c #003A00",
"7. c white",
/* pixels */
"  . X o O + @ # $ % & * = * . & - - % ; : & & % > @ , & < 1 2 3 % 4 5 6 @ 3 > @ 7 , 8 9 0 q 0 $ * 5 * $   w e r t w 8 - y . u i ",
"7 $ p - a s 3 7 ; $ : & 5 d 2 * O a % , % 4 5 4 & > # : 1 < 2 , & = + 4 @ 3 : > e , 9 + e u 0 . f 4 4 : 0 g 0 r h e j k p % r l ",
"z > x O 1 d 7 q c 7 ; : d s 5 s X x f : 4 y p X 9 f   # X a f . d x p s @ 3 f f 3 . s 5 e c 7 3 $ & 5 6 3 7       2 v b v + @ 7 ",
": 6 x X y 2 c n m M z > d + + y 9 = % 2 d x < O 1 4 g 7 x < f $ 4 8 < y , # 6 d > > d * z r z 3 . f y 9 6 @ 0   z 6 v N O + 2 , ",
"9 x p y % z u n t q # % d s = s y d : $ f s j O a 5 r 7 + p % @ f + a x ; 0 6 = & % 6 % ; z @ > > 4 < v j 5 3 7 z 2 X a s f > . ",
"j j X s $ e r u m u 3 & = + 5 d 5 4 & % 2 6 y p p *   7 5 y $ z , 6 j 8 . ; 6 = * & f 2 . . % f f = v N o 8 . 7 z > s + f > > : ",
"9 x p + 2 . $ ; M M 3 * x 8 5 & f 4 x 9 % $ & 4 * >   e 4 d # w g @ 9 X 4 f 6 * 6 & & & & * d 5 d y v N N j . 0 3 > f & : > % f ",
"9 x p + 2 > 4 & e   @ * 8 8 4 f & s < p $ e 3 , , z r e f & # w M # y < 8 = * f 2 % & 4 = + y + + 8 v B B < f , . . , 3 , . 2 f ",
"j j p = . $ s + 2 , . f y y 6 6 + X 1 s z u c g w w w 0 @ > $ ;   3 x v a 8 d 2 @ . 6 s x 8 x 9 x X V C C a + 6 2 , r w 7 ; $ : ",
"1 p + 6 $ % p p & @ @ 2 = s & 6 y p p 4 e q q u c g 0 z z 3 > . 7 ; = a - a s 2 3 @ d 8 j 1 X X j j X j a 1 y d & . r w z @ . . ",
"X + : @ 2 s V j > e ; : 4 5 6 & 4 = s 4 @   M c e , $ @ 7 7 @ , r   : 9 k k x f @ > y < O O a O v 1 d * 9 9 & 2 6 % ; ; & * $ 3 ",
"j = ; e 2 + < p : z z @ 6 d 6 % 2 2 2 2 > @ e e @ : 2 .   r 3 , 0 z > + C k p d 2 % + X j < V v v p % $ * * . . 6 & 3 @ d 5 > 3 ",
"v y # r . 6 = = 4 > e z & d & > @ # r 0 2 & : > : : $ 3   r ; @ $ % 5 8 a a j 9 d * 4 d d y O v X = 2 . > $ ; 3 % 2 z z % & $ 3 ",
"o x e M 3 % * d d : r   f 5 f > @ 0 q g f + = 4 6 % . ; e e ; $ f d + x 8 p j X 9 = 6 % f d j 1 s f $ 3 # 0 r 0 > : ; # > > # 0 ",
"o 9 7 q ; & = = f # q w f = & : > ; M   d X p 9 s 6 $ , , , 3 > 4 = d d s 9 X 1 j 9 * % % * + s f @ # 0   c Z u 3 2 : > $ # c l ",
"a 5 r q ; & s s & ; u w f 5 2 $ > , 7 , y a 1 8 s 6 . 3 @ . . f x p d * = 9 p 1 O j d % % & 6 2 # e ; # r q n q 3 f & % . 7 l A ",
"= 2 w M , & 4 5 s f 7 7 f * @ # , . $ * X a p + * : ; z 3 . : s o B x 5 9 8 9 p v a d 2 % 2 . 0 h c : f e M q r $ 6 6 2 3 r Z A ",
": ; u M $ * 6 4 5 6 3 , 6 & # 7 ; > 6 s p p s 4 & 2 @ ; 3 . 2 y N N 9 d 8 X y x O 1 * % 4 & # q S q * + $ 7 g e : * 4 % ; r q l ",
";   m q : 5 * % : > : & 5 & 0 g , f 5 s = * 2 2 * 4 6 2 . . % s O 1 6 f x 1 x 9 x + f & x s z m D q 5 X 4 . e z : * 5 6 3 7     ",
"c q t c & + * 2 $ : d + + F G H J % d s 5 % # 3 d x x 5 > , . % = 5 2 % + 8 s 5 5 & @ 2 p 9 e n S g x v y 2 # # 2 * 6 % @ 3 @ . ",
"K i m 0 4 + 6 % f 5 X 1 y L P I U @ f s x * r   = O O 8 2 z   7 3 $ 2 & 4 * f % f $ r # y y e Z m ; O B 9 : e # f & , 3 2 6 * 4 ",
"Y S q # 6 d f % d x O O x T R E W , % = 8 d   0 9 k Q V * z M h M z & d % > 2 2 : ; M 7 s s 7 Z h , a C = @ 0 # 6 6 z z & y p j ",
"A Z g # . > > f s p < < p ! ~ ^ / % & 5 y d , $ j ( ) Q y , u t n   5 y > @ * d > e c e + = g t q ; + 9 % # 7 3 5 d 3 ; 4 j k b ",
"u g ; , z e , f 9 1 1 X 9 = 4 6 6 & & d 8 9 % 6 O _ ) Q x $ M A S g s 8 : . 5 + & , r z 5 * w m r . 5 d . 0 7 . 8 x , ; d O _ ` ",
"e , & 2 r M e % p O 1 9 & 6 8 p 5 f 2 5 - - 5 5 v Q B a s $ w t S c = p 6 % = 9 9 * z e % 2 r g . 4 y 5 . 0 7 2 - O 3 0 5 - ' ` ",
"@ : 4 % r q   $ y j 8 d , > X a 5 2 > 5 o B 8 9 C k 1 + f 3 c n A g = 1 y s x j < + ; 0 > : # # % d = 4 : , # 6 Q o , 7 5 v ( ) ",
"$ > % > e w c e & s 5 2 7 # y X * $ $ * < - < a o V + 2 ; r q m m 0 y V < < v - V y ; 0 % * : $ : : > 2 4 * > 5 b k $ e * < N _ ",
"@ . > > @ e u w $ 6 f , M 7 + X 6 @ , % x 1 X X a 8 2 z 7 r w u l 0 + v v v v v O y @ # % d = 4 2 $ $ & 9 9 & = o O ; r f X C Q ",
"z ; $ % * > u u @ f > e h   x a * , # $ s 9 * & = &   M 0 ; , 0 h g 5 O - O p 8 X y : @ > d j X 6 2 4 y X x * d j = M l : 8 v k ",
"g 0 @ 6 x d r c > & , r l 0 X V d @ z , 5 5 @ ; $ 3 u h e . > 3 c 0 + v C a s 4 5 d f : 2 = C - 4 2 5 x X p + = s > Z Z 2 8 1 a ",
"l w , d a p 3 z * * # M q ; j v = > # , * 6 z r 0   u M z @ @ 3 e > j B k a d : $ > & * * x Q k 4 . f 5 9 X < x % 0 l w * p x y ",
"A q ; 5 V 1 $ 3 d 4 z u u , < C y % , . 6 2 g h u c M g ; . . . > 4 1 - V 8 f 3 0 3 5 x s p B - 6 ] [ { } 9 a x , M l 7 = X s 4 ",
"K l # d < 8 , z 6 * # w M @ V N 8 6 > > 6 $ h i Z M w e $ 2 : % 4 + 9 9 + * @ 7 c 3 j C 8 x O j & | P  ...6 9 5 0 l Z 0 s X 5 & ",
"D m z 6 x s # 0 : f @ z 0 : < - + f > : % 3 n K h r z @ % f : f y x 5 6 % > ;   q ; O Q j y p 9 * ~ X.o...f s 6   h w , s 9 * % ",
"Y t 7 : d & 0 g 3 : f f f 4 9 + 2 @ . $ @ 7 A i w 3 2 & 6 % . 2 9 8 4 : . @ , 0 q z a N X s + + + O.+.@.#.d = & 0   . 6 5 d f 2 ",
"S m   @ % : e g   3 4 9 9 y = f # e , . 3 g A t   > 4 5 6 2 $ % + y f . 3 # #   q ; O B 9 6 * 5 9 x 9 s 4 6 * 2 # ; & 5 * f 2 : ",
"q M   ; > : 3   q 7 = a a p = > r g 3 . , r A t 7 : 5 5 f 2 & * d 6 > , ; 0 w u u . C N d . : * + X a 8 f @ . $ @ > 6 * f 2 : : ",
"e e e ; . > . e h   y C o < d @ r r , > $ 0 t t 7 % s s 2 $ 6 * % > . , ; 7 q l w 2 C C 2 z > * = 8 < x $ z 3 $.[ ~ #.6 2 : % f ",
": > . @ @ . $ 3 w # x B b V 6 3 z ; $ % f 3 n t e 6 x + $ 3 2 % , 3 . $ , 0 u u 7 f V 1 3 7 f = d d = 6 3 e @ [  .R T 4 % % 4 = ",
"f 6 4 & @ , f % ; $ p B ( v 6 @ $ > $ % = % l n # 6 y d # 0 > : ; # $ % % .   g z f j 9 e 7 4 y & : % > e 7 , ^ P o.@.6 f 6 s 9 ",
": 4 X x @ , s 9 f & X o Q V 4 % 4 6 , : j y c m ; & * > w w . 2 3 3 : 4 y 5 . z ; 2 y 5 e z + x > ; > .   g z J %.&.$.: 6 5 y x ",
": 5 V j 3 # + j s s 1 C B a 6 f x x : & v j r l . * % 3 r r @ > 3 ; $ 6 x 9 & . 3 > s 5 3 @ 9 x @ 0 3 3 r c g   0 # , 2 5 y + s ",
"f = O 8 e r 6 x 9 8 a - B 1 $ > a C y 9 C p w h f = : , @ @ @ 3 z e z . 4 s d % , $ s + 2 % 8 9 @ 7 e e r M h h M 0 : 5 8 x 4 f ",
"$ 6 p s 7 r 6 8 p X < v B 1 , . O B p 8 - x g M 6 + 2 $ % f > 3 0 7 0 @ d 9 9 d @ . 5 = 2 f X 8 $ e # z r u l Z h 0 6 x j 8 4 % ",
"  3 * & 0 z = j X p X O B a . @ j V + s 1 +   w & + 6 % 6 6 & $ 7 r ; f 8 a a 9 : . 6 f ; > < a % , 2 $ r q u u u e = j j x = 4 ",
"g e : > 7 # 5 p x + + 8 V p . . X O y = x * r g * 9 = 4 * * * : 0 7 $ d X < j = . , 6 f e @ X a 4 f = & g l w r g 3 + 1 X y * f ",
"z 3 > . r 0 f = d * 6 4 + 4 , : 1 o 1 9 d . q g 5 1 8 s 4 6 6 : # ; & s y s 6 $ e ; d d 3 3 d x + 9 j 5 g Z g z ; : s X p 5 @ e ",
"z ; @ , e z : 6 * & > . : $ # > j C < + % e l g d a V X 4 % f 2 @ : = 9 = & $ # 0 , 4 4 3 ; % d = y j 5 w Z e $ > f = y s & 3 0 ",
"g   z , $ : : f = * ; 7 e z 0 . x 1 9 6 @   q g f 1 Q C 4 $ 2 f % 4 x 8 5 % . , @ > f : # # : f : f = f M q $ 6 % f 4 * : $ : 2 ",
"w   z . 6 6 > 2 = * e w   0 z : x j s : e c q r : 8 B - 6 @ 2 6 * = 8 x 4 > ; z , > % 2 3 # @ $ $ : 6 $ q q $ * : $ : $ 3 , 2 6 ",
"0 z @ % d * > > * f e r e 3 @ * < O + $ w Z h   > = j 8 2 @ 2 * d = y s 6 @ g u w # & 4 2 3 0 # % * f 3 h h ; $ ; z e e # , > 2 ",
"e # , % s = : . % 2 ; # $ 2 : d O v + $ g h M   , % d 4 : . $ : & 4 = = * . g q M e 2 * & @ r 7 f * . 7 h h 7 # e 7 r   # $ & d ",
"0 0 7 . 9 8 f . > : $ 2 = = % * < O = : # 7   7 0 # . : % $ z 0 , 2 d s 5 % e r e # ; . f >   7 2 2   q u c r 7 z z 7 0 3 & p V ",
"g g w # = 9 & @ ; 3 $ * 8 9 % & < a d $ 3 # z e 0 0 e ; $ , g c z > * = d & . , @ , e ; % : 0 z 4 *   q g 7   z $ . 0 7 , 4 O B ",
"q q M 0 2 6 2 ; c c , * p 9 : % < a 6 ; 0 0 # , @ 3 7   z 0 u M # : 6 * f % & & % $ ; , % : 0 @ j 1 . r e ; 3 > d &   w @ 5 < C ",
"m l M 7 , > $ z h h e % 9 = 3 $ j < 2 z z ; 3 @ > @ 0 7 ; e h h # 2 6 & $ $ 6 5 d F ^ | *.@ r 3 1 a : z . : : * 8 s z r $ d 8 1 ",
"n l w e 3 @ @ # c u g , d 6   e x p . z 2 f . , . . ; @ * > Z t z f 4 f ; z > 4 x =.R E | z q r d + $ , & d 4 + 1 p % @ 2 6 d = ",
"l u   # @ $ @ #   g r # f : g 0 s + z 7 & d > @ : 2 > % = 2 Z n @ d 5 % r c # * a -.;. .U g u 7 & 5 2 : 6 5 s 9 1 8 6 > 2 2 $ . ",
"c g e @ f f . ; z e z 3 > . 7 ; 5 * g w % 4 > > 4 = * & 6 , Z q 6 8 + > l t r 6 o :.>.{ ,.u 0 $ d + s 4 2 % = x 9 5 : . : . 7 c ",
"e z 3 : 5 d $ # ; ; ; 3 , @ , $ 6 2 g   6 5 $ . 4 = * 6 * . h c d 1 p % Z <.h 2 B 1.V 6 g M @ & 6 5 x + f % s y * % > $ > 3 g u ",
": > > & 9 + . z ; 3 # z # @ f 6 2 @ z $ x 9 @ e > f 2 6 y * g w * < v s M D i ; o 2.j 2   7 f * . : y p = d + 5 . 3 2 % $ 3 # e ",
"d 6 : 6 j p $ e 3 @ . , z , 5 5 @ z 3 & X x , 0 > % . 2 + 4     5 - b j g Y D e o 2.9 .   ; + 9 $ > X O y d 5 f 0   , > . @ , , ",
"x 5 $ f O a > 0 3 2 4 & z 3 + = z g 3 6 x + , ; * 4 @ , f : r # p _ 3.v g 4.<.# B ' = z w @ O C d d o B + % % @ w q w e $ : @ 3 ",
"X = @ % v v : 0 , f + d # 3 y s 7 M 3 6 9 = , , 5 5 , z $ , r 3 < ) 5.o r 6.<.; N ' d 0 c . o b y y ( b s > $ # M m l g > % . 3 "
};
