/* XPM */
static char *ad1818a6de114e2bb6c56fc92190c3d9eKWJ0QSa3Fxz8Rzu[] = {
/* columns rows colors chars-per-pixel */
"64 64 88 1 ",
"  c #1E1500",
". c #151D00",
"X c #1B1B00",
"o c #230F00",
"O c #2C0D00",
"+ c #310B00",
"@ c #390D00",
"# c #231400",
"$ c #2A1200",
"% c #231B00",
"& c #2C1B00",
"* c #321500",
"= c #3D1100",
"- c #331A00",
"; c #3C1B00",
": c #072700",
"> c #0E2400",
", c #042D00",
"< c #0B2B00",
"1 c #132300",
"2 c #1C2300",
"3 c #132B00",
"4 c #1C2A00",
"5 c #013400",
"6 c #0B3300",
"7 c #003B00",
"8 c #0B3C00",
"9 c #123200",
"0 c #1C3200",
"q c #143C00",
"w c #1C3900",
"e c #232300",
"r c #2A2400",
"t c #222B00",
"y c #2B2C00",
"u c #362B00",
"i c #263B00",
"p c #004400",
"a c #0A4300",
"s c #0B4500",
"d c #084600",
"f c #004800",
"g c #044800",
"h c #004F00",
"j c #044D00",
"k c #0A4A00",
"l c #0C4B00",
"z c #0B4C00",
"x c #0A4E00",
"c c #124300",
"v c #134300",
"b c #005100",
"n c #075100",
"m c #005400",
"M c #045600",
"N c #0A5300",
"B c #095400",
"V c #0A5400",
"C c #005800",
"Z c #015A00",
"A c #005E00",
"S c #0A5B00",
"D c #095D00",
"F c #264400",
"G c #016100",
"H c #026300",
"J c #056200",
"K c #036600",
"L c #046600",
"P c #096400",
"I c #006A00",
"U c #006E00",
"Y c #0B6C00",
"T c #0E6D00",
"R c #007300",
"E c #007400",
"W c #037600",
"Q c #0C7700",
"! c #007900",
"~ c #037C00",
"^ c #097C00",
"/ c #008100",
"( c #008400",
") c #008900",
"_ c #008B00",
"` c #009500",
"' c #009600",
"] c #009C00",
/* pixels */
". OO  OO  OO  $O# OO  $O#.,:1 OO  OO .:55:. OO  OO# O#651 OO  O+",
" #OO##OOX. ## ##.XOO# # .>,,>X$O# #%1<7p56:42%%%%221twks<.et12ee",
"OOOOOO+#.::1##1::>$+O%46655553#+O#.<sMKGp7gxxq%%qk5sY^EGd8SPBjkk",
"OOO+$%%4sp7<248pf82%#2sbp77pf8%O$X6fKEEIAAKICs%2kmbm~)/RmCIIACCC",
"##O$48sD~Ep6sBKURKNa6sGIhpbCAk1X16fK((GA~)/G83><7hmCCAGIEKbpppff",
"1.#%amCK~Ef7hGE!ERRIbmEECfhnNceX>7CE(!mC(`(K9>57pfGAfpAUEIp6:<99",
"5<X3SImfhfpppbGKmG()IG!!Kj64ty-$ 6KEGmCK~(ES55hbphUUhfI!UAf64r--",
"p7<qKUh75,55ppbbpb!(EIUKCa2#rr;-e8GUhphGRRGj77bbpfGKbmUEGbp6tr&-",
"ppgMKGf75:><5pfpppbGEUb7<2&&90uucSLGf77pGGbpp777p7pfmAKGbpp61239",
"9sGUAbhp7:.X67pppfpbIKp,>%*-6siFBCmhp757fhs56<:67p57hCCbp7751>67",
"*iQ(Cfbbp<%#<77pbCCmbfp5,1rr37xBjp77775555>2%%X<gb75pppp7555,:44",
"@yT~CbGGh6XX:57pmCAmfpp7,<4467hbhp5577555:.###X6SA75ppp755575,31",
"#2sCCGEUb5<:,57pfffbmmp7>168777pbh7,557776##.:6gIKp5hmp757hbp56,",
" 16bmGUKbp75,,5pppppmb83XX5p7557fh755577p6226p7hUIp7fhp7:6sjp5<<",
"OesmhfhbCmp5>35jmmppf82$$%8775,577775,557788jbpfGAp7775<X#2<5<X#",
"O2NLbpphmbp6>15fmmpp5<$+$X675577557755,,777pbmhhmmhp555<X%.>56%+",
" 4JRGCCmhp75:,7pfp7,>XO$.:557pbhp77p76>1,557phmmfhmh7,776<:5bs1#",
" 4JEGCCmfs,,777p775:.##X:5557pmmbhfpp8<1>:::5fGAhpbb77pbhf7slc31",
"O2BKbpfhmg<3gbf7555:##.,57557ppbIIAbp756%#.>,pUUhppp7fGUGCClyy65",
"OXsmhp7phg3<gmf7775<X2<7bh75ppphU!EIbpp62##.:pAGf7phbGRRGmmcrr6p",
" 25hmh7577,,ppppbbp7665m!!hpbbpfAE)(Kbp7<1##<5ppppbK~(RGhs63687p",
" X3aAA75,:5577pfmbp7p7pC))AhGGbfbK/(RAf75:#%:555pfmU)`Rmp5XX6785",
"OO$0PUh6>>57557ppp75777m!~KGEEGmhfbGRUh75:X.677pbmfC!/UCf6##:5>.",
"O$#4PUb6.X8755777757ppphIRGAIIGmpppbIKh7,:1<5ppbKAffKUAbp6XX1>>.",
" X<aAGf6#%675577757pbmpfAGbpppffppbCmfp5>165spbKRUhpfbfp75:1XX>:",
".>38nCCk2X6p77p7557pmCbbmmf755657pjgp779X25pffmAUIbpp7775,,>#$13",
",1er8m~Ea:,7hbf7557ppbKKbpp75:>>,6<:653e*&9fmmbhhbCmp7555:>.%&-*",
",>&e8A)(f,57mAf755pppb!!Cpp776XX1>XX>12%&r8pbbp77pggp7,::>.112&*",
".>16jK/Ep55pCCf77pbbpm(`Ibppbs%O#$$Oo# 1987777775,3<6,:.#X1,5633",
"o.:pGERKp7phmmp77fCAhC!/KmbbCk4#O$+*@OX<57777phf7,>.>>..%X<7pp55",
"O%<b/)Gf7pmmbp757fAGACCmhbIIbp63X#&-=&455557hCUKf5,>X >:667pmb7,",
"#XaA~Eh558kkp5557fbCCmfp7hKIChp531er&r67557pbGIKf75:#%<777pfCC75",
">8JImp7,>Xe2<5777pppphmbppfAUGp5566<66557phbhppp555:.X5s557pCCp7",
",pIIp,56>X#X,7fbhppphmmmhppfKGp57755p7557fbhp7555,:>.:5555phmmpp",
",pAAp775,:<65fKUGbphKImhbbpphf5577557755777755555<X#>,,557hmhppp",
":6axfp777phbhmIUGbpfGGfpbCmfp555776,7757pp5557fh7:XX<555,7AGbp77",
">.%4xb77hAUUGCbbhp75pp7ppbIKp5575,>>,57pmbp77fKKf5:<777757IRGh75",
"  %4BAppbGIKSgp7755:,577phKGp5775:1>,77pmmhfhCUKh7557p7pphURGbp7",
"+%qBURAbhfp76<775,>.,,557phhp7555,:,77ppphmAUIChp755777fAUUGhfhm",
"#4BE(/UCp75<XX677,>>,,,6777777,:,555777ppfmAUKfppp757phG~~KbfhmC",
">6K/``UCpp76##<577855,>187555,>>,577757fmmhfhhppbbp77fK~`)Afbmhp",
"pmR()~Kbhp76XX:7ppf5<11<575:<>.>,577577pbCbhpp7fKKh77hK!(!bpGAf7",
"UE~EGmfbmb76<<5pbmf6e&355,>X#X3777pp777ppmKUAh7h~/b7pphbCbpbUIp5",
"RE(!b77fCCp55,7fmmh8rr8p5,<1%28fp7777pfppfKUAh7p!/Kmbhfpp77bUKp,",
"hG)(m77pCGAg<>5pphmj88jb75gk88bmf7557pbmpphhfp7pbK~(!UAbp77hAC75",
"fG)(CpphmCCj3>8pppCAbhmh77bCbmACp7pphmCbppfhfppp7m(`~IAmhpppbh7,",
"RE(!mpbmhffp65hb77mGCmhp77pbIRKm77GRRIbppfKUGbp77b~/Ghphmmpppp55",
")(~Ihpmmp77757hh57hAIGhfmmfbIIAh7pGERGfppbIUGbhppbKGfpphmmhp775,",
"]`EApppfp7557777,5pmURGG//Kmbhfp57fhppppbCbhfhbCCmfpppbmhhmmp75,",
"])Kbhp77p7557755776pGUIE)(Ibp7775557557pmbppfmKIGh7,5pmbppbCmh77",
")!mfmb757755777pbg<>sCREEKbpp7555,5577ppfppfKE!Ubp5,57pfpppmIUAb",
"!UCmAm7,756,7phmCNvqdhKRRKbpfp55,,,57p77p77hI!RGf7,,,577777pGUKG",
"IUUULb755,1>5hKKbmE~JmbG/(KCCb7:>>:57757775pAGhpp51>:5775557fmAG",
"NC~(EAf776>>7SRIfb~)Ihpb/)ICCh7:X :,7755pp77bh55s5:>,7pp5,,7fbCC",
"1c~`(EAmbf65hGKA7pGIbppfKIbpfp5:#o >,5,7bbp7pp55776,5pmb757fKKbp",
" 9Q)!KmCKCp7fmmf77hbhfphbhpppp7<X#.>>:,7gjpp755575,,7fGGp75hIUhp",
"OeSIhp7fUUh7777777pfmCCmp77pmmp5:<:>XX:,<37775555,>>5bUEAf7pCGf7",
"O%qs6,7bUUmpp755ppppbACj9<5pmm86,,5:X%<:.X36:,,,:>.:5hKRUAppbmhf",
"  %%.<AUIKAGIA77bb77pff8e&<7p82#X>,,::5>#$$%X>,:X%>67gfCRRAbhjmA",
" #OOo0L~ICmAUG76sk55ppp6r%<576%o#X>:<,5:#$#%11:1##<577pmURGb75kx",
"$OO+OtP~ICpphp<Xe2:7bb7566,55,.#OO##.>,:.X3859X##.6757bGKGb731%e",
"O$$##4SIAf5,<3X#O#<7hf757p56<1X##O+O#.,<XX5783$+#.6557bCmN83X#O@",
" .1:>6pfp55:X#$##15777557p76X$O###OOOX66&%<<2$O+O#X<5sppf82#OOO+",
" .:55577555>#@+O#1575,,57pp6#++O  O+@%89--3:#++O+O .5pppp6#+++++"
};
