/* XPM */
static char *_7aac33dd3a64281eab443e5dd3417afmRJuednuqmb2Ezrx[] = {
/* columns rows colors chars-per-pixel */
"64 64 186 2 ",
"   c gray6",
".  c #100F0E",
"X  c #031717",
"o  c #0D1313",
"O  c #001817",
"+  c #041C1B",
"@  c #0C1C1C",
"#  c #131313",
"$  c #1B1917",
"%  c #12161A",
"&  c #131D1D",
"*  c #1B1E1D",
"=  c #211F1D",
"-  c #05201F",
";  c #0D201F",
":  c #14201F",
">  c #1D211F",
",  c #23211F",
"<  c #031E23",
"1  c #0C1E21",
"2  c #021F28",
"3  c #0D1C2C",
"4  c #1A1E20",
"5  c #052323",
"6  c #0C2122",
"7  c #05222C",
"8  c #0B252A",
"9  c #05292C",
"0  c #0A2B2B",
"q  c #132323",
"w  c #1C2222",
"e  c #112827",
"r  c #1F2927",
"t  c #14232C",
"y  c #1B242C",
"u  c #142C2C",
"i  c #1D2B2B",
"p  c #07312E",
"a  c #0E312E",
"s  c #1F302E",
"d  c #042532",
"f  c #0A2732",
"g  c #012935",
"h  c #022C3C",
"j  c #0E2E3B",
"k  c #142533",
"l  c #1B2632",
"z  c #142A35",
"x  c #1C2935",
"c  c #15273A",
"v  c #182738",
"b  c #142C3A",
"n  c #1C2B3A",
"m  c #053232",
"M  c #0C3433",
"N  c #0E3837",
"B  c #06373D",
"V  c #0C363A",
"C  c #073A3A",
"Z  c #0C3A3B",
"A  c #113736",
"S  c #1E3434",
"D  c #143937",
"F  c #1E333C",
"G  c #123A3A",
"H  c #1B383C",
"J  c #242322",
"K  c #292625",
"L  c #252827",
"P  c #2A2826",
"I  c #242629",
"U  c #252A2B",
"Y  c #2C2B2B",
"T  c #312E2D",
"R  c #25302F",
"E  c #2C312F",
"W  c #31302F",
"Q  c #242D36",
"!  c #2B2E32",
"~  c #242F3A",
"^  c #282F38",
"/  c #253232",
"(  c #2A3233",
")  c #25313C",
"_  c #29333D",
"`  c #323232",
"'  c #31353A",
"]  c #363B3F",
"[  c #3C3B3B",
"{  c #42413F",
"}  c #052743",
"|  c #052846",
" . c #0C2946",
".. c #052F4D",
"X. c #0E2E4C",
"o. c #142D45",
"O. c #1B2D40",
"+. c #112D4A",
"@. c #053640",
"#. c #063A45",
"$. c #093A44",
"%. c #06304D",
"&. c #09314E",
"*. c #043C4A",
"=. c #093D4A",
"-. c #143141",
";. c #1D3543",
":. c #113C40",
">. c #13314D",
",. c #1D354D",
"<. c #1D3A49",
"1. c #052C52",
"2. c #0E2F51",
"3. c #043454",
"4. c #0B3252",
"5. c #043E51",
"6. c #06325B",
"7. c #0C335A",
"8. c #05395F",
"9. c #0E385F",
"0. c #143454",
"q. c #1D3650",
"w. c #1D3A56",
"e. c #11365D",
"r. c #14395F",
"t. c #1D3D5D",
"y. c #253443",
"u. c #293542",
"i. c #2B3846",
"p. c #263648",
"a. c #2A3949",
"s. c #363C41",
"d. c #373C41",
"f. c #3A3E42",
"g. c #323F4B",
"h. c #343F4B",
"j. c #323F4C",
"k. c #063563",
"l. c #0B3662",
"z. c #053A63",
"x. c #0E3863",
"c. c #0D3A63",
"v. c #0D3965",
"b. c #0E3864",
"n. c #04376B",
"m. c #043A6D",
"M. c #083868",
"N. c #09396A",
"B. c #0A3C6D",
"V. c #0C3C6C",
"C. c #0F3F6F",
"Z. c #133960",
"A. c #133A61",
"S. c #153B62",
"D. c #173D63",
"F. c #193E63",
"G. c #183D64",
"H. c #113F6E",
"J. c #053C73",
"K. c #063E73",
"L. c #083F76",
"P. c #003E79",
"I. c #0A404F",
"U. c #074053",
"Y. c #00405A",
"T. c #324252",
"R. c #014365",
"E. c #07406C",
"W. c #034274",
"Q. c #0E4273",
"!. c #0C4375",
"~. c #0D4276",
"^. c #05447C",
"/. c #0D4379",
"(. c #0D437A",
"). c #07497E",
"_. c #104070",
"`. c #124373",
"'. c #134374",
"]. c #154575",
"[. c #414140",
"{. c #414141",
"}. c #424141",
"|. c #024382",
" X c #074481",
".X c #084787",
/* pixels */
"` ` ! ` ( W T ` [ }.}.}.{ [ ` ` ( ( ` ` ` ` ` ` ` ` W ` [ { }.[.{ { }.[ ` W W W ` ` [ }.}.[ ` ` ` ` W ` [ }.}.{ ` W W W ' Y J , ",
"Y ` Y Y Y ! u.a.f.[ [ ] g.g.' Y Y Y Y Y U K Y Y Y Y ` ` [ [ [ ] g.T.f.[ W Y ! Y Y ! [ ] g.g.' Y Y Y Y ` ( s.j.g.' T Y ! Y K , * ",
"` Y P J , ~ _.].a.W P ~ D.D._ W K J J w q & J J J K T ` ` ` Y ~ e.F.i.T U J J J K J K ~ D.D.u.Y K J K J w V b.F._ T K J J , % # ",
"` Y J w v 0./.'.y.P , l 7.b.w.) U , > & X @ & q q i Q ) ! K J c m.~.y.U I y 4 , * * * l 7.x.,.~ x t q & - d 6.S.q.~ L , , * #   ",
"` Y J n V./.t.y.U J = J y +./.'.y.J : @ & 1 1 5 m $.4.X.y J , b  X XO.y  . .3 = @ @ * w l o.b.M.6.| 7 1 & q l o.k.r.) P J * #   ",
"` Y y o.~.'.y.K 4 * * , * b B.Q.<.R q @ w w d m C $.%. .t * * c V.V.n y +.X.z w @ @ & * * t 7.M.l. .8 q w , * t 7.9.y.Q L = #   ",
"` ) o.2.,.y.U * & @ * : ; 8 c -.$.G i K , y 7.k.;./ l t 6 + + 6 ;.y.I I Q F C M w & @ X X 1 t n ~ ^ Q L J * @ 1 k c V G ! J %   ",
"` _ >.>.Q P J & + + * : - @ : w m M / ! n >.b.r.) K J & + - O q U U K J Y R G Z u q @ + O + & > U Y ( / I w X X > r M V F Q 4 # ",
"[ [ _ ^ L , @ + O @ : * + @ * q 8 5 > n _.~.w.) L J & X O + & q M G / Y J L Q S Z M q & + + + & 4 i D G / J @ @ & , r z X. .y $ ",
"}.[ ` P w & @ + g d w * @ @ & & - 6 z 0.|./.y.P J & X + + @ * i @.$.H U J J Y R G A U w 6 6 + @ 4 i D G / Y 1 X & * * y  . .y , ",
"}.[ Y 4 @ @ & t 6.6.l * * * @ @ & v Q.|.P.9.l w 1 @ 1 * $ * * y %.3.$.A r , J K / ( Y Y U U * w P Y / / L J * & @ @ * J y y w , ",
"[ ' L & O @ t >.x.9.b r J * X O * F W.|.k.+.z q 6 6 w J l l I y  .%.$.A r 4 & w L Y ` ( Y ! ~ n ( ` Y L w w J * X + * w y y J 4 ",
"` ( q @ & t 7.r.q.;.G M w * + X J / U.U.;.F Z G S L J l 6.r.) Y y x / Q J : - q w Y Y Y K n B.'.p.Y K w 6 6 * * O + $ y |  .y = ",
"` Y 6 8 k >.z.z.) / C C u w & q F ;.G G ( ( C C / Y l +.v.D.;.R L K Y P w : @ q & J Y Y n 0.~.'.y.Y w & 6 @ & & @ @ k o.2.X.3 $ ",
"` Y w k 6.z.Y.$.i i C C / K 4 k 9.S.;.E E / C C i x e.x.,.;.G G R Y K w 6 6 : > 4 J , n V./.t.y.L w 6 6 q & @ @ $ k 7.x.,.I = # ",
"` Y P x A.b.#.M w w M D / T K x 7.e.) Y E R N m w y 7.x.;.F G G S R L w ; - q * , J v 0./._.i.P K w q q 4 * @ 1 k >.x.S.~ K $   ",
"W Y Y ( _ _ y L w w w i Y ` E U x l I J J J 9 5 w 4 l o.X.>.F S G G U Y J & 6 @ > v B./.t.y.U J P Y U U J * * k B./.w.) L = #   ",
"` ` W W W P w & * J J K Y Q p.y.i w > , : q ; ; q > J l 6.7.) U N Z ;.) U w 6 6 q -.Q.].y.P J U ~ y.) Q L J = n H.'.y.K J & #   ",
"}.[ ` Y L J ; 6 w J Y Y J n '.!.I.a w : @ 6 : : @ 6 L ) M.M.n J r b 9.A.) P w q M C <.y.Y , , y 7.V.9.+.Q K = I y.y.! J 6 @ o # ",
"}.[ _ Y J : - + & J R U P n V.^.R.#.i w q ; : w q 0 F ,.x.7.l * * t 7.b.q.) L r M N U L : * : c J.|.k.>.^ ^ ~ ) ! K 4 1 < + o   ",
"}.[ Y J J & + O & r A G / Y n >.m.b.) L w & 4 J L ) S.b.o.l J & O 1 l o.b.D.) Y i e q - @ + @ } ^..Xw.( ! p.C.J.n > 1 5 O + o . ",
"f.` K > * & @ 1 k o.#.@./ P > t 7.b.q.^ J J J L R ;.x.7.k * 4 * & X & t 4.9.;.R K w 6 + + O O h P./.y.T Y p.^./.F w + + + X # . ",
"` ` K * ; @ * k B.^.z...l w @ @ t -.x.e.l J P ( G Z b k 6 6 4 J w & @ @ k b Z G R L 5 + O O O 7 k.l.) Y K v 6.M.~ I @ + & $ #   ",
"` Y J : ; 8 v 0././.k. .t : + @ & l 7.7.x K Q F Z M w > @ 6 & * : * X 1 k c V Z S S e 6 X + O 7 | >.F R J y  .+.;.x q @ 4 * # # ",
"` Y K w * v B./.t.y.x t q + + + : w l x Y _ +.&.v L > * * & @ + @ ; q z V.K.) u M G S K w & @ 8 x F G N w J y c X.>.Q L J * # # ",
"Y Y J w l >.~.'.y.K , * - < 5 6 > J l Q Y ) X. .y J J J J * @ + + 8 z 0.].V.n w M V F Q L w 1 8 F <.G M i * > t  .X.O.^ L 4 # . ",
"W Y J l 7.b.w.y.Y , , * X X & w * l 7.r._ ! l y Y Y Y Y J * * * * c V./.t.y.I w L z +.+.Q Y > k 7.r.y.R J : 6 6 t c X.2.Q K $   ",
"` W K x 7.9.^ Y l z y e d 7 q J y X.z.c.) P J J Y Y / / I J , J y >./._.) J J * * k  .X.n ~ L x z.b.y.T J : @ + & t  .+.^ U $ # ",
"f.[ ` ! x l J l 0.k.$.@.8.3.t y 0.m.Y.#.i J * , J i A G / Y , l 7.b.w.;.8 & > w ; 6 e n X.>.) / =.I.( E K * + O X @ t l ^ Y , * ",
"}.[ ` ! y y t o.z.R.I.=.z.x.o.o.9.k.$.M w , w w w q M A / Y i b x.S.) J & O & : - - & 3  .X.) / Z C R P J * @ X O + & J K Y J , ",
"}.[ ` ^ +.1.1.3.5.=.H ) _ ,.x.l.o.z i w w w ; 5 5 6 q i Y / A Z ;.Q L , : & 6 + + O X @ t y Y ( C C i , , * : & + O + 6 J J , 4 ",
"}.[ ` Q +.1.1...B M U E E ;.D.r.x , * * w 1 + + < ; w J Y / =.=.;.Q K J J w @ 5 + X X @ > J E / G N z c c l i w 1 1 6 8 t l 4 , ",
"[ [ Y J y k d 9 e r J U G G ;._ ! K J * 6 + + + & w 4 J J x k.m.6.>.Q Y J * 4 q 5 + & * * J Y Y i z 7.B.M.8.#.M R L U x X. .y , ",
"}.[ Y J J 4 @ @ 4 & * q M G ( E ( / L r 6 < + O & * * 4 u o.x.V.7.X.n _ U J , * 6 6 k l I P Y Y J x 9.!.W.R.*.G / Y Y Q >.+.y > ",
"}.[ W P J * * q 6 + + 6 s ( ( ( G G / L w : + - 5 + + 7 6.b.,.~ l c X.>.Q Y J * : l 6.9.) Y J J Y ( ) <.U.I.H Q L J J I Q Q I > ",
"[ s.p.~ L J * w ; < O @ J ( ) ;.Z G ( Y L w 6 5 < - + g 9.S._ P w t | +.,.~ U J , x 8.x.y.Y J J J U Y U M N U Y L J K K Y U , * ",
"` u.D.S.) P J w w & O @ * x r.9.b r Y ` T Y w * : q m B ;.) L w 6 6 q o.x.S.y.U , i #.=.) Y K w 6 & w w 8 9 L J P Y Y Y K * $ # ",
"` _ e.x.q.) L J > * X 1 t o.l.7.l J Y Y ` R i w , r A G / K w & @ @ & k 7.0.~ Y x c Z G S K 4 & O @ & q @ ; w L Q ) / U J $ #   ",
"T ! x o.b.r.) P J , > k 7.l.o.l w J J K Y ( G M w J R / L w @ @ & q @ 8 k Q J v 7.9.;.R e - @ @ & & @ @ : w P Q >.X.f 6 4 * #   ",
"` Y J l 7.x.;.R K J , l e.e.x , * & 4 w L R G $.-.n Y K w $ @ @ * & < @ & = , n 9.r.) Y q - + X w w 6 q > L R F &.| 7 @ 4 * #   ",
"` Y J w l b $.G / Y J y ) _ ( K & + 5 6 w L R <.Q.V.~ * @ @ & * @ + + 5 * , P ! u.) U J L r O + & J 4 w P R G Z z q 1 X w * #   ",
"` Y J * , w M M / R L K R ( _ x 1 + + + * J P y.'./.0.k 1 @ & q + O + 1 t l / / Y Y J K Y Q f 7 4 , J L / S N M r * X X * * $ # ",
"` U q @ * J w u M G R R G $.4. .t $ O + * , J U y.t.~.V.k & & + O + & t | &.$.A U J 4 J Y y.9.6.l , P / G Z u r 4 * X + 4 , * * ",
"` L & X * * K i M Z F F Z @.5...k & @ 1 3 y I J P y.'.'.O.4 6 + @ @ v o.0.&.$.M q * : w L ) r.b.o.l Y R G M y * * & @ & 4 J , , ",
"( Y w * * J P Y y z X.>.F D #.B 9 - $ t  .X.Q Y K L y.p.! Y w & & v V.Q.,./ y q @ + + 6 r L ) ,.b.7.l P Y / J * @ X & w U Y J J ",
"! Y K w l v / R J y  .+.) E G C 8 6 q z X.>.Q P w w Y Y W Y J w x 0./.'.y.Y = & @ + @ - 4 w Y ) D.v.>.n ! P J 4 @ & 4 L Q U w $ ",
"` Y J y 7.b.*.A r 4 y i Y ` ( R > q p G F Q L w 6 6 , K W Y K n M./.t.y.L * @ @ $ & w q @ 6 w L ) w.~.B.n , , * * , Y / G M & # ",
"T T K n 8.R.*.M r 4 4 w Y Y Y Y x b Z G Q Y w & < + 4 J U Y L n '.].<.U I w @ @ w J J w 9 5 w K Y y._./.0.v J 4 r i Y / G 0 @   ",
"W T T / =.*.z L w q ; 6 w J J x 7.x.;.Q L > & O O + 4 J J K P ( a.<.G G Q U 4 w Y Y Y U M C i Y K K y.t./.B.n w a G ( Y i q # . ",
"` ' i.<.C M q > = * 6 + & J y +.n.M.y.K K > @ O O @ * w q i / / ) F G G ( T K K Y ! / F G G ( Y J > P y. XL.O.y G G / Y J * # . ",
"[ T.].~.j q 6 6 w & O + & l 7.m.n.6.l K P Y w & - + 4 w M C Z $.%.>.) ( ( T Y Y K l X.>.;.( ( Y q ; w c k.l.y.Y R R L J , * #   ",
"{ T.].V.n * @ < & & @ & * Q e.V.7. .y L Q Q K w 6 1 4 u B I.C $.&.&.l Y Y Y T Y J t 1.7.) W T L - - : t }  .~ W Y Y w : 4 * $ # ",
"{ s.) n w & @ X @ - & w U W u.y.l y U Q +.>.Q P w > * l %.4.;./ i t 1 : w J J J = y 1.2.) Y Y 4 @ + + 5 2 7 U W K w 6 6 4 4 = * ",
"{ [ Y , , 4 @ + < 6 w K Q ^ Y K J J Y Q +.4.q.y.Y , w y X.>.F U J : @ @ & * = 4 l o.2.+.Q L J & + O + + + & L P K > @ 6 J J , J ",
"}.[ Y Y J 4 4 & - 5 U Q +.+.l , , J J K y o./.'.y.P , J Q F G A L = * & O & * y 4.x.,.Q I J = * + X O + & * J J , * 4 w L Y J , ",
"[ [ ' Y J J J * ; q U ~ 4.4.l , w 4 4 & * v B./.t.y.U K P R G M q * * & @ 1 k 0.b.r.) Y K J K w & X O + * * w q q i l x ^ Y , * ",
"` ` ` T T U J , : > J i @.$./ U 6 5 - + + 1 k 0./.].y.Y K L R i 6 @ @ - & z B.~.w.) U J Y Y Y P 4 & + X * w 1 5 M #.k.r._ Y * # ",
"` W Y ~ y.y.U , J , : 6 m C / U 0 5 5 @ X @ $ n _.V.p.Y , y ) n 8 O + 6 v 0.).~.;.J J J Y ^ p.y.Y > & @ * * ; 9 *.R.E.r.) J # . ",
"` Y K n V.].y.P J 4 1 5 5 0 / / Z m 6 w w * = w n ~ ( Y , l 7.9.g + & z V.).R.I.8 & * , J O.'.'.y.K 4 4 * , * z W.).w.) L , #   ",
"W T K n V./.t.y.L w 6 - 5 q K / G Z U J w : w * * w Y U Q o.M.9.d 1 v 0.!.!.*.p + @ 4 , = l B./.t.y.U J J w n 0.~.'.y.P J > #   ",
"` Y J I x 0./.'.y.L 6 5 6 > J L Q ( ( L e 5 6 O + @ w x 7.x.q.~ w c V./.I.y.l r 4 * J = = y n 0./.'.y.K J n V./.t.u.U J J * #   ",
"Y U , $ $ l V.V.y.L q 1 & * * = J Y Y L 6 5 + X X o # l 7.e.^ K J n _.J.y.K > $ * = * * * $ $ l V.V.y.P = v V.H.~ J = * * $ #   ",
"J , % # # % 3 3 w w 4 * % # # # % $ , J w & % o o # # & l x J J , y n l * # # # # # # # # # # % 3 3 w J , y n v 4 # # # # # #   ",
", * # . . .   # * w , = #       . # * , = * #         # $ * J > , , , $ #     #     # . #       . # * , , = = * #     #     #   "
};
