/* XPM */
static char *_de1c5853b404af7b96de0059576bbddGRf5wOmNrdLAKLDM[] = {
/* columns rows colors chars-per-pixel */
"64 64 188 2 ",
"   c None",
".  c #000000",
"X  c #0A0701",
"o  c #0C0A03",
"O  c #130C02",
"+  c #190E02",
"@  c #141104",
"#  c #1A1304",
"$  c #1D1905",
"%  c #1A1708",
"&  c #1E1B09",
"*  c #241504",
"=  c #281703",
"-  c #221D06",
";  c #2C1A05",
":  c #221E09",
">  c #2D1C09",
",  c #331D05",
"<  c #381F03",
"1  c #321F0A",
"2  c #2C1F10",
"3  c #272207",
"4  c #2C2506",
"5  c #262109",
"6  c #2A250A",
"7  c #2E290C",
"8  c #3F2404",
"9  c #30200E",
"0  c #352D0B",
"q  c #372906",
"w  c #37300D",
"e  c #3C330C",
"r  c #2E2113",
"t  c #2F2A10",
"y  c #342514",
"u  c #3E3611",
"i  c #422604",
"p  c #462805",
"a  c #4C2B05",
"s  c #522E04",
"d  c #512F08",
"f  c #4F3005",
"g  c #43350B",
"h  c #453B0E",
"j  c #4A3C0D",
"k  c #4B3308",
"l  c #553005",
"z  c #5B3305",
"x  c #55330D",
"c  c #5C3508",
"v  c #563C0B",
"b  c #443B12",
"n  c #483E12",
"m  c #563713",
"M  c #613706",
"N  c #663907",
"B  c #6A3C07",
"V  c #643A09",
"C  c #6C3D08",
"Z  c #4C410E",
"A  c #474017",
"S  c #4D4313",
"D  c #4E4518",
"F  c #514512",
"G  c #554A14",
"H  c #5A4E15",
"J  c #544A19",
"K  c #594E1A",
"L  c #5E5116",
"P  c #5D5119",
"I  c #6D400B",
"U  c #714007",
"Y  c #74420A",
"T  c #7B460A",
"R  c #7D480C",
"E  c #7D4C15",
"W  c #62561B",
"Q  c #66591D",
"!  c #6A5D1D",
"~  c #605215",
"^  c #7F501A",
"/  c #6F611F",
"(  c #5C4020",
")  c #6C5F21",
"_  c #6E6122",
"`  c #6E622A",
"'  c #736523",
"]  c #766926",
"[  c #76692A",
"{  c #7A6C2A",
"}  c #736628",
"|  c #7E712F",
" . c #796C30",
".. c #834C0C",
"X. c #894E0C",
"o. c #8C510E",
"O. c #85520E",
"+. c #93550E",
"@. c #97580F",
"#. c #99590F",
"$. c #834E10",
"%. c #8C5312",
"&. c #8C571B",
"*. c #935712",
"=. c #955813",
"-. c #9B5C12",
";. c #935A1A",
":. c #9B5F1C",
">. c #A15E11",
",. c #A56114",
"<. c #AB6514",
"1. c #AE6817",
"2. c #A1631B",
"3. c #AA661A",
"4. c #AD691D",
"5. c #B06714",
"6. c #B46A15",
"7. c #BA6E15",
"8. c #B46D1B",
"9. c #B96F1A",
"0. c #BE7016",
"q. c #B6701F",
"w. c #BC721C",
"e. c #81592C",
"r. c #9D6422",
"t. c #80732F",
"y. c #836139",
"u. c #827533",
"i. c #AB6B21",
"p. c #A16B2E",
"a. c #B26F22",
"s. c #B77325",
"d. c #BC7422",
"f. c #BA762A",
"g. c #BD792B",
"h. c #A06F35",
"j. c #AF7431",
"k. c #BE7D33",
"l. c #C17116",
"z. c #CA7617",
"x. c #C3751B",
"c. c #C9771A",
"v. c #C7781E",
"b. c #CB7A1D",
"n. c #D27E1E",
"m. c #C17722",
"M. c #C67A23",
"N. c #CC7D22",
"B. c #C47C2A",
"V. c #C97E29",
"C. c #D17F21",
"Z. c #C17E32",
"A. c #A67944",
"S. c #D5801F",
"D. c #CE8127",
"F. c #CC812C",
"G. c #D28125",
"H. c #D2842B",
"J. c #D6882E",
"K. c #DA8627",
"L. c #CD8433",
"P. c #CF8837",
"I. c #C7853A",
"U. c #CB8739",
"Y. c #CC893C",
"T. c #C58337",
"R. c #D28731",
"E. c #D38833",
"W. c #D48935",
"Q. c #D68E3E",
"!. c #D58D3C",
"~. c #DB8D36",
"^. c #D7903F",
"/. c #B6844B",
"(. c #CD8D43",
"). c #D48F42",
"_. c #CF9047",
"`. c #CF934E",
"'. c #D69143",
"]. c #D89344",
"[. c #D6954A",
"{. c #D9964B",
"}. c #D9984E",
"|. c #D79951",
" X c #DA9B53",
".X c #DB9E59",
"XX c #DFA25B",
"oX c #E3A45C",
/* pixels */
"                                    . . . . . .                 . . . . . . . .     . . . .                                     ",
"                                    + # ; 1 1 >                 y y y y 1 1 , ;     O O + +                                     ",
"                        . . . . . + p B o.:.2.^ > . . . . . . r y.A.A.h.2.:.-.E ; X , p s p + . . . . .                         ",
"                        * * * # * i Y :.6.x.N.2.x ; ; ; * # > ( /.oXoX{.J.n.c.=.i = a U ..T i * # + + #                         ",
"                    . * V T V V Y ;.8.9.1.,.>.-.:.-.=.%.C I &.j.`.XX.X].K.c.5.+.N c U o.1.6.=.Y c d z p + .                     ",
"                    . * $.5.#.=.1.w.x.9.,.+.o.-.l.n.C.x.,.2.d.R.[.}.}.Q.F.0.>.o.....+.<.x.c.6.-.Y N T M + .                     ",
"                    . = %.0.6.6.x.x.1.>.>.-.o.+.7.n.G.G.M.d.9.m.P.'.'.W.G.l.>.+.X.+.6.M.H.M.>.R N M Y M * .                     ",
"                    2 m ,.c.c.c.N.l.,.#.#.#.+.#.7.N.H.W.W.H.m.d.F.E.R.R.G.x.6.>.:.,.7.x.B.s.%.C z z C N ; O                     ",
"                . y e.j.x.b.N.N.b.l.5.>.+.+.,.5.5.w.L.Q.^.!.P.F.F.G.G.G.G.N.M.m.M.d.9.<.,.=...I N B C C s < O .                 ",
"                . 6 h.~.C.b.C.G.N.x.m.a.:.,.6.6.<.8.L.'.[.[.P.F.N.n.F.R.E.F.N.N.C.N.7.,.#.X.R T ....X.R C p + .                 ",
"                . > :.C.n.b.C.R.H.L.W.Y.I.B.x.7.<.1.F.^. X[.f.q.c.N.E.!.!.L.m.l.c.b.l.6.,.+...o.,.5.-.X.Y s + .                 ",
"                ; x ,.n.b.M.M.M.V.T.).}.}.).F.M.8.8.s.k._.I.q.5.l.N.!.'.'.P.V.w.c.z.c.x.8.3.-.:.7.l.5.-...z + .                 ",
"            . ; R 1.x.H.R.V.9.1.<.s.(.|..X|.).W.F.s.;.=.4.d.1.<.l.G.!.'.'.'.!.L.c.z.z.N.L.U.B.w.5.5.l.9.-.N * .                 ",
"            . , -.C.H.R.R.V.8.,.3.f.Y.|..X|.Y.L.E.s.R U o.>.<.0.x.N.W.'.'.'.].).J.D.F.E.'.'.R.M.6.9.c.x.<.T , O                 ",
"            . , =.C.W.W.V.v.7.9.B.P.'.{. X_.f.8.c.8.T c B X.6.x.0.w.F.W.Q.'.'.[.[.[.{.[.Q.E.N.c.x.c.b.l.>.X.z < O .             ",
"            . , =.G.W.E.N.7.7.m.F.!.Q.'.[.Y.8.<.0.<.O.U U ..<.0.,.<.v.H.!.).'.{.|..X.X{.W.M.l.0.l.l.7.<.*...N p = O             ",
"            . > =.G.J.L.m.7.6.9.V.J.E.E.W.F.q.<.<.<.<.,.+.@.,.,.+.=.m.C.!.Q.].].}. X{.W.B.7.5.<.5.>.X.C B M l l s i + .         ",
"            . ; T 3.V.H.M.w.7.w.N.F.H.H.G.M.0.<.,.<.0.x.6.1.1.,.+.:.m.J.J.!.V.Z.Y.I.Z.s.x.9.5.,.-...N l s s s z B l + .         ",
"                * x i.K.H.V.N.c.b.G.J.F.N.c.6.<.<.8.D.H.V.M.M.w.>.8.R.).!.V.a.4.i.2.*.;.6.v.M.6.*.C M s z z l M C c + .         ",
"                . ; ;.N.G.F.N.x.N.H.W.W.F.N.6.,.-.<.B.H.G.K.J.V.x.m.V.!.R.V.6.>.>.+.C ..5.b.C.9.X.N l z B B M M M a + X         ",
"                . * o.w.x.7.6.7.N.W.[. X{.U.q.>.+.#.0.G.G.G.J.H.N.b.C.C.C.c.l.6.>.@.T ..>.z.n.7.X.C M N ..T C l ; +             ",
"                ; x ;.7.,.-.*.>.w.W.}.XXXX(.q.+.T ..<.l.w.d.F.H.C.b.C.N.l.7.6.<.>.X.C T +.<.7.<...C C T X.X.C a + .             ",
"            . ; E i.m.8.%.Y B ..q.G.^.}..X(.3...U Y >.5.,.,.w.b.n.C.C.B.6.>.#.+...C B M N R #.+.C C +.@.X...C d + .             ",
"            . 9 2.K.G.8...N z C -.x.F.^.'.T.2...Y ..,.6.-.#.6.c.l.9.d.a.>.+.X...C N M M N C ....C T +.+.N l l 8 O .             ",
"            . 1 2.G.v.<.X.B z N R -.M.H.G.m.-.+.#.<.7.0.<.1.c.0.>.=.X.$...T X...Y B C Y ..X...C U T R B , + + O . . . .         ",
"            . 1 ;.d.,.*.R Y C U Y o.9.b.c.7.>.-.#.<.7.l.0.0.b.w.@.........X.-.-.&.%.o.+.#.X.C N C Y T c # . . . . . . .         ",
"            . * Y *.T N V C o.+...o.<.7.7.6.5.-.....-.5.6.l.b.w.*.X.=.>.,.8.m.B.B.s.6.,.+.Y N l c C ..C * . . . . . . . . .     ",
"            . # d M l z M T >.-.I V Y ....o.>.=.U U +.<.0.v.G.d.>.o.=.>.1.9.m.V.F.V.l.,...C z s s C o.Y * . . . . . . . . .     ",
"                + ; p M C X.>.o.8 # * ; * 8 I ..C U +.<.l.G.E.F.6.+.Y C ..=.,.9.7.9.>.+.T N z s s M ..U * . . . . . . . . . . . ",
"                . o , p z N Y V * . . . . + i d a c ..-.w.c.F.f.,.X.M s N C ..+.#.#.o...U N z s s z V l + . . . . . . . . . . . ",
"                    O + # * * *             + + # ; z ..<.6.3.=.Y M s s s z M N N C T ..T C z s s p ; + X . . . . . . . . . . . ",
"                    . . . . . .             . . . O 8 I O.o...U z s s s s s s a i p s N C N z s s i O . . . . . . . . . . . . . ",
"                                                . o q j v v z z s s s s s l l 8 * O + ; a z s l z i O . . . . . . . . . . . . . ",
"                                                . @ 0 b h g k a f a f l a p i ; o . . X ; 8 8 i p < O . . . . . . . . . . . . . ",
"                                                . @ e K P K F j j g g g p 4 # X X . . . O O O O + O . . . . . . . . . . . . . . ",
"                                                . @ e K ) Q P F S j h e w 4 @ X . . . . . . . . . . . . . . . . . . . . . . . . ",
"                                                . @ e H Q / ! Q L G Z h e w 7 & o . . . . . . . . . . . . . . . . . . . . . . . ",
"                                                . @ e H ! ' ] ] _ Q G Z h g u 7 o . . . . . . . . . . . . . . . . . . . . . . . ",
"                                                . @ g L / ] { { | } P Z h h b 7 @ . . . . . . . . . . . . . . . . . . . . . . . ",
"                                                . O 0 S W ' { t.u.{ W Z S b b t o . . . . . . . . . . . . . . . . . . . . . . . ",
"                                                    O 5 D ! ] | | [ Q G S S u t o .     . . . . . . . . . . . . . . . . . .     ",
"                                                    . @ b Q ] { [ _ W H S u 0 5 o .     . . . . . . . . . . . . . . . . . .     ",
"                                                    . % G _ ' / / W P F h 0 $ o         . . . . . . . . . . . .                 ",
"                                                    . % J ' / ! W L G h 0 $ o .         . . . . . . . . . . . .                 ",
"                                                    . % G / Q ~ G F Z 0 # o             . . . . . . . . . . . .                 ",
"                                                    . % F ! Q Q W H Z 0 $ o             . . . . . . . . . . . .                 ",
"                                                    . % F ' ] [ { ` K b e 6 o .     . . . . . . . . . . . .                     ",
"                                                    . # F ' { u.|  .P J S w % o     . . . . . . . . . . . .                     ",
"                                                    . % J ] u.u.} _ Q P F h 7 & o . . . . . . . . . . .                         ",
"                                                    O 6 K ] | | ' / / Q G S h w % o . . . . . . . . . .                         ",
"                                                . @ w D ~ ! ] { } ' _ Q L G J A 0 : o . . . . . . . . .                         ",
"                                                . @ n Q Q ! ! _ _ / Q P H J G D u 6 o . . . . . . . . .                         ",
"                                                . @ b Q _ / Q L G G G G F F S h e 3 o . . . . . . . . .                         ",
"                                                O 5 S Q _ _ P G S h e 0 w w 0 0 0 4 @ o . . . . . . . .                         ",
"                                            . @ 7 h S H Q Q W K F e $ o @ O o $ w e 4 $ X . . . . .                             ",
"                                            . @ u S g h H W W J e 4 o . . . . O 3 w w 4 @ X . . . .                             ",
"                                            . O w u & 5 A P K b : o             o $ 7 0 - @ X . . .                             ",
"                                            o $ 6 t o @ w A D u & o             . o - 4 3 - o . . .                             ",
"                                        . o : 5 % o     @ : u b t : o .             o @ - - o .                                 ",
"                                        o @ 5 : o .     . o 6 w w 5 o .             . o $ # o .                                 ",
"                                    . o $ & @ o             @ @ 3 & o .                 X o                                     ",
"                                    . o $ $ o .             . X # % o .                 . .                                     ",
"                                        o X                     X X                                                             ",
"                                        . .                     . .                                                             "
};
