/* XPM */
static char *c0b9ca83f4924b73825186a5904b3a59pt7Vtie3qpbFAkbQ[] = {
/* columns rows colors chars-per-pixel */
"64 64 224 2 ",
"   c None",
".  c #000000",
"X  c #0D0D06",
"o  c #0E0F08",
"O  c #1E0C00",
"+  c #14150A",
"@  c #1B1B0D",
"#  c #250A00",
"$  c #2C0B00",
"%  c #330C00",
"&  c #2B1500",
"*  c #2A1500",
"=  c #341400",
"-  c #341B00",
";  c #391B00",
":  c #232311",
">  c #2B2B15",
",  c #2C2C1B",
"<  c #33331A",
"1  c #3B3B1D",
"2  c #3A3B19",
"3  c #2B2B0C",
"4  c #38382A",
"5  c #3E3E30",
"6  c #4A1200",
"7  c #581700",
"8  c #761D00",
"9  c #6B1A00",
"0  c #5B2B00",
"q  c #482906",
"w  c #663500",
"e  c #763400",
"r  c #704811",
"t  c #454523",
"y  c #4B4B26",
"u  c #53532A",
"i  c #5B5B2E",
"p  c #585826",
"a  c #5C5D34",
"s  c #636331",
"d  c #6B6B35",
"f  c #6D6E38",
"g  c #74743A",
"h  c #7B7B3D",
"j  c #747237",
"k  c #73692E",
"l  c #55481D",
"z  c #797B42",
"x  c #862100",
"c  c #8C2200",
"v  c #832B00",
"b  c #992600",
"n  c #972600",
"m  c #863706",
"M  c #A42900",
"N  c #AC2B00",
"B  c #B32C00",
"V  c #BB2D00",
"C  c #A93400",
"Z  c #BC3200",
"A  c #BD3B00",
"S  c #B33700",
"D  c #C23100",
"F  c #CC3200",
"G  c #C43B00",
"H  c #CA3E00",
"J  c #D23400",
"K  c #DB3600",
"L  c #DC3C00",
"P  c #C72F00",
"I  c #E13600",
"U  c #E33900",
"Y  c #EC3B00",
"T  c #EB3700",
"R  c #F43C00",
"E  c #FD3E00",
"W  c #844301",
"Q  c #8A4803",
"!  c #9A4B00",
"~  c #9A590C",
"^  c #9A5D10",
"/  c #AA4B00",
"(  c #B84900",
")  c #AC5500",
"_  c #A85803",
"`  c #B45900",
"'  c #BC5D00",
"]  c #BB5500",
"[  c #B24E12",
"{  c #996215",
"}  c #8E611A",
"|  c #BD6404",
" . c #AA630E",
".. c #8B7A34",
"X. c #956F27",
"o. c #A37F39",
"O. c #CC4B00",
"+. c #C74400",
"@. c #DB4100",
"#. c #D34200",
"$. c #CB5400",
"%. c #C35C00",
"&. c #C75800",
"*. c #D35E00",
"=. c #D45700",
"-. c #E34500",
";. c #E74800",
":. c #EA4A00",
">. c #EC4500",
",. c #FE4300",
"<. c #FD4B00",
"1. c #F24A00",
"2. c #EC5600",
"3. c #E85700",
"4. c #FD5C00",
"5. c #F35900",
"6. c #C36200",
"7. c #CC6500",
"8. c #CD6900",
"9. c #D56200",
"0. c #DA6300",
"q. c #D36A00",
"w. c #DA6E00",
"e. c #DD7000",
"r. c #CE7200",
"t. c #E46500",
"y. c #E76A00",
"u. c #FC6300",
"i. c #F26C00",
"p. c #FC6D00",
"a. c #F26100",
"s. c #E37200",
"d. c #ED7500",
"f. c #EC7900",
"g. c #F57200",
"h. c #FB7300",
"j. c #F47B00",
"k. c #FB7D00",
"l. c #98873B",
"z. c #A4893C",
"x. c #DF9000",
"c. c #E88600",
"v. c #FE8300",
"b. c #FB8C00",
"n. c #F78C00",
"m. c #ED9500",
"M. c #E99500",
"N. c #FF9100",
"B. c #FC9C00",
"V. c #F49600",
"C. c #ECA500",
"Z. c #ECA900",
"A. c #E6A800",
"S. c #FFA400",
"D. c #FBAD00",
"F. c #F5AA00",
"G. c #ECB300",
"H. c #FCB400",
"J. c #FABD00",
"K. c #F4B500",
"L. c #FEC200",
"P. c #848442",
"I. c #8C8C45",
"U. c #8B8B49",
"Y. c #94944A",
"T. c #9B9B4D",
"R. c #939349",
"E. c #979755",
"W. c #8F904D",
"Q. c #A4A452",
"!. c #ACAC55",
"~. c #A2A35C",
"^. c #AFAF59",
"/. c #B4B45A",
"(. c #BCBC5D",
"). c #B1B157",
"_. c #A6A651",
"`. c #969670",
"'. c #A9AA64",
"]. c #BCBC63",
"[. c #B8B868",
"{. c #B9B979",
"}. c #A9A972",
"|. c #A49E4D",
" X c #C1C15F",
".X c #C3C362",
"XX c #CCCC65",
"oX c #C3C36B",
"OX c #CECF69",
"+X c #D0D067",
"@X c #D3D36A",
"#X c #DCDC6D",
"$X c #C7C775",
"%X c #D3D375",
"&X c #DCDC7B",
"*X c #D8D87A",
"=X c #E0E06E",
"-X c #E4E473",
";X c #EAEA75",
":X c #E2E27D",
">X c #E9E97C",
",X c #F4F47B",
"<X c #FBFB7E",
"1X c #F1F177",
"2X c #B8B982",
"3X c #C7C786",
"4X c #D4D48C",
"5X c #C9C996",
"6X c #D9D996",
"7X c #EDED82",
"8X c #E2E285",
"9X c #FEFE82",
"0X c #FDFD8B",
"qX c #F5F587",
"wX c #E7E799",
"eX c #FFFF9A",
"rX c #F1F198",
"tX c #F3F3A1",
"yX c #FCFCA5",
"uX c #FFFFAA",
"iX c #F5F5AE",
"pX c #FDFDB5",
"aX c #EEEEAB",
"sX c #FFFFC3",
/* pixels */
"                                                                . . . . . .                                                     ",
"                                                                % % % $ % %                                                     ",
"                                                    . . . . . $ x M n n N x $ . . . . .                                         ",
"                                                    ; ; = % % 9 D Y K K U V 7 = - - - &                                         ",
"                                            . . . - ! ] S N Z F Y E R R Y J B C / _ _ W & .                                     ",
"                                            ; ; ; w r.v.5.1.<.<.,.E ,.E Y U L U 3.y.d.6.w &                                     ",
"                                    . . . - ! %.6.r.x.m.j.p.h.u.<.E E ,.,.Y J J L 2.h.s.' W & .                                 ",
"                                    ; ; ; w r.b.N.B.Z.Z.B.N.n.k.4.<.,.E E R J F K :.g.k.d.( 0 #                                 ",
"                                . - ! 6.' 8.M.C.H.H.J.J.H.D.C.m.k.u.,.E E E K J K :.g.h.2.H N 9 # .                             ",
"                                & w 8.v.b.V.A.G.H.D.S.S.H.H.G.A.V.k.4.<.<.<.Y Y >.2.g.p.:.K J M 7 #                             ",
"                            . & W %.j.b.V.Z.K.H.B.v.p.p.v.B.H.K.Z.m.k.p.h.u.,.1.u.g.s.t.-.K K F M 9 # .                         ",
"                            . - ) k.k.b.Z.G.H.S.v.u.,.,.u.v.S.H.G.C.B.N.n.k.4.4.h.j.f.t.-.I I L J b 6 O                         ",
"                            . ; ' v.k.b.D.H.B.k.4.,.,.,.<.4.k.B.D.K.H.D.C.m.k.p.d.f.j.i.;.L I K F B x 7 # .                     ",
"                            & w 8.v.k.n.D.D.v.u.<.E E E E <.p.N.H.L.L.J.G.C.b.k.s.s.j.i.-.K K J D B B x # .                     ",
"                        . = W 6.f.k.d.c.A.M.u.,.Y Y E E Y :.g.N.H.L.L.L.J.H.N.j.s.s.s.t.#.D F Z N N V x # .                     ",
"                        . - / i.p.i.d.c.M.c.2.R Y Y R R Y >.u.v.D.J.L.J.H.S.b.j.d.s.s.0.G V V B N B D b 7 *                     ",
"                        . = C >.:.2.g.n.n.g.:.T R R Y Y R ,.<.u.M.G.L.H.B.b.f.f.k.j.s.9.G V N N B Z V S ! e & .                 ",
"                        . % N U J @.a.h.k.h.2.>.R R U U R E E <.M.A.K.S.k.i.t.t.i.g.s.0.O.S N N V D H O.&.! & .                 ",
"                        . % B K V Z L 2.h.v.h.a.:.U I I I R E 5.M.A.B.v.2.-.-.-.:.3.y.w.%.( S V V G =.0.w._ - .                 ",
"                        . % x N B V F @.a.h.k.g.2.;.;.-.L U T 5.c.m.j.5.-.I I K J L =.9.9.%.+.G G O.9.s.s.` 0 *                 ",
"                            $ 7 N J V D @.2.y.d.g.g.p.a.-.K I :.g.j.2.-.I I I K F D H O.0.q.&.&.*.9.7.7.e.q.) w & .             ",
"                            . $ x b x x V #.*.s.f.j.k.g.2.-.-.3.g.i.:.K I L L F D V V G $.9.7.7.w.w.7.6.9.w.q.! & .             ",
"                                % % # 6 c A &.q.q.q.s.d.g.i.t.t.s.t.-.I I K J Z N N V D H O.9.w.s.w.6.6.6.8.w.) - .             ",
"                                . . . # 7 v m ! ) | 9.s.j.j.s.w.w.t.@.J K J Z B N N B V V H 0.s.w.q.7.%.%.&.*.! - .             ",
"                                        # # * q Q ` 6.q.s.s.q.8.w.0.H P F V B N B B N N V H *.w.7.7.q.9.+.A A v $ .             ",
"                                        . . . O 0 Q ) 6.7.7.' 6.w.0.O.G Z B M N B B N N B H 0.w.7.7.0.$.G B N x # .             ",
"                                                O q W ` ` ` _ ` q.s.0.$.S N B B N N B V V H 0.s.e.9.O.G N N V c $ .             ",
"                                                . O w e r Q ~ ^ 6.q.w.9.( S Z V N N A H H O.9.q.9.$.G B N M b 9 $ .             ",
"                                                    # - q p k X. .` 6.7.&.=.G V V A $.0.0.9.7.%.( C N N V b 6 #                 ",
"                                                    . o 4 s g l.} _ ) ' q.&.+.G H O.0.w.w.q.7.] S M N M b 9 $ .                 ",
"                                                    . + u h R.R.P.} _ ) ` ` ] &.9.9.7.7.7.8.q.*.G V V b 7 #                     ",
"                                                    @ 1 d R._.!.~.R.X.^ { {  .| 8.7.' ] ] &.*.$.C n c 8 # .                     ",
"                                            . . . @ y j I.Q..X@XXX(.|.l.......X. .) ) ) A G J C 7 $ $ $                         ",
"                                            > > @ < d U.'.].#X=X=XXX^.T.P...h j } ^ { _ [ [ A m @ . . .                         ",
"                                        . : g P.f s g E.2X4X&X#X+X X!.Y.P.z d d j ..l.z.z.o.X.p @ .                             ",
"                                        4 a Q./.Y.P.I.'.4XrX7X#XXX/.'.~.W...s d P.T.~.'.'.'.E.f : .                             ",
"                                    . 4 `.3X$X/.R.R./.@X7X0X<X;XOX].{.{.~.I.d g T.[.{.2X2X{.[.h , .                             ",
"                                    . 4 2XtX$XQ.R.Q.+X1X0X0X9X1X#XoX{.2X'.E.g g Y.[.5X5X5X$X$XU., .                             ",
"                                    . , E.$XQ.Y.Q..X;X0XyXyX0X<X-X+X$XoX2X}.U.g g E.6XaX8X*X3X`., .                             ",
"                                    4 a T./.I.I.^.OXqXeXuXuXeXqX-X+X.XoX$X}.E.f u z 5XyXrX8X4X'.u :                             ",
"                                . 4 `.3X$X^.I.I.^.%XrXuXeXeXuXtX%X.X X.XoX'.Y.s 2 p  X0XyXtX8X$XQ.j : .                         ",
"                                . 5 5XiX$XQ.T.Q.(.%XiXpX0X0XyXtX%XoXoXoX.X/.R.s 3 2 |.&XrXtX7X:X&X'.u :                         ",
"                                . 5 5XaX'.T.(.XX@X8XiXpX0X9X0XqX&X%X$X2XoX/.R.s : > l.].&X7X,XqXtX6X'.f > .                     ",
"                                . 5 2X6XE.I. X#X#X>XyXuXeX0X9X1X=X%X3X$X[._.I.u + @ d Q.+X;X0XyXpXiX*XR.> .                     ",
"                                . < ~.[.P.h ^.OX=X;X9XeXuXyX7X=X+X.XoX].^.T.h y + @ u I. X7XyXpXsXiX*XR.> .                     ",
"                                . > g P.d h ^.OX4X7X<X0XyXrX:XOX(.(././.Q.R.g t + X < d ).:XtXuXiXwX$XI., .                     ",
"                                    > 2 u z (.:XrXyX0X9X7X:XOX].^._._.!.Q.R.g t + . o 1 I..X:X8X*X$X(.h , .                     ",
"                                    . o t ..(.8XtXyX0X1X=X@XXX X^.|.T.Y.E.I.f t + . . : d T.(. X(.!.I.i : .                     ",
"                                    . + t h /.@X8X>X;X=X+XOX@X+X X!.U.P.P.h d y + . . @ u h h I._.I.t @                         ",
"                                    . + y h Y./.OX#X@XXX(. X#X#X+X].!.T.Y.P.g y @ . . + < t y u f s : .                         ",
"                                    . @ u h g I.(..X/.^.!./.@X=X#X#X#X@X(.Q.P.p @ . . . + + + @ : :         . . . .             ",
"                                    . : g I.g g Y.Q.Y.U.W.|.(.+X@X-X0X0X=X.X_.f : . . . . . . . . .         . . . .             ",
"                                    . > Y.(.I.j g g g f f h R.Q. X&XyXuXqX-X XP.> . . . . . . . . . . . . . . . . . . .         ",
"                                    > s ].#X).I.g d s i y y u f Y.[.wXtX0X,X#XT.4 X . . . . . . . . . . . . . . . . . .         ",
"                                . < P.(.;X1X#X(.Q.P.f y > + @ < s W.[.&XqX<X-X/.d < + . . . . . . . . . . . . . . . . . . .     ",
"                                . < /.<X9X<X;X@X/.I.i < o . . o < s |.@XqX0X,XOXT.s @ . . . . . . . . . . . . . . . . . . .     ",
"                                . 2 /.<X9X<X;X@X/.h 1 o . . . . X 4 R.%XtXyX0X;X@XR.> . . . . . . . . . . . . . . . . . . .     ",
"                                < d @X0X<X,X;X+X!.f @ . . . . . . > I.%XtXuX0X<X,X/.1 . . . . . . . . . . . . . . . . . . .     ",
"                            . < T.@X,X<X1X;X-X.XU.u @ . . . . . . : h .X7X0X0X9X<X X4 . . . . . . . . . . . . . . . . . . .     ",
"                            1 f OX9X,X=X#XOX.X/.h t @ . . . . . . : h (.1X9X9X<X<X/.2 . . . . . . . . . . . . . . . . . . .     ",
"                        . 1 T.@X;X-X.X[./.Q.I.h d y @ . . .     . : h (.1X0X9X,X+XU.> . . . . . . . . . . . . . . .             ",
"                        . , Y..X/.T.l.f g d u t t < + . . .     . : i I.^..X(./.I.u @ . . . . . . . . . . . . . . .             ",
"                        . + < 1 1 , > : : : @ + + + . .             : > 1 1 1 1 > @ X . . . . .                                 ",
"                        . . . . . . . . . . . . . . . .             . . . . . . . . . . . . . .                                 "
};
