/* XPM */
static char *_71d6b2b78bf4317958bfe783210bc53IjaFGIdycJWCbTsd[] = {
/* columns rows colors chars-per-pixel */
"64 64 220 2 ",
"   c #018C8C",
".  c #009696",
"X  c #009A9A",
"o  c #0A9999",
"O  c #109292",
"+  c #269D9D",
"@  c #369E9E",
"#  c #00A3A3",
"$  c #0FA3A3",
"%  c #00ADAD",
"&  c #1AA6A6",
"*  c #12A9A9",
"=  c #1EA8A8",
"-  c #16A3A3",
";  c #00B3B3",
":  c #0CB3B3",
">  c #00BEBE",
",  c #0DBDBD",
"<  c #12B3B3",
"1  c #16BFBF",
"2  c #1EB9B9",
"3  c #29A4A4",
"4  c #34A4A4",
"5  c #3AA4A4",
"6  c #3CABAB",
"7  c #25B8B8",
"8  c #29BCBC",
"9  c #25B7B7",
"0  c #33B3B3",
"q  c #35BBBB",
"w  c #3BB7B7",
"e  c #4A9F9F",
"r  c #47A8A8",
"t  c #46BFBF",
"y  c #4ABFBF",
"u  c #5CBEBE",
"i  c #51B8B8",
"p  c #5CA6A6",
"a  c #64AAAA",
"s  c #62BDBD",
"d  c #68B4B4",
"f  c #75B7B7",
"g  c #00C2C2",
"h  c #0CC2C2",
"j  c #00CBCB",
"k  c #0BCACA",
"l  c #14C4C4",
"z  c #1AC5C5",
"x  c #14CCCC",
"c  c #1BCECE",
"v  c #00D3D3",
"b  c #0ED3D3",
"n  c #00DBDB",
"m  c #0ADADA",
"M  c #14D1D1",
"N  c #1DD2D2",
"B  c #13DDDD",
"V  c #1DDCDC",
"C  c #24C4C4",
"Z  c #29C4C4",
"A  c #24CDCD",
"S  c #2DCCCC",
"D  c #35C6C6",
"F  c #3BC4C4",
"G  c #34CACA",
"H  c #3CCBCB",
"J  c #24D5D5",
"K  c #2BD1D1",
"L  c #25DADA",
"P  c #2BDCDC",
"I  c #33D3D3",
"U  c #3DD3D3",
"Y  c #34DCDC",
"T  c #3BDBDB",
"R  c #00E5E5",
"E  c #00EBEB",
"W  c #1CE3E3",
"Q  c #1DEBEB",
"!  c #14E7E7",
"~  c #04F0F0",
"^  c #1DF6F6",
"/  c #1CFCFC",
"(  c #24E1E1",
")  c #25ECEC",
"_  c #35E0E0",
"`  c #35EFEF",
"'  c #3BEBEB",
"]  c #3BE2E2",
"[  c #39F7F7",
"{  c #2DF9F9",
"}  c #4CC4C4",
"|  c #45CDCD",
" . c #52C4C4",
".. c #54CDCD",
"X. c #5CCFCF",
"o. c #59C1C1",
"O. c #43D5D5",
"+. c #4AD4D4",
"@. c #45DBDB",
"#. c #4ADBDB",
"$. c #54D4D4",
"%. c #5DD2D2",
"&. c #55D9D9",
"*. c #5CDBDB",
"=. c #65CCCC",
"-. c #6ACECE",
";. c #63C2C2",
":. c #7AC8C8",
">. c #62D4D4",
",. c #6AD2D2",
"<. c #6BDCDC",
"1. c #7FD3D3",
"2. c #73DADA",
"3. c #7EDCDC",
"4. c #45E4E4",
"5. c #4BE5E5",
"6. c #45EBEB",
"7. c #5DE3E3",
"8. c #5DEDED",
"9. c #56EEEE",
"0. c #5EF2F2",
"q. c #5EFCFC",
"w. c #4BFAFA",
"e. c #62E2E2",
"r. c #6CE5E5",
"t. c #64ECEC",
"y. c #6CE9E9",
"u. c #73E4E4",
"i. c #7DE2E2",
"p. c #74EBEB",
"a. c #7CEDED",
"s. c #64F3F3",
"d. c #69F4F4",
"f. c #62FAFA",
"g. c #75F1F1",
"h. c #7AF2F2",
"j. c #75FCFC",
"k. c #7DFEFE",
"l. c #85B9B9",
"z. c #A5BBBB",
"x. c #81C6C6",
"c. c #81CBCB",
"v. c #8ACCCC",
"b. c #9CC5C5",
"n. c #96C6C6",
"m. c #82D2D2",
"M. c #8DD4D4",
"N. c #81DADA",
"B. c #9BDEDE",
"V. c #97D6D6",
"C. c #ACCBCB",
"Z. c #A9C9C9",
"A. c #B5CCCC",
"S. c #ACD6D6",
"D. c #A7DFDF",
"F. c #ACDDDD",
"G. c #A6D5D5",
"H. c #B3D5D5",
"J. c #B3DCDC",
"K. c #BDDBDB",
"L. c #BFD2D2",
"P. c #84EDED",
"I. c #8CEEEE",
"U. c #8FE5E5",
"Y. c #94E4E4",
"T. c #9BE3E3",
"R. c #93ECEC",
"E. c #9BEDED",
"W. c #85F4F4",
"Q. c #8CF4F4",
"!. c #82FEFE",
"~. c #8BFDFD",
"^. c #94F4F4",
"/. c #9DF2F2",
"(. c #93FAFA",
"). c #9CFBFB",
"_. c #A5E4E4",
"`. c #ABE2E2",
"'. c #ABEDED",
"]. c #A0EFEF",
"[. c #B4E4E4",
"{. c #BCE4E4",
"}. c #B4EBEB",
"|. c #BCECEC",
" X c #A4F4F4",
".X c #ABF4F4",
"XX c #A2FEFE",
"oX c #ABFBFB",
"OX c #B2F5F5",
"+X c #BCF3F3",
"@X c #B2FBFB",
"#X c #BAFEFE",
"$X c #C4D5D5",
"%X c #C5DEDE",
"&X c #D1DEDE",
"*X c #DADEDE",
"=X c #C5E4E4",
"-X c #CCE6E6",
";X c #C2ECEC",
":X c #CDEAEA",
">X c #D3E6E6",
",X c #DBE4E4",
"<X c #D3ECEC",
"1X c #DAEDED",
"2X c #C4F3F3",
"3X c #CBF3F3",
"4X c #C5FCFC",
"5X c #CCFDFD",
"6X c #D3F3F3",
"7X c #D9F3F3",
"8X c #D3FEFE",
"9X c #DEFBFB",
"0X c #E3E5E5",
"qX c #E9EAEA",
"wX c #F2EDED",
"eX c #E2F5F5",
"rX c #E3FBFB",
"tX c #EAFEFE",
"yX c #EDF3F3",
"uX c #F6F7F7",
/* pixels */
"g > g g > > g > g > g D S.:X).t.c g g > > H F.H.H g g > g g g > g > g g > > g > g > g > > g g D F.:X).8.c > g > g g g g g > g > ",
"> > ; ; > g > g g > > H J.7X).0.c > ; ; > D H.S.D g > g g g g > g g g g g g > g > g > g g g g D H.7X X0.N > > g > > ; ; > > > g ",
"g ; X X ; g g g > > > H |.rXXX0.c % . X ; H H.H.D g > g v v g g > j v v g > g > > > g g v v g H |.rXXX0.c > > > > ; X X ; > g > ",
"g ; X X g j g g g j g H ;XtX@Xp.J > X X ; D T.`.%.D H U T L k > > g v v j > > h Z H | U T Y U <.:XrXXXs.K l g j g ; X X ; g g g ",
"g > ; g R R j g v v g H J.qX,XY.P j > ; > A p./.`.J.|.;X[.N.C g g g j j g > > C 1.J.;X|.[.`.|.<XqX:X).g...D b v g > ; ; > g g g ",
"> > > v R R j j v v g Z N.=X0X[.] v g g > N 0.(.+X1XrXtX1XD.%.D D Z , h S | H >.`.7XtX9X<X<XrXrXqX;X(.g.-.} K M j > ; ; % ; > g ",
"> > g g j j g g j g > k L y.3X;XO.g g g > c s.~.).).XXXX).].D.S.H.1.C C Y.3X2X+X X).).XX).).).@X>X:X).p.-.u } D l ; X     X ; g ",
"N x h > > > ; ; > g g g g O.2X2XH > > > > c 5.t.s.8.t.s.j.~.|.>X>XD.X.%.+XtXtX8X).k.k.!.k.k.k.(.}.;X XI.2.=.;.} Z : X     X ; > ",
"s.5.x > > ; X X ; g g ; X r ;X2XU > > g > h x J N c c Y s.!.(.).)./.D.`.oXXXXX).~.k.k.!.k.!.k.!.(..X|.|.Q.u.=.u y q : % % ; > g ",
" Xh.T c N 1 X . ; > g ; X 6 =X7X,.C h > > g > > > > g J h.).!.k.k.(.;X[.3.7.8.t.g.h.h.h.h.a.h.h.g.I.[.;X.XR.m.x.:.:...U H H H D ",
":X}.a.0.s.@.1 ; > g g > ; F ;XuX=Xm.Z g > g > > > g v Y oX8X).k.k.!.).i.w & z K %.-.-.-.-.-.-.-.=.2.Q. X;X:X%X$X$X=X;X2X2X|.J.S.",
":X;X@XXX).P.$.G A l ; : C >.+XrX1X_.X.G D D D H H U ] p.8XtXXXk.!.k.d.@.* X > l q y t t } t t t t ..r.P._.J.=X:X:X<XrXtXtXrX<X:X",
"^.oX8XrX1X=XJ.B.p.O.* + :.`. XXX)./.D.S.S.F.S.J.;X2X2X8XuXtX).k.!.d.Y x h j v v l l 1 1 z 1 1 1 l Z ..>.T 5.W.).).).).XXXXXX).).",
"0.W.4XrX<X:X>X;XoXi.0 r A.>X).k.k.(.|.>X>X>X<X<XrXtXtXtXtX4X(.k.d.4.1 > v R n v g > > g > > > > ; < w D b W 6.d.g.h.h.a.h.p.h.g.",
"c T h.XX).).)..X;X[.u.3.%X:X).k.k.~.(.).).).).).XXoXXXXXXX).~.d.Y 1 X # j R v g g g g > > g g ; X X < l g j M G $.-.-.,.-.-.-.,.",
"> x 4.s.q.q.q.h.}.;X.X.X;X}.a.0.0.s.t.s.0.0.s.8.7.7.8.s.j.!.!.t.D * . X g v g > ; ; > g j g g ; . X ; > > > ; < q t t t t t t t ",
"> h x V ^ / Q ' h.oX;X;X.Xh.T c N c c A N N N z = = z Y s.!.!.p.d r * ; g g g ; X X ; j v v g > ; ; > g g ; . X < 1 z 1 1 1 1 1 ",
"> g > j R E n B 6.p.D.B.p.5.l > ; ; > g > > > ; . . ; N 0.!.k.P.n.f H x h > g ; # # ; g v v j j j g g g g ; # X ; g > > ; ; > h ",
"g > > g j j j j x A G G A x h ; . X ; > > g > > ; > j W f.k.k.^.J.H.a.4.x > > j n n j g g j v n n v g g > g j g g g g ; X X ; g ",
"> g g g g g > > g g g g g > g ; X X > g g > > > g g v ( g.).).'.>X:X).f.Y x k v E E j > > j n R n v g > ; > v v g g g ; X . ; g ",
"> g > > > g g > g g v v g > > > ; > j v g > > g g g g A B.>X:X>X0X-X(.j.s.6.B v v j g g g g n n j g g ; X X > j g g > > ; ; > g ",
"g > g > ; ; g g g g v v j g j j g j v v j g j g j h Z X.D.:X:X-X:X;X.XXXXXg.( v g > > > > g v v j j g ; . . # ; > > g > > g > > ",
"> g g ; X X j v j g g g g j R E j g g j g g v n n L N.F.E.^.).).).oX8XrX<XT.I g g > > g g g g j n v g > ; # . X ; g g g g g > > ",
"> g g ; X # g v g > g > g j R E v g g g g j v m P 7.`.2X(.k.s.8.0.h.2XeX>XF. .8 D D H Z h > g g g k S H U } @ + , g g h z z z z ",
"> g > > ; ; g g g > > > > g j v n v g g v v j A N.`. X(.~.d.Y c x U i.R.Y.M.n.b.G.S.H.1.Z > > ; # 3 x.[.;X=XH.c.J v g l O.%.&.$.",
"j g g h Z H D H H U H Z h g > g v v j g v v M $.=X<X).j.d.5.M j j M U &.&.=.l.z.$X>X>XF.X.D Z 0 @ p Z.<XrXrX7X`.7.Y U O.5.8.y.p.",
"n v g Z m.H.S.F.|.=X[.m.C > > g g g g g j M 4.Q.7XrXXXs.Y x v n E R M z z 2 + r :.Y.U.B.F.G.b.b.Z.Z.V.U.).XX)./._.[.;X^.w.{ f.W.",
"6.T I X.`.<X>X7X9XtXqXK.=.C h > g > g > g N 0.oXtXtXXX0.N g v R E E j g g %   O F &.+.<.B.F.b.b.F.T.U.u.j.k.k.(.=X0XuX3X0.w.!.XX",
"4X|.J.`. X).).).).@X<X*X$Xm.C > g > g g v W q.XXtXtXXX0.c g g j v j g > g %     < z z J Y Y G D I @.e.p.k.k.k.Q.`.=X0X,X|.}.8XtX",
"eX1X&XS.p.8.0.d.~.oX|.:X>X`.%.Z h > > g v W f.).5X5XoXp.A > > > > g g j g ; X X > j g g v v g g v B O.*.t.d.k.!.R.`.>X*X:X>X9XtX",
"v.v.v.-.H c x #.OX8XoX(.)./.`.m.Z > > g g L s.~.).oX;XB.G > > g > g v v g > ; > j v g > g j g g j h x z z Y d.!.!. X:X>X.X).).).",
"t t t D h j C %.|.5X).k.k.).1XJ.H > g > > l O.t.j.(.:XS.D > ; ; g j v v j > g j v v j > ; ; > g j j g g > c 0.~.(.OX>X:X^.k.j.k.",
"1 1 l h v L 1.`.oX(.!.k.k.XXrX|.H g > g g ; o 0 t.).:XS.D ; X # j v j g g g g g g j g ; X . ; j R E j > > c 8.).5XrX0X-X(.k.p.u.",
"g g > g v T [.1X).k.!.k.k.).5X+X>.D H H H q 5 i i.oX,X=X>.9 o X j v j > ; ; > g > > g ; X X ; v E E j h x T p.oX8XrX<X}.^.d.e.$.",
"> g > g g O.;XrX).k.k.!.!.!.(.oX`.J.|.;XJ.H.K.=X=X,XyXyX%Xc.7 ; g g g ; X X ; > g g > > ; ; > j R n j l 5.a.}.;XoX).).^.a.7.S z ",
"> g j g g H |.9XXXk.!.k.h.h.g.U.|.7XrXrX<X6XrXrXqXqXrX9X<X`.%.D H G h ; X X g j g > g > ; ; > g v n M Y s.).<X<X^.k.k.k.i.&.z > ",
"> j v v g H J.7X).k.k.h.2.=.=.2.I.XXXXXX).).).@X:X>XOX).)./.D.[.;XY.S > ; > R R j g g ; X X ; g g M 4.f.j.XXrXeX).k.k.k.p.$.z g ",
"g g n v g D H.:X).k.h.u.=.u s X.7.0.t.s.j.!.~. X|.}.(.k.k.(.|.<XtX+X<.A k v R R j > > ; . X ; > ; Z a.XX).oX5X8XoX(.!.g.e.U l g ",
"g j n n g H S.>X).h.<.=.;.s s  .S c c Y s.(.|.;X X(.!.k.!.~.(.). XoX+XR.P v v j g > > > ; ; > % . 4 `.tX<X|.oX.X;X|.(.s.I l h > ",
"> g v v v A c.S. X^.,.u s u  .D k j g A g.oX;X}.I.g.a.g.s.s.k.k.k.XXtX3X9.W N c c N c A G H | F 5 d ;XrX7X|.~.(.-X:X).8.N > > g ",
"g g g v E m 3 d {.2Xm.;.s y 8 k R R j D .X9XoXQ.2.-.-...S Y d.!.k.).<X>XW.0.0.0.s.8.0.p.T.J.;X;X=X;XoXXX).(.!.(.-X:X).8.c > > g ",
"> > g j R n % 6 %X1Xv.o. .D l j E E B $.;XeX^.r...t } G h x +.e.t.h.}.;X.X).).).).).). X;X1XrXtXtX4Xi.7.8.s.j.).-X-X).0.c > > > ",
"g > > g j j g I J.&Xv.} L b g j R ! 6.Q.:X:XM...Z x ! ! j : - = z T h..X;X>X>X>X>X>X>X;X X).XXXXoXP.w & 1 Y s.).-X-X).8.N > g > ",
"> g g > > k P t.'.S.-.D M v g j v ) f.).:XL.f 0 , j R R j ; X . % M 6.g./.`.F.G.C.C.S.B.p.0.f.f.0.+.- . % N 0.).6X<X).s.I h h > ",
"> g g > > A R.4XoXp.H h g g g g n Q q.).>XA.e O ; g j j g > ; ; > j W ) { ' U q 4 5 q G A N W W N l , % > c 8.).9XrXXXg.e.H l g ",
"g > > h S <.2X8X).0.N > g > ; > j ( h.@X2XV.3 . ; g g g g g g g > g v n E R j ; . . ; > g j v v j j g g > A g.#X9X8X).k.p.*.S z ",
"> > > S Y.+XoX).~.s.c > > ; X X > U .X8XoXp.8 ; > > g g v v j g g g g j j j g > ; ; > > > g g j v v g g > H .XrX;X}.~.h.u.<.*.&.",
"j g j U ;XtXXXj.s.5.N j g > X X ; H ;XrXXX0.N g g > > j v v g > > g > g g j g g g j g > ; ; > g v v g h x &.;XyX|.T.Q.j.a.u.u.r.",
"n n n Y [.1XXXs.Y x v n n j > % > D J.7X).0.W v g g > g g g g g g > > j v v j g v v g ; X . ; g j g g x 4.P.:X,X{.T.Q.!.k.a.u.<.",
"T _ Y 7.`.+X(.s.c g v n R n j g > H S.>X).f.W v j g g g g g j g g g > g v v g g v v j ; . X ; g g > > c s.).<X,X[.^.!.k.k.!.R.R.",
"`.`.`.`.^.(.~.s.N > g v n n g g > D S.:X).0.N j v v g g > g v v g > > g g j > g j j g > ; ; > > > > > c 0.XXrX9X X!.k.k.k.(.4XeX",
">X:X>X;X XW.r.O.z g > g v v g > g D S.>X).s.V v n v g > g h L Y J A G Z h > > > ; ; > > g g g g h j x T h.@X8X8XoX(.).).).oX8XtX",
").).)..X;XV.r $ ; g g g g g g g > D S.:X).q.^ R v g g g > C N.T.p.p.B.1.C > g ; . X ; > g g g g v B 6.W.4X8X@XoX|.<X9X9X<X;XoX).",
"s.8.0.W.>X$Xa + : g > g j g g g > H J.7X Xq.^ R j > ; : C >.K.>X.XOX,XK.=.D D 8 o X > j g g > j B ` f.XXrX9X).~.}.<XrXrX<X}.~.k.",
"c N x &.3XwX$Xx.C > > g v v g > > H |.rXXX0.V j g ; . + x.$X*X0X>X>X0X*XK.F.H.c.8 ; j v n v g x 6.f.k.).<X<X).!.(.).XX).).(.!.!.",
"> > > S R.3X<X`.X.S A N v v j g j T |.tXXX0.c > g ; . 4 C.0X<X-X=X=X;X-X>X<X<X`.%.I Y ] ' 4.U *.Q.XX). X;X}.(.k.k.k.g.p.g.a.h.h.",
"> > > k P 9.~. XD.B.p.6.M g > j R ` }.<XXX0.N > > > ; q S.,X.X^.Y.Y.^.).).).). X`.S.[.}.2X4X2X6XrXrX<X|. X~.!.k.k.h.<.-.=.-.,.-.",
"g g > g v B 6.P.:X>X).d.Y x g k ) s.;X<X).s.Y l g h S >.`.|.Q.g.u.r.s.0.s.0.0.p.B.H.S.J.;X;X2X3X9XrXqX:X).k.h.a.h.u.=.u } } } t ",
"> > g g g j x +.K.>X).j.s.4.l A 3.;XyX9X).j.s.4.k S Y.+XoXQ.a.u.u.*.I N W W V A D H D H | | H &.W.#XtX9X).g.<.-.,.-.;. .K M l 1 ",
"> g > g > > g C N.'. X).XXW.T +.J.0X:X+XoX(.).P.+.>.+X8X(.g.p.<.*.U l j v v g > j j g g > g g V 0.).9X9XXXg.-.u y t y F M v g > ",
"g > g > g > > k ) q.'.1XtX4Xh.a.=XK.>.%.D.:X:X=XJ.`. X).a.u.u.%.G x v v j g g j R R j > > g v W q.).<X6X).g.-.y 8 1 1 l j g g g ",
"> g > g g > > j R ) 3.J.|.+X X.X;XT.O.U B.>X0X*X>X|.Q.j.u.<.*.O.l g v v g g > j E R j > > g v W 0.).-X-X).p.$.q h > g > > > g g ",
"g > g > g > g g j k S D H %.`.;X XQ.d.t.Q..X>X>X.X(.!.k.p.*.S l g g g j g g > g j j g > g g g V s.^.-X-X^.d.S l > > > g > g > g ",
"> g > g > g > g > > > > g G S.>X).k.!.!.k.(.-X:X(.k.!.h.p.&.z > g g > > > > g g > > g g > > > c 0.).:X:X).0.N > > g g > g > g > "
};
