/* XPM */
static char *_e83a83f29784ebdef8f58ffb45dfd36IY9SYa04TaHXRh8u[] = {
/* columns rows colors chars-per-pixel */
"64 64 220 2 ",
"   c None",
".  c #000000",
"X  c #0E0007",
"o  c #0F0008",
"O  c #14000A",
"+  c #1C000E",
"@  c #1F0010",
"#  c #230012",
"$  c #2A0015",
"%  c #2F0018",
"&  c #35001B",
"*  c #3A001D",
"=  c #7A0019",
"-  c #470024",
";  c #4A0025",
":  c #4F0028",
">  c #520029",
",  c #5B002E",
"<  c #5E0032",
"1  c #6E0025",
"2  c #63002D",
"3  c #710026",
"4  c #7B0025",
"5  c #76002B",
"6  c #640032",
"7  c #6C0036",
"8  c #6E0039",
"9  c #720036",
"0  c #7B0031",
"q  c #73003A",
"w  c #7B003E",
"e  c #7F0040",
"r  c #760040",
"t  c #990006",
"y  c #9C000D",
"u  c #960007",
"i  c #8C001A",
"p  c #960014",
"a  c #96001E",
"s  c #98001D",
"d  c #AC0000",
"f  c #A4000B",
"g  c #A9000F",
"h  c #A70000",
"j  c #B30101",
"k  c #BD0000",
"l  c #B4020D",
"z  c #BD0008",
"x  c #A40013",
"c  c #AD0013",
"v  c #A2001A",
"b  c #AA001C",
"n  c #BA0113",
"m  c #BC001B",
"M  c #B20017",
"N  c #A11A1A",
"B  c #BD2716",
"V  c #830124",
"C  c #82002C",
"Z  c #850C2D",
"A  c #850D22",
"S  c #9D022F",
"D  c #9B042A",
"F  c #860034",
"G  c #8C0036",
"H  c #82003C",
"J  c #8B013D",
"K  c #950033",
"L  c #93003B",
"P  c #9C003B",
"I  c #9B0D37",
"U  c #A50025",
"Y  c #AD0029",
"T  c #A90026",
"R  c #B50125",
"E  c #B3002E",
"W  c #BC092C",
"Q  c #A6003C",
"!  c #AA013D",
"~  c #A70433",
"^  c #B40037",
"/  c #B3013E",
"(  c #B7093E",
")  c #A31131",
"_  c #B11138",
"`  c #C30000",
"'  c #CD0000",
"]  c #C7030B",
"[  c #CC000C",
"{  c #C90D00",
"}  c #D20000",
"|  c #DC0001",
" . c #DA0C03",
".. c #DC000A",
"X. c #D9070A",
"o. c #C40014",
"O. c #CA0012",
"+. c #C2001A",
"@. c #C50D10",
"#. c #D40016",
"$. c #DC0012",
"%. c #D90D12",
"&. c #E40200",
"*. c #EC0300",
"=. c #E50C00",
"-. c #EA0C00",
";. c #E5090C",
":. c #FE0D00",
">. c #F50000",
",. c #EA1000",
"<. c #EC1904",
"1. c #E71A01",
"2. c #E40717",
"3. c #F30019",
"4. c #F30015",
"5. c #DD2A08",
"6. c #DF2711",
"7. c #C22718",
"8. c #E5260D",
"9. c #EB280A",
"0. c #F42700",
"q. c #FE2700",
"w. c #FB3400",
"e. c #EA2712",
"r. c #EE2B10",
"t. c #F12A11",
"y. c #FA2917",
"u. c #F43415",
"i. c #FB341A",
"p. c #E7340F",
"a. c #CC0026",
"s. c #C8002E",
"d. c #DF0026",
"f. c #D1002A",
"g. c #C80C36",
"h. c #C8063B",
"j. c #D40034",
"k. c #DA1837",
"l. c #F3002D",
"z. c #E00030",
"x. c #E70028",
"c. c #DA2723",
"v. c #D62622",
"b. c #EA262B",
"n. c #E42628",
"m. c #F72633",
"M. c #840043",
"N. c #8B0045",
"B. c #8E0049",
"V. c #970245",
"C. c #9B0144",
"Z. c #94004B",
"A. c #9A004D",
"S. c #9E0051",
"D. c #A70044",
"F. c #AE0043",
"G. c #A3014D",
"H. c #AC0049",
"J. c #AE0D41",
"K. c #B30044",
"L. c #BB0045",
"P. c #B50D43",
"I. c #BA0C46",
"U. c #B5004B",
"Y. c #BD004C",
"T. c #BF0C49",
"R. c #A40053",
"E. c #AB0056",
"W. c #AD0059",
"Q. c #B60253",
"!. c #BE0153",
"~. c #B4005B",
"^. c #BB005D",
"/. c #BD0061",
"(. c #B70061",
"). c #C30046",
"_. c #C40D43",
"`. c #C4004C",
"'. c #CC004D",
"]. c #CB0C4F",
"[. c #C50C48",
"{. c #D3014D",
"}. c #DA0447",
"|. c #D4114A",
" X c #C40053",
".X c #CA0053",
"XX c #C3015B",
"oX c #CB0955",
"OX c #D30055",
"+X c #DB0155",
"@X c #D30C53",
"#X c #D6005A",
"$X c #DC005C",
"%X c #D90C57",
"&X c #E20051",
"*X c #E1005A",
"=X c #E50F57",
"-X c #EB1056",
";X c #E41153",
":X c #FB115E",
">X c #FA1352",
",X c #C40062",
"<X c #CB0066",
"1X c #CD0069",
"2X c #C50068",
"3X c #D20164",
"4X c #D3006A",
"5X c #DA006D",
"6X c #DD0060",
"7X c #DD0071",
"8X c #D70071",
"9X c #E4026E",
"0X c #EE0066",
"qX c #F90C68",
"wX c #E10071",
"eX c #E30073",
"rX c #EB0175",
"tX c #EC0079",
"yX c #F3007C",
"uX c #F8007D",
/* pixels */
"                                                                                                                                ",
"                                                                                                                                ",
"                                                                                                                                ",
"                                                                                                                                ",
"                                                                                                                                ",
"                                                                                                                                ",
"                                                                                                                                ",
"                                                                                                                                ",
"                                                                                                                                ",
"                                                                                                                                ",
"                                                                                                                                ",
"                                                                                                                                ",
"                                                    /.<X5X5X2X^.R.R.~.,X                                                        ",
"                                                    ,X<X5X9X@X_.( U.XX<X                                                        ",
"                                            9X5X<X,X4X7XyXqXm.e.%.f.#X7X7X4X<X^.                                                ",
"                                            5X4X<X1X9XrXqX>Xy.0.-.$.}.$X9XeX<X<X                                                ",
"                                        eX5X<X<X4X7XyXqXm.y.1.-.&.| #.j.0XyXeX4X,X^.                                            ",
"                                        5X4X<X<XeXtXyX:Xi.w.,.| | } k +.*XyXeX5X3X<X                                            ",
"                                    eX5X<X<X4X9XyXyXtX-Xi.w.,.| ' k d c `.4X5XeX5X5X<X^.                                        ",
"                                    eX5X,X,X4XeXuXuXeX=Xb.r. .' k j g Y !.<X4X5X5X4X<X,X                                        ",
"                                    eX5X,X,X,X4XyXyX5XXX].g.l d h g ^ !.3X5X<X,X2X<X4X<X~.A.                                    ",
"                                    5X4X4X<X^.<XrXrX<X/.(.Q.E b v E  X<X4X5X4X2X^.,X5X4X~.E.                                    ",
"                                eX4X<X4XrXeX~.~.5X9X<X~.E.~. X.XY.!.<X4X<X4XrX9X~.~.5X5X2X~.                                    ",
"                                eX5X2X,X5X4X~.~.2X<X/.Q.P._.%X$X<X4XeX7X<X,X5X5X~.W.^.,X~.W.                                    ",
"                                9X5X<X(.R.S.W.~.~.E.R.P.v.e.2.z.$XeXtXtX1X~.R.R.~.W.A.Z.B.B.                                    ",
"                                5X3X@XI.~ Q XX,XW.R.S.( 6.0. .O.OX9XqX:XOXU.V.S.^.XX! S S K                                     ",
"                                2X@Xn.r.;.d.$X4X,XW.R.! @.{ j M `.@Xm.y.2.f.U.(.1X$Xd...[ m ! R.                                ",
"                                ].k.r.q.:.4.+X1X<X/.E.D.R m M R h.k.r.0.,...h. X4X&X3.>.&.O.! Z.                                ",
"                            7X=Xb.r.1.-.*.$.L.^.1X<XW.G.U.`.oX|.n.r.<.=.&.| o.s. X'.2.&.} l K M.                                ",
"                            7X-Xi.w.,.| | o.! E.<X4X^.~.<X4X8X=Xi.w.,.| | ' k n .XOXf.O.o.R P B.                                ",
"                            eX=Xi.w.-.| ' n ! E.(.<X1X5XrXeX4X|.u.w.,.| ' k d m $XeXY.K.L.Y.Q.E.B.w                             ",
"                            4X%Xb.e. .' ` n K.~.,X<X4XwXyXtX1X].n.e. .' k j g ^ #X8X~.W.(./.~.E.A.M.                            ",
"                        9X4X^.Q.].g.l j k +..X4X5X4X1X1XeX7X<XXX].g.n d h c ^ U.R.R.W.(./.(.S.Z.W.Z.& . . . . . . . . .         ",
"                        wX4XW.R.E.D.D x n f.#X5X4X<X<X#X$X&X{.`.,XU.T y x T Q.W.Z.A.T.|.|.T.V.B.R.M.$ . . . . . . . . .         ",
"                        wX4XW.Z.Z.N.F P `.#X3XXX~.^.1X*Xl.4.2.f. X~.D.D.K.U.E.E.W.T.n.u.u.c.J.Z.M., + . . . . . . . . . . .     ",
"                        5X4X,XE.N.w M.R.2X5X1X^.E.~.<X*Xx.;.| #.).W.R.R.,X,XR.G.[.k.t.w.w.8.W L 7 ; % O . . . . . . . . . .     ",
"                    wX5X1X3XeX4XZ.N.G.~.,X<X5X4X/./.2XXXY.W ] o.K.S.N.R.7X7XS.I v.t.<.,.,. .] v 3 < 6 - O . . . . . . . . .     ",
"                    9X5X,X<X5X3XR.A.^.2X^.^.4X3X,X~.W.R.B.L b b Q Z.B.R.1X<XS.) p.w.,.| | } ` f 4 q M.7 # . . . . . . . . .     ",
"                    wX5X1X~.R.R.W.^.4X<X~.W.,X,X~.A.M.8 8 q G G J B.E.W.R.S.Z._ p.w.,.| } ` j y C M.Z.q # . . . . . . . . .     ",
"                    4X<X^.W.A.V.W.,X<X<X^.^.~.W.Z.J Z A V C 0 q q M.R.R.B.B.S.I.c.8. .' k d t i J Z.Z.q & X . . . . . . . .     ",
"                eX4X~.E.R.E.W.W.W.E.W.XX5X5X^.Z.q Z B 5. .m 0 6 6 q M.Z.Z.R.~.Q.I.W c d d t = 0 G.R.M.6 > & O . . . . . . .     ",
"                5X3X[.J.G.R.E.R.A.V.A.~.rXeXW.V.Z N 8.q.:...s 1 6 6 q M.N.A.E.W.R.C.D y x s 0 M.^./.N.q 6 ; O . . . . . . .     ",
"            eX5X1X@Xc.6.P.Z.M.w M.N.Z.~.5X4XA.I 7.5.<.-.*.| z p 3 6 w w q q N.Z.S.V.F K F.H.C.E.5XeX^.V.q - O . . . . .         ",
"            <X2X(.].e.9.W L 7 6 M.Z.E.~.4XXXZ.I 8.q.-.| | } ` f 5 6 q q 6 6 8 e Z.A.A.A.~.~.W.~.5X5X,XW.M.6 & O . . . .         ",
"        ,X~.G.A.R.( %.=.] v 3 8 A.^.<X3X<X~.B.~ ;.:.*.| ' ` j y C q 7 6 < < 6 7 w A.^.,X~.W.~.~.R.R.R.W.E.V.q ; O . . .         ",
"        ^.W.Z.N.Z.D.a.#.O.b 5 r W.4X5X4X,XR.M.K +...] z k d t i L N.C 4 4 3 2 6 q N.~.,X~.E.~.W.Z.M.Z.E.,X,XZ.6 & O X .         ",
"        W.E.S.Z.N.C.Y.`.`.K.J B.,X4X<X,X~.S.N.H C V 4 i y u = 0 G.U.m z g p 3 < 6 q N.R.W.~.~.R.A.Z.J S.5X5XN.6 6 ; O .         ",
"        q q w w w N.E.~.(.~.V.R.<X4X,X~.A.Z.M.q 7 < < 3 U T F M.E.`.#.| ' f 4 6 , 6 w Z.~.~.G.A.R.A.M.Z.<X^.M.< 6 > + .         ",
"        $ # # * 9 N.B.A.R.E.W.~.,XXX~.S.Z.M.M.w q 8 < H .X6X~.E.R./ o.` j y C q 6 7 M.G.~.~.Z.N.A.A.N.M.N.w 7 : % +             ",
"        . . . O - 6 6 6 q N.W.^.~.W.R.V.M.w w w Z.N.q M.1XeX4X~.R.P v f u a C.Z.w w A.~.^.E.N.w w q 6 2 , , > & X .             ",
"            . . O # + + @ - Z.R.A.Z.A.Z.N.w 7 M.~.~.N.M.E./.,XQ.Z.J 5 3 1 G XX4XR.A.W.~.~.V.w > & # @ & > > $ O . .             ",
"            . . . . . . . + , w q M.Z.Z.M.7 6 w ^.,XZ.e N.R.~.~.M.q 8 7 6 N.4X5X~.R.~.~.A.M.7 - O . . X & & O . . .             ",
"                . . . . . . + * , q M.H 8 6 2 w R.R.w 7 w A.~.W.e 8 M.B.M.N.W.~.Z.Z.R.A.w 7 7 ; O . . . O O . .                 ",
"                . . . . . . . X & > q w 7 , ; > 7 9 6 6 q M.R.A.q 8 M.N.9 6 q 7 6 7 Z.N.7 , : & O . . . . . . .                 ",
"                        . . . . X & 7 w 7 : $ O # & > 6 6 q M.N.7 6 q , & + # # + * 9 M.7 : $ O . . . .                         ",
"                        . . . . . O - < > & O . . X & > , 7 q 7 > - ; & o . . . . O - , > & X . . . . .                         ",
"                                . . + + + O . . . . o $ > 6 7 > % O O O . . . . . . + + + O . . . .                             ",
"                                . . . . . . . . . . . O & ; ; & O . . . . . . . . . . . . . . . . .                             ",
"                                                . . . . O O O O . . . .                                                         ",
"                                                . . . . . . . . . . . .                                                         ",
"                                                                                                                                ",
"                                                                                                                                ",
"                                                                                                                                ",
"                                                                                                                                "
};
