/* XPM */
static char *_d9714d0b78b4675d09dcb5c3c707b3fnh6a8Fmlj2v8g5VV[] = {
/* columns rows colors chars-per-pixel */
"64 64 185 2 ",
"   c #020202",
".  c #0C0606",
"X  c #0D0807",
"o  c #0B0B0B",
"O  c #130D0C",
"+  c #14100F",
"@  c #131313",
"#  c #1B1514",
"$  c #1E1A17",
"%  c #1C1B1B",
"&  c #241513",
"*  c #291614",
"=  c #261817",
"-  c #2A1917",
";  c #231C1B",
":  c #2D1B19",
">  c #331D1A",
",  c #391F1C",
"<  c #26211A",
"1  c #2C211E",
"2  c #2F291F",
"3  c #34231B",
"4  c #3B221D",
"5  c #342B1C",
"6  c #3C2A1D",
"7  c #3D311F",
"8  c #1E1F20",
"9  c #1F2020",
"0  c #232323",
"q  c #2E2120",
"w  c #2D2921",
"e  c #272828",
"r  c #2C2C2C",
"t  c #322321",
"y  c #3C2421",
"u  c #342922",
"i  c #3A2A26",
"p  c #3C2C2A",
"a  c #3E3428",
"s  c #2F2F30",
"d  c #2F3030",
"f  c #333333",
"g  c #343434",
"h  c #373737",
"j  c #3A3636",
"k  c #373838",
"l  c #393939",
"z  c #3A3B3B",
"x  c #3C3C3C",
"c  c gray24",
"v  c #3E3E3E",
"b  c #3F3F3F",
"n  c #42241F",
"m  c #40291F",
"M  c #40341E",
"N  c #432420",
"B  c #422622",
"V  c #452521",
"C  c #472622",
"Z  c #492722",
"A  c #4A2723",
"S  c #462824",
"D  c #4A2823",
"F  c #4D2924",
"G  c #4E2A25",
"H  c #412F2C",
"J  c #532C26",
"K  c #552E28",
"L  c #562E29",
"P  c #592F29",
"I  c #453521",
"U  c #483722",
"Y  c #463923",
"T  c #4A3923",
"R  c #42342D",
"E  c #433A2A",
"W  c #4A3C2F",
"Q  c #513125",
"!  c #533F27",
"~  c #56312A",
"^  c #5D312A",
"/  c #5F3C2D",
"(  c #423D3D",
")  c #513E33",
"_  c #63332D",
"`  c #65342D",
"'  c #68362F",
"]  c #643D2E",
"[  c #693C2F",
"{  c #673731",
"}  c #6A3730",
"|  c #6C3B31",
" . c #743B33",
".. c #7C3E37",
"X. c #4B412E",
"o. c #544126",
"O. c #584527",
"+. c #564328",
"@. c #594429",
"#. c #5D4A2B",
"$. c #4F4432",
"%. c #584A34",
"&. c #67412F",
"*. c #634E2D",
"=. c #6B4B2F",
"-. c #66512E",
";. c #6A542F",
":. c #6B4430",
">. c #6E4C31",
",. c #754634",
"<. c #744934",
"1. c #7A4B36",
"2. c #7F4E38",
"3. c #6D5631",
"4. c #605138",
"5. c #69573B",
"6. c #6D5A3E",
"7. c #765735",
"8. c #745B33",
"9. c #7A5C36",
"0. c #7C6237",
"q. c #7F6538",
"w. c #3F3F40",
"e. c #404141",
"r. c gray26",
"t. c #434343",
"y. c #444444",
"u. c gray27",
"i. c #454646",
"p. c #464646",
"a. c #4B4644",
"s. c #4D4946",
"d. c #474748",
"f. c #474848",
"g. c gray29",
"h. c #4B4B4B",
"j. c #4C4C4C",
"k. c gray30",
"l. c #4F4F4F",
"z. c #514C49",
"x. c #58534A",
"c. c #4F4F50",
"v. c #515151",
"b. c #535353",
"n. c #555555",
"m. c #575757",
"M. c #5A5553",
"N. c #5D5953",
"B. c #575858",
"V. c #585858",
"C. c gray35",
"Z. c #5A5A5A",
"A. c #5C5C5C",
"S. c #5E5E5E",
"D. c #625C53",
"F. c #615C58",
"G. c #766242",
"H. c #6C665C",
"J. c #606060",
"K. c #626262",
"L. c #636363",
"P. c #646464",
"I. c gray40",
"U. c #686868",
"Y. c #804F38",
"T. c #8C533D",
"R. c #826639",
"E. c #8D663D",
"W. c #876A3B",
"Q. c #8B6B3C",
"!. c #916A3F",
"~. c #90713E",
"^. c #966E41",
"/. c #996F42",
"(. c #957541",
"). c #9B7343",
"_. c #9D7B44",
"`. c #A27746",
"'. c #A47C46",
"]. c #AB7E49",
"[. c #A48146",
"{. c #AD8449",
"}. c #AF894A",
"|. c #B1824B",
" X c #B18B4B",
/* pixels */
"o .     X o @ @ o             o o .       o o       . o o @ @ o o o .   o o o         .   o + @ @ @ o o o o   .   o     o o o o ",
"o o + @ % % ; 9 9 9 @ @ @ O % 9 0 % @ % % % % % @ @ @ % 0 e e 0 % % % % % % % % O @ % % % % % 8 9 9 % @ @ @ o o + + o o + @ o   ",
"o @ s w.i.t.r.i.k.k.e.z h h w.k.k.k.g.i.w.r.i.i.w.k h l d.g.i.r.g.t.l z i.y.w.z f h x v k h s s h h k h r r r e e 9 0 9 0 % o   ",
"o % i.Z.S.Z.Z.Z.L.K.n.k.i.k.n.K.P.P.S.n.b.n.K.K.A.n.f.k.n.Z.n.m.S.Z.k.c.Z.S.S.m.v.b.b.n.g.i.w.w.r.r.i.v r.l v h d d d s s 0 o   ",
"  9 c.K.B.B.K.K.Z.n.j.i.i.d.b.Z.J.A.b.k.b.n.L.L.K.b.g.g.g.b.Z.S.S.J.n.b.A.K.L.L.S.V.A.n.k.t.t.w.w.l v v r.e.v k h h d s r 0 o   ",
"o 0 k.K.m.Z.K.K.n.g.g.i.g.k.b.n.n.n.k.g.g.c.A.A.b.g.w.l l w.g.c.k.k.f.d.f.c.n.n.n.n.b.b.k.d.d.r.r.l h v e.e.( l l h d s d 0 o   ",
"+ 9 i.B.Z.A.K.Z.k.g.g.b.b.Z.B.B.k.v.n.b.d.e.y.w.r 0 0 0 e e f f s r r r e e e r f x w.d.k.z.b.j.i.w.l l i.i.t.r.l h l h d e + . ",
"+ 9 i.Z.S.A.B.b.g.g.b.Z.S.S.B.k.i.y.c.h.k s s e % # @ # ; ; 8 % ; 0 < % # # @ % 0 e r h r.g.g.k.g.i.e.v e.i.r.r.r.l l k d 9 +   ",
"o 8 c.K.K.Z.k.g.k.b.S.K.K.n.g.$.z v l f 0 % % ; = = = : = ; % ; : > : ; - & - = # % % 0 s l x t.k.h.i.r.e.e.w.w.e.w.l k d 0 o   ",
"o 0 b.U.J.n.g.g.b.m.S.S.V.k.w.l h f e 0 % # # # = > : : > : % ; 3 4 > > > : : - # # # % 0 e f x d.k.g.i.i.e.w.w.e.e.r.l f 0 o   ",
"@ e b.P.Z.c.k.b.n.Z.b.g.i.e.w.f f r 8 # = * = : > > : : > : % ; y N , , > > : - - = = = % 8 r f l i.k.k.g.y.e.w.w.l r.v f 0 % o ",
"O 0 b.P.Z.b.b.b.n.n.i.v k h d r e 0 % # : : : > , 4 > : 4 : ; ; S J N 4 , , > : : > : = & % 8 e s h i.g.i.e.r.$.v e.i.w.f e % @ ",
"X 9 h.P.P.K.n.c.k.d.r.l f r 9 8 % # ; = : : : > N V > : , : % q K ^ J V 4 > : : > > : : : = % % % e l w.v l x v w.i.i.w.h 0 @ o ",
"  % i.K.K.K.Z.b.d.w.l s r 8 % @ # = : > : : : , N D > > , : ; q K _ K D 4 > : > , , > : : = & # @ % e f h h l v v w.r.w.f 0 @ o ",
"  @ w.n.J.K.P.Z.d.l s r 8 % ; = : * > > : = : > A V 4 4 4 : % q ~ ` K G 4 > > > V N > : : : : = = = ; 0 r f k h h h l h f 0 % @ ",
"  @ w.Z.F.J.K.n.w.f s 0 ; # - : : : > , > : : > V G 4 , 4 > ; q K ` K S N , > > V Z , : * : : : : = # % 0 e f f h r h h d e # @ ",
". % r.J.K.K.n.d.h r e 0 - - - - : > , , > > : , V V 4 4 V N ; q K _ K G D n > > G n , > : : > > > : - = # 0 e s h f f f k r # o ",
"  % i.K.K.Z.g.l r 0 0 ; - > > > - > , , 4 > : , G J N 4 A B ; q ^ ' P D J Z , , n J n , > : , , > > > = # % 0 s h h f f f r @ o ",
"  @ w.n.b.g.r.g 0 % ; : > > > > - > n V , > : , J P N 4 A B = t _ | P J J n 4 4 G J J n , , , , N N > - = = # 0 s l w.z h e % @ ",
"  @ r.n.k.e.h e ; # : > 4 4 4 > > > V Z n > : n P _ V 4 G N ; t }  .P J J J 4 n G J J n N , , N A V > : > : # 8 f w.e.w.h e % @ ",
"  % g.K.n.r.e ; * = > 4 V n 4 > : > D n n , > n ^ ^ N 4 Z y ; t { ..^ J ^ P n n P _ J n n , Z Z J V > : > > : q l r.w.x h r 8 @ ",
"  # g.K.n.w.9 # = : > 4 G G n 4 > 4 J J n , , n ^ ^ D B J S : t {  .P K ` ^ n n P _ P n 4 , Z P K V > : , , > t ( i.w.l l f 8 @ ",
"  @ e.n.k.l 0 @ * > > 4 Z G G n , 4 P ^ J n , n ^ _ G G ^ J 0 t {  .^ K ` ^ n n ^ _ P V , N P P J V , > N N > i s.b.e.l w.h 0 @ ",
"  @ e.n.b.w.8 # - > , n J K J D n n ^ ` P Z n n ^ ` K K { K : t {  .^ J ` ^ n n ^ _ P G n Z _ _ P A , , Z V > i b.Z.r.l w.k % @ ",
". % i.A.K.k.9 @ - 4 n J ^ ^ K n 4 n _ _ K Z 4 N P ` K K { ~ q t {  .P K _ P V n _ _ J A A J _ _ ` P n , Z n > p M.Z.w.s s r % @ ",
"o % f.K.K.k.9 o - 4 Z P ` ` ^ G 4 n ^ ` P J V Z ^ ` P J ^ K 0 t {  .P K _ ^ Z V P _ P J J J _ { } _ n n J G 4 p M.Z.w.r r e % @ ",
"O 0 k.A.n.l # O - 4 Z K _ ` ` P n n ^ ` ` P G J _ _ J P { ~ : t {  .P J _ _ J G P } { P J J { } ` ` G G P P , p Z.S.r.f s e % @ ",
"@ e k.Z.c.k % # 6 G G J _ ' ' ^ V V P ' ` _ J J _ _ J J ^ K q t { ..^ P _ _ J J _ } } _ J J _ } ` _ P P ` _ K ) F.F.i.h s 0 % @ ",
"@ e k.A.n.w.9 < O.=.~ J _ ` ' ^ G G _ ` ' _ J J P _ K J _ J 1 t { ..' _ _ ^ J J P } } P J J _ _ ` ` _ _ ` | =.6.H.S.i.h s 0 @ o ",
"@ 0 g.B.b.l 0 5 *.8.=.:.1.Y.Y.1.,.,.1.1.1.,.:.:.,.,.&.] ,./ 5 i ,.T.1.,.1.,.:.,.1.Y.Y.1.:.:.<.1.1.1.,.,.,.1.9.G.H.A.i.l g e @ o ",
"o % i.b.i.k 0 r #.9.Q.`.].|.|.{.[.].|.{.`.).(.).)./.E.E.E.7.I T ^.]./.!.).`.'.{.{.|.{.].).(.).).).).^.E.E.R.8.6.F.B.g.e.l s @ . ",
"  % l g.z d 9 w W 8.~._.[.{.}. X X X X{.'._._._._.~.Q.Q.W.8.Y O._. X(.W.(._.{. X X X X}.'._.'._._.).E.W.W.q.3.4.N.B.g.r.z e @ . ",
"o # r x h e % < Y O.-.;.;.8.q.R.R.R.q.q.0.0.0.0.-.-.*.*.-.o.a o.W.).8.*.*.3.9.R.R.R.R.q.q.0.0.0.0.8.3.#.*.*.O.%.N.Z.k.v h e + o ",
"  @ r h f e % $ a T I M I Y o.@.+.@.+.+.@.@.+.o.T I I I M 7 5 T 7.9.@.I U T +.@.+.+.@.@.@.+.@.+.@.+.T I T 7 M +.m.Z.k.v g 0 @ o ",
"  o 0 f k r % $ 5 7 4 3 3 3 6 N 4 6 4 6 N 6 4 4 3 3 3 3 3 3 ; q ] | I 4 4 4 4 6 4 6 n m 6 4 6 4 m 6 4 3 4 6 6 X.N.A.i.h d e % + ",
"  o 0 f k r % # < 3 : - - > , , : - : > : 4 > > : : : : : * % q K P Z , 4 , > - - > 4 , : : - > > > : > 4 4 3 R M.Z.i.h d e % @ ",
"  o e l f e @ @ * : : - : > n n 4 - - : > , n n > - > > : = % q K _ K V D N > : : 4 n n > : > > , > : > n n > i g.b.f.w.h d 9 @ ",
"  @ r l f 0 @ O & 3 > > > > Z Z , = : > , n G Z 4 > , , , : # q P ' P K J V > > > n G Z > > > , 4 4 > , Z Z , i s.n.k.i.b d % + ",
"o @ h r.l r @ O & > n 4 > > V Z > : > , n G G Z 4 , V Z 4 : % t _  .` ` K Z 4 > , 4 Z V > : > 4 n n > > V Z , H b.S.n.k.i.h % o ",
"  # l i.r.f @ O & 4 G G , > Z Z , > > 4 G J J G N , Z G N > ; t { ..| _ K Z 4 4 , n J G , > , V G Z , > Z Z , H M.K.B.k.k.k @ o ",
"  @ l c.i.f # + - n P K n , V Z 4 > , , Z K _ K N n Z Z A N ; t { .. ._ J A 4 , N J ^ P n , n Z G V 4 4 V V , H M.J.n.b.b.( % . ",
"  # e.b.k.k % + : n ^ _ Z n J G 4 4 , n J P ` P V , Z J J S ; t { 1.} _ K Z V N G P ` ^ Z n D J P J N N G G n p z.n.k.k.b.v %   ",
"  % i.m.k.l % @ - V P _ J G P P n , V J _ ` ' ^ N , Z J _ J 0 t } .. ._ J G Z G P ` { _ J V S J P P G G ` P n p a.c.i.i.k.v @   ",
"o % f.S.v.l 9 $ 6 J _ _ P P ` P Z 4 G J _ ' ' P V N G P ` K : q _  .} _ P J J K ` { ` _ P K K ^ ` _ P P ` ^ J W z.k.w.v k.e.@   ",
"  % f.A.n.v 9 < +.>.| _ _ _ ` _ G Z G K _ ` ` _ G G P ` { K ; q P } { ` _ ^ _ _ ` ` { _ _ _ ^ _ ` ` _ _ ` | =.5.N.b.r.l k.v @ . ",
"  @ d.A.Z.i.e w -.9.7.1.1.Y.2.1.,.&.&.:.,.1.1.,.&.:.,.,.,./ u 5 | 2.<.,.1.2.2.2.Y.Y.Y.Y.1.1.1.1.1.1.1.,.,.1.9.0.D.b.e.w.g.w.% o ",
"  % $.A.K.b.d w O.9.W.!.].|.|.|.].'.).~.).).).).).(.!.!.E.7.T o.^.].^.^./.`.].|.|.|.].{.`.).)._.).).`./.Q.R.8.5.M.k.r.r.f.l 9 @ ",
"o % x B.F.b.d w ! ;.R.~.[.{.}. X X{.[.'._._.`._.).(.W.W.W.8.M O.).}.(.W.(._.{.}. X X X{.).).).).).).).(.Q.R.3.%.x.h.l l e.l % @ ",
"  % k k.n.d.e < Y @.*.-.;.8.q.R.R.q.0.0.0.0.0.9.3.-.-.#.-.+.7 o.W.).8.-.-.3.0.R.R.R.R.0.8.;.;.-.3.-.-.-.-.*.O.$.z.s.h f h f % @ ",
"o % f g.b.f.e % a T M M M Q o.O.+.+.+.@.+.+.+.o.Y I I Y I 7 5 Y 8.9.O.I I T T +.o.O.O.o.T M U M I I I I M M M +.z.g.h s h d % @ ",
"@ % s y.Z.b.s < 5 6 6 6 4 4 4 6 4 6 6 4 4 3 y 3 3 3 3 3 3 : ; t / ] G 3 4 3 4 6 4 6 6 m n 4 4 4 3 3 1 3 3 3 6 E s.f.h d h r % o ",
"@ % s d.A.b.s < w 6 n n n n 4 3 > > , , 4 4 4 4 , , 4 , 4 > ; q P _ D y 4 4 , 4 , 4 N V n n n n , , 4 , 4 4 5 a s.g.h d h r @   ",
"o @ r e.b.f.e # : m K ^ ^ ^ ^ J Z Z J P P P P P P P P P P S 0 t _  ._ ^ P P P P P P ^ P ^ ^ ^ ^ P P ^ ^ P G n p s.g.h s r 0 o   ",
"o @ s w.k.w.0 % > n P ` _ ` ' _ J J _ { ' ' ` _ _ { ' ' { K : t { ..} _ { { ` ` { ` ` ` ' ' ` ` ` } ` _ { ^ V i r.i.h r r 0 o   ",
"@ % s z y.z 0 # : 4 J P K P ` ^ G V ^ | ' ` P P J P { ` P S ; t _ .._ P ` ` P P { ` ^ ^ _ _ P P ` ` ^ ^ ' ^ n i ( r.h r r 0 @ o ",
"@ % s w.e.k 8 # : 4 n G G ~ _ ^ n n P ' ` ^ G G G K _ _ J y ; t {  .P K ^ ^ K K ^ ^ G G P ^ K K ` _ G G ^ P n y ( e.f r r 0 @ o ",
"o % r l l f 8 # - 4 Z G J K _ ^ n n _ ` P J n n D K _ ^ D > ; t { ..P J J J J J K G N n J K K P _ P Z N J Z , t ( v r e r e # @ ",
"o @ f v x d 9 # * > Z G Z J ^ P n n P P J n , , V J ^ ^ N : % t { | K Z G G G Z G Z 4 , n Z n J ^ K n , Z N > t j l e 0 e 0 % @ ",
". @ r l l h e ; ; , Z Z N N G J n n G J n , : > 4 n K G y : % : ^ _ S N Z G N n Z Z , : , 4 n n J G , > , , > t k h e 0 0 % @ o ",
"o @ e h h f 0 ; : 3 V V 4 , V V , , n n , , > : > 4 V S 4 : ; q K ^ V 4 V V , , Z V > : > , > 4 Z V > : > > : t f f e ; 0 % @ o ",
"@ % e e r 0 % % > , 4 4 > - 4 4 > : > , , > : : > 4 4 4 : : # 1 ^ P 4 > 4 4 > > , 4 > : > > > > , , > : * : : > f k e 9 % 0 @ @ ",
"@ % % e % % @ @ * * * * = & * * & # & & * * & & - * * * = # @ = N n : & * * & & * * & & * & & & * * & & & # & = r r 9 9 % % @ @ ",
"o @ % % @ o o o . . . . . . . . . . . . . X . . . . X X . . . . O O . . . . . . . . . . . . . . . . . . . . . o # % @ @ @ @ O o ",
"o X @ @ o o o .                                                                                                 @ @ o o @ @ o o "
};
