/* XPM */
static char *c672ff86ea8f493c9c48b3ef8e0a1ea9HbMsVnxRoU6V3FbO[] = {
/* columns rows colors chars-per-pixel */
"64 64 150 2 ",
"   c #001F1F",
".  c #002121",
"X  c #002D2D",
"o  c #003131",
"O  c #003D3D",
"+  c #004343",
"@  c #004D4D",
"#  c #005454",
"$  c #005C5C",
"%  c #006464",
"&  c #006C6C",
"*  c #176B6B",
"=  c #196F6F",
"-  c #007474",
";  c #007C7C",
":  c #177171",
">  c #197777",
",  c #216868",
"<  c #207B7B",
"1  c #008484",
"2  c #008C8C",
"3  c #1A8D8D",
"4  c #009494",
"5  c #089191",
"6  c #009C9C",
"7  c #219393",
"8  c #339191",
"9  c #00A3A3",
"0  c #00ABAB",
"q  c #00B3B3",
"w  c #00BBBB",
"e  c #08BDBD",
"r  c #18BDBD",
"t  c #21A2A2",
"y  c #4AAFAF",
"u  c #4EB2B2",
"i  c #00C3C3",
"p  c #00CBCB",
"a  c #1ACCCC",
"s  c #00D4D4",
"d  c #08D4D4",
"f  c #00DBDB",
"g  c #08DEDE",
"h  c #17D2D2",
"j  c #1AD2D2",
"k  c #17DDDD",
"l  c #18DBDB",
"z  c #22C5C5",
"x  c #21CFCF",
"c  c #33CDCD",
"v  c #3BCDCD",
"b  c #23D4D4",
"n  c #22DEDE",
"m  c #30D5D5",
"M  c #3DD4D4",
"N  c #00E3E3",
"B  c #00EBEB",
"V  c #08EAEA",
"C  c #17E0E0",
"Z  c #19E4E4",
"A  c #16EBEB",
"S  c #1AEBEB",
"D  c #00F4F4",
"F  c #00FBFB",
"G  c #08FBFB",
"H  c #18F3F3",
"J  c #16FAFA",
"K  c #1BFEFE",
"L  c #21E2E2",
"P  c #2CE3E3",
"I  c #22EBEB",
"U  c #2EE8E8",
"Y  c #32E4E4",
"T  c #3EE4E4",
"R  c #3DECEC",
"E  c #20FAFA",
"W  c #2BFDFD",
"Q  c #37FFFF",
"!  c #3AFFFF",
"~  c #4DD4D4",
"^  c #55DBDB",
"/  c #67CFCF",
"(  c #67D0D0",
")  c #65DDDD",
"_  c #40E8E8",
"`  c #4BECEC",
"'  c #4BF1F1",
"]  c #45FFFF",
"[  c #4BFDFD",
"{  c #5DFCFC",
"}  c #64E2E2",
"|  c #61EFEF",
" . c #65F3F3",
".. c #6AF2F2",
"X. c #63FDFD",
"o. c #6CFDFD",
"O. c #72F3F3",
"+. c #72FCFC",
"@. c #7BFFFF",
"#. c #9FEFEF",
"$. c #83F6F6",
"%. c #8AF7F7",
"&. c #83FEFE",
"*. c #8BFFFF",
"=. c #95F4F4",
"-. c #9DF6F6",
";. c #91FFFF",
":. c #95FFFF",
">. c #92FCFC",
",. c #9FF8F8",
"<. c #9DFFFF",
"1. c #9CFFFF",
"2. c #B7EFEF",
"3. c #A0F6F6",
"4. c #A3FFFF",
"5. c #A2FFFF",
"6. c #A9FFFF",
"7. c #ADFFFF",
"8. c #AEFFFF",
"9. c #B6F1F1",
"0. c #B8F1F1",
"q. c #B5FFFF",
"w. c #B9F8F8",
"e. c #C3F1F1",
"r. c #C3F6F6",
"t. c #C3F4F4",
"y. c #C5F8F8",
"u. c #C0FFFF",
"i. c #C5FFFF",
"p. c #C6FFFF",
"a. c #C4FFFF",
"s. c #CFFFFF",
"d. c #D6FFFF",
"f. c #D0FFFF",
"g. c #D9FFFF",
"h. c LightCyan",
"j. c #E2FFFF",
"k. c #E5FFFF",
"l. c #E3FFFF",
"z. c #EAFFFF",
"x. c azure",
"c. c #F1FFFF",
"v. c #F5FFFF",
"b. c #F2FFFF",
"n. c #F8FFFF",
"m. c #F9FFFF",
"M. c #FAFFFF",
"N. c #FBFFFF",
"B. c white",
"V. c #FCFFFF",
/* pixels */
"i w i i f B D W ;.d.v.B.B.x.s.7.*.@.@.@.&.@.&.{ K F F F B B D D B f f B F F B i 6 6 N F B f f N f N f N f N N f N f p w i w 0 6 ",
"w i i p N V J ] *.i.k.n.B.n.j.i.7.1.:.;.;.;.*.o.Q K E E I S G F B B B B D D B p 1 5 l K V N N B B f B f f f f f f s i i w q 6 4 ",
"w i s N D J [ +.*.4.a.j.n.B.n.x.z.g.a.q.q.6.;.@.o.X.X.X.X.[ K F F D F D B B F p - > ~ [ S B D D B f f f p p p i p i i w 0 6 ; & ",
"i d k A B H '  .| ..$.-.0.e.r.y.y.w.,.>.>.%...X.X. . . . .` A B B B B B f s B i % , ( ..n s N N s s s p i q q q q w w 0 6 1 & $ ",
"f C ` ' l p a x a b P Y M M T _ _ R Y U Y U I S S L b x b a e q q e p p w q w 4 # , ( ..z 0 q q q 0 0 0 0 0 0 0 0 0 0 6 ; & % $ ",
"B I +.O.b i i w i p s s p p s f f f N f f f f f f s i w w 0 9 6 0 0 q 0 6 2 1 ; : 8 ^ ` r 9 6 6 9 0 9 6 9 6 9 6 6 9 6 4 & $ $ % ",
"F W *.%.Y s i i s s p p s s i p f N N f p p f f p i i w 0 9 6 0 q q 0 6 ; % # : u ^ Y l i q 0 9 q q 9 6 6 6 9 9 6 9 9 2 & $ % $ ",
"K ] 1.=.Y s p p s s p p s s p p f f f s p p s s w w w q 0 6 6 0 q 0 6 1 1 ; & 3 ~ ' l p i q 0 0 q q 0 6 6 6 6 6 4 6 9 2 - $ $ $ ",
"{ @.6.=.m p s s p p s s p p s f N f p p s s p i 0 9 9 0 6 6 6 9 0 6 ; 1 0 p p d j a q 0 0 0 q q 0 9 9 4 2 2 6 6 2 4 6 4 & $ @ + ",
"*.4.i.#.c i f f p p f f p p s f f s p p f f i w 0 0 6 9 0 0 9 9 9 2 & - 0 f F D s q 9 9 9 0 w w 0 0 9 6 4 4 6 6 2 2 6 2 - # + O ",
"q.a.k.2.v i s f i i f N f s p i i p s f N f i w w q 9 9 q q 0 6 0 2 & & 2 q B D s q 0 9 q w i w w q 0 9 0 0 9 6 6 4 2 ; & # @ O ",
"f.g.B.e.M p s s p p s f f s p i i i f N f s i i w q 9 0 q q 0 6 4 1 - % & 6 N D p 0 0 0 q w w q w q 0 0 q q 0 6 6 4 1 - % # + + ",
"v.n.B.r.T s p p s s p i p p s s i p f f p i i w 0 9 6 9 9 0 6 4 ; & - - % 2 f B w 0 q q 0 0 0 0 0 0 q q 0 0 6 6 2 1 1 - # + + O ",
"x.n.B.r.T s p p f s p p i p s s p p s p i w w w 0 0 9 9 0 9 4 1 & % - - & 1 i f i q w q 0 6 4 6 6 0 q 0 0 6 9 4 1 1 1 - # O O + ",
"f.g.n.e.M p s s p p s f f s p p s f p i 0 0 w i w q 9 0 q 0 ; & % % % & - 1 4 q f f w 9 6 6 2 4 0 0 6 4 6 6 6 6 2 1 4 1 # O O + ",
"q.a.z.0.M p s s p p s f f f s p s s i w 0 0 q q w q 0 0 w 0 ; % $ $ $ & ; ; 1 6 f N w 9 6 6 2 4 q 0 4 2 6 9 0 6 1 2 6 2 $ O O + ",
";.4.i.3.Y s p p s s p p f N f s p i i w w q 0 0 0 0 q w i 0 2 & % $ $ % ; 1 2 0 p p i q 0 6 6 6 0 0 6 4 6 0 q 0 2 1 6 2 # O + O ",
"{ +.4.%.P s p p f f p i s N N f p w w q w q 0 6 6 0 q i w 0 6 1 & % % % & ; 2 4 0 q w w 0 6 9 6 6 6 6 6 6 0 q 0 4 2 4 1 # + O + ",
"Z R @...b p s f f f p i f N N f i w 0 9 0 0 6 6 6 0 w w q 0 0 9 1 - % $ % % & - 1 6 q w 0 6 9 9 6 6 2 2 6 9 0 0 6 4 2 - # O O + ",
"f k ` ` j p f f f s p p s f s s p w 0 0 6 6 9 0 6 0 q 0 0 0 q w 9 4 1 1 1 2 1 1 - 1 9 0 9 4 4 6 6 4 2 2 4 4 6 6 0 4 2 - @ O O + ",
"p p j h d f N f p p s s p p p i i w w 0 9 0 0 q 0 6 0 0 6 0 w i p p i i s f f w 1 & 1 2 2 1 2 2 1 2 4 4 2 2 4 9 9 6 2 & # + O + ",
"6 9 6 0 p f N f i p f f i w w w w w w q 0 0 w w 0 6 6 6 6 0 q p p s s f B B D s 6 - ; - - ; - - ; ; 2 2 2 4 6 6 6 4 1 - @ O + O ",
"$ $ $ ; 0 s f f p i s s q 0 w w 0 0 0 0 q w w w 9 6 9 6 9 0 q w q q 0 q q w w w i 0 ; % % % % % % % & ; 2 6 6 6 2 1 1 & @ O O + ",
"@ + O # 4 w s s p p p i 0 0 w q 0 6 6 0 w i i w 0 0 9 6 0 0 q q 0 6 9 0 9 6 6 0 p w 4 ; ; ; 1 ; - & % - 1 6 9 6 1 1 2 - # + O O ",
"& % + @ ; 6 e p f s w 0 9 0 q w 0 6 6 0 w i w w w q 0 9 q q 0 9 6 0 q q 9 6 6 9 0 q w i i i i w 6 2 ; - - ; 4 6 1 1 4 1 # O + + ",
"t 7 < = & ; 6 w p i 0 6 0 0 q q 9 6 0 0 q q w w w q 9 9 q q 0 6 6 9 q q 0 0 0 9 6 0 p s s s p w 0 6 6 2 & % ; 2 2 4 6 2 # O O O ",
"} } ) y * # - 6 0 0 0 9 q q 0 0 6 9 q q 0 0 0 0 0 0 9 6 9 9 9 6 6 9 9 0 q w q q 9 9 0 q q 0 6 6 6 0 i q - $ # % 2 9 9 2 $ O O + ",
"X.o.&.) 7 - 4 6 6 4 4 6 0 q 0 6 6 0 w w 0 6 6 6 6 6 0 0 0 0 9 6 9 9 0 0 w i w q 0 9 6 6 6 6 2 2 6 0 i q 1 % $ % - 2 6 2 $ + O + ",
"E ! +.o.n s f p 6 1 1 2 9 0 9 6 9 0 w w 0 6 6 9 6 9 q w q q 0 6 6 0 q w w w 0 0 9 9 6 9 9 6 4 6 9 6 6 4 4 2 2 - $ $ 2 4 & # + O ",
"F J [ [ J D D s 0 6 6 6 6 4 6 9 6 0 q 0 0 6 9 6 6 0 w w w q 0 6 6 0 w w w q 6 6 6 9 9 6 9 6 6 6 6 4 2 2 6 9 9 1 $ # - ; % # @ @ ",
"B B J H g p w i f B N p 6 2 6 9 6 9 0 0 6 6 9 9 6 0 q w q 9 9 6 6 0 w w q 6 2 2 6 6 9 9 6 6 2 2 1 2 4 6 6 6 4 1 1 - # @ @ @ # $ ",
"N B F B i q 0 q f B B f 0 6 6 6 9 6 6 9 0 9 9 6 9 0 q q 0 6 0 9 6 0 w q 0 6 2 2 4 6 6 6 9 6 2 1 ; 1 4 6 6 4 ; 1 2 1 $ + O + @ # ",
"F F F B w 0 q w q w q i f s 0 6 9 6 6 9 q q 0 6 6 9 9 0 6 0 q q 0 0 w w 0 6 6 4 2 2 6 6 9 6 6 4 1 ; 1 2 2 ; - & & - 1 - @ O O O ",
"D F F B q 9 q 0 0 6 6 q f f w 0 9 9 6 0 q q 0 0 9 9 6 6 6 9 0 q 9 9 0 0 9 6 6 4 2 2 4 6 6 9 6 4 2 2 1 ; ; - % $ $ & 4 1 # O X X ",
"B B F B q 6 9 0 6 6 6 0 q w q q 0 6 9 9 9 0 q q 0 6 9 6 2 2 9 0 9 6 4 4 6 6 2 2 4 4 2 2 6 6 2 2 4 4 2 ; & % % $ $ & 1 - @ o X X ",
"B B F B q 9 9 0 0 0 6 6 6 0 w w 0 6 6 6 6 0 q q 9 4 4 4 2 2 4 6 6 4 1 2 6 6 2 2 6 6 2 1 4 6 2 2 4 4 1 & % $ $ % & & - % + X X o ",
"D F F B q 9 q q q q 0 6 6 0 q w 0 6 6 9 9 9 0 9 4 1 1 2 4 4 2 2 6 4 1 1 4 6 6 6 9 4 2 1 4 9 6 4 2 1 - % % $ % % - - & $ O X o X ",
"F F F N q 0 q w w w 0 9 6 9 w w 0 9 9 6 6 6 6 4 1 1 1 2 6 4 2 1 6 6 4 2 4 6 6 6 6 6 2 2 4 6 6 4 2 ; % % % % % % - - & $ O X X o ",
"F F D s 0 6 0 0 w w w q 0 0 w w w q 0 4 2 2 6 4 2 1 4 6 9 6 1 1 4 9 6 4 2 1 1 2 6 6 6 4 2 2 1 2 4 2 & % - - % $ % & - % + o o o ",
"F B B s q 9 0 0 w i i w 0 0 w i i w 0 6 2 2 4 4 2 2 4 6 6 6 2 2 4 6 6 6 2 ; 1 1 4 6 9 4 2 ; ; 1 4 2 - & - - & % % - ; % + X X X ",
"B N N s i q q w w i i i w w w i i i w q 6 4 2 2 4 4 2 2 6 9 6 4 2 2 6 6 1 1 ; 1 1 2 6 6 1 ; ; 1 2 1 1 - & % % % - - & $ + X X o ",
"N B B f i w w i w w w w w w i w w q q q 0 6 2 2 6 4 2 1 2 6 9 6 2 2 4 4 2 ; ; 1 ; 1 4 4 1 1 2 1 ; - ; - % $ $ % - - $ @ O X o X ",
"D F F N w 0 w w 0 q w w 0 0 w w 0 0 0 0 0 6 6 4 6 6 1 1 1 2 6 6 6 4 2 1 1 ; 1 ; ; 1 1 1 1 1 4 2 - % % % % % % % % % @ + O X X o ",
"F F F B w 0 w w 0 0 q q 0 0 w w 0 6 4 6 6 6 9 9 9 6 2 1 2 2 4 6 6 4 1 ; ; 1 1 2 2 1 1 ; ; 2 6 4 - % % $ $ % % % & $ # O o o X o ",
"F F B f i q w i w q 0 0 q w w w 0 6 2 2 6 9 9 9 9 6 6 6 6 4 2 1 1 1 ; 1 ; 1 4 4 6 4 2 ; ; 2 6 6 1 & % $ $ % - ; ; & % @ O X X X ",
"F F B s i w w i i w 0 0 q w i q 0 4 2 2 4 6 6 6 6 6 9 6 6 4 1 1 1 1 2 1 1 2 6 6 6 4 2 1 1 1 4 2 1 - & % % % - ; ; - % @ O X X X ",
"F F B p q 0 w w i w w q 0 0 w w 0 6 6 6 9 4 2 2 6 9 6 6 2 1 1 1 4 6 6 4 1 1 6 6 2 2 4 4 1 1 1 1 & & ; - & % % % & $ @ + O X . . ",
"F D B s 0 0 q i w w w q 0 0 q q 6 4 6 6 6 6 2 2 4 6 9 6 1 1 1 2 4 6 6 6 2 2 4 4 1 1 4 4 2 ; 1 - % % - - & % & % % $ + O o X . . ",
"B B N p 0 0 q w 0 q w w 0 6 0 6 2 1 2 2 6 9 6 4 2 2 6 6 2 1 4 4 2 2 6 6 6 4 2 1 1 1 1 1 1 ; 1 ; & % % & - ; ; - % # @ O o X .   ",
"f N B s 0 0 w q 0 0 0 q 0 6 6 6 2 2 1 2 4 6 6 6 1 1 4 4 2 2 4 4 1 1 4 6 6 4 2 1 1 1 1 ; ; ; - - % % % & - ; ; - % # + O o X .   ",
"f B D N q 0 w w 9 6 0 0 9 9 9 6 6 4 6 4 2 2 6 6 1 1 1 2 4 4 2 1 1 1 1 2 1 2 4 6 6 4 1 ; & % % % % & - - & % & $ @ + + O o X . . ",
"f B D N q 9 q 0 6 6 6 6 6 6 6 9 6 9 9 4 1 1 4 4 1 ; 1 1 6 6 2 1 1 ; ; ; ; 1 4 6 6 2 1 - % % % $ $ % - - % $ $ # @ + + O o X . . ",
"f B B s q 9 0 6 2 2 6 6 2 2 6 6 9 6 9 6 1 1 1 1 1 ; ; 2 6 6 6 4 1 ; & & ; 1 1 2 2 ; - % % $ % $ $ % % & % $ @ @ # # + o X . .   ",
"N f f p 0 6 9 6 2 2 4 4 1 1 6 9 9 6 6 4 2 1 1 1 1 2 2 2 6 6 6 4 2 ; & & ; ; ; - ; ; % $ # $ $ % % $ $ # # # @ @ # # + O . .   . ",
"f f p w 0 9 6 6 6 4 2 1 1 2 4 9 9 6 2 2 4 4 1 1 4 6 4 6 9 6 2 2 4 4 ; ; ; ; & & ; ; & # @ @ $ % % $ @ + + @ # # @ @ + O .       ",
"N f p q 0 6 9 6 9 6 2 1 1 2 6 6 6 4 2 2 4 4 1 1 4 9 9 6 6 4 2 2 6 6 1 1 ; ; & & - - & % @ @ # $ $ # @ + + + # # + O O O X     . ",
"N f p q 0 9 6 9 9 6 6 4 6 6 6 6 2 2 4 4 2 1 ; 2 6 9 9 6 2 2 4 6 6 6 2 ; 1 ; ; - & & - - % # @ + + @ # # + + + + + + O O .       ",
"f s i w 0 6 9 6 6 6 9 9 6 6 6 4 1 2 6 6 2 1 1 2 6 6 6 4 1 1 4 6 6 4 1 1 ; ; ; ; & % - - % @ + O + + # # @ + + + O + O O X       ",
"i i i w 0 6 9 6 2 2 6 6 2 2 1 2 1 1 6 6 6 4 2 2 6 6 2 2 1 1 2 2 2 1 1 ; & - ; ; & $ % % # + + + + + + + + O O O + O + O X     . ",
"i i w 0 6 2 4 2 ; ; 2 2 ; - - & - - 1 2 2 1 - - 1 1 ; & & & & & & & & % $ # & % $ # # @ O O O O O O O O O O O O O O O X .       ",
"w w q 6 ; & & & % & & - & % # @ # # # $ # # # @ # # @ @ + + + + + + + + O O + + O O O O O o o O o o o o X . X . . X X . . .   . ",
"w 0 6 1 & $ % $ $ $ $ # $ @ + O O O O O O O O O O O O O o X o X X X X X X X X X X o X o X X X X X X X X .               .       ",
"0 6 ; & % $ $ % % $ @ + @ + + + + O + O + O o o o o X o o X X o o X o X X X X o X X o X X X . . . . . . .       .         . .   ",
"6 4 & $ % $ % $ % # @ O O O + O O + O O + O O X o X o X o X o X o o X o o o o X o X o o X X . . .           . .   . .   .     . "
};
