/* XPM */
static char *_d76a84caaf749de804117b535b15e35QyMkMdxNjEEs5oJ5[] = {
/* columns rows colors chars-per-pixel */
"64 64 219 2 ",
"   c None",
".  c #000000",
"X  c #000C0C",
"o  c #0B0A0A",
"O  c #090806",
"+  c #110F0F",
"@  c #001414",
"#  c #001C1C",
"$  c #0C1717",
"%  c #131313",
"&  c #1B1B1B",
"*  c #191607",
"=  c #211E1E",
"-  c #282314",
";  c #002323",
":  c #002B2B",
">  c #0C2424",
",  c #003333",
"<  c #023D3D",
"1  c #1B2B2B",
"2  c #242323",
"3  c #2B2B2B",
"4  c #272B29",
"5  c #293535",
"6  c #333333",
"7  c #383736",
"8  c #3C3B3B",
"9  c #373A39",
"0  c #312E2E",
"q  c #413E3E",
"w  c #4F4616",
"e  c #41403E",
"r  c #524D38",
"t  c #7B6B2A",
"y  c #3E3E40",
"u  c #004242",
"i  c #004C4C",
"p  c #0B4747",
"a  c #164848",
"s  c #005454",
"d  c #005A5A",
"f  c #0C5050",
"g  c #195353",
"h  c #2A4747",
"j  c #334545",
"k  c #2A5A59",
"l  c #385959",
"z  c #006464",
"x  c #016C6C",
"c  c #0F6767",
"v  c #176666",
"b  c #007474",
"n  c #007B7B",
"m  c #0D7575",
"M  c #177373",
"N  c #396565",
"B  c #2A6A7A",
"V  c #3B7673",
"C  c #256E6D",
"Z  c #434243",
"A  c #4B4B4B",
"S  c #4A4646",
"D  c #524F4F",
"F  c #535353",
"G  c #525559",
"H  c #5B5B5B",
"J  c #54585B",
"K  c #455757",
"L  c #605F5D",
"P  c #466666",
"I  c #4F6D6A",
"U  c #646464",
"Y  c #6C6C6C",
"T  c #737474",
"R  c #7B7B7B",
"E  c #7C7977",
"W  c #6D7373",
"Q  c #836F3F",
"!  c #6D954D",
"~  c #7AA34F",
"^  c #599373",
"/  c #65A077",
"(  c #94AB2A",
")  c #A9BC25",
"_  c #B9C91F",
"`  c #B6C924",
"'  c #BAD331",
"]  c #CACC06",
"[  c #C7D61D",
"{  c #D2D305",
"}  c #E2DD00",
"|  c #E6E806",
" . c #F1F001",
".. c #C7D922",
"X. c #C2DF39",
"o. c #CEE329",
"O. c #D4E929",
"+. c #9A8342",
"@. c #B29851",
"#. c #92B94A",
"$. c #88B151",
"%. c #BCA456",
"&. c #A0BD43",
"*. c #918A74",
"=. c #A39C7D",
"-. c #94C25A",
";. c #A6D257",
":. c #93C869",
">. c #8EC771",
",. c #DAC568",
"<. c #EBD974",
"1. c #E5D36E",
"2. c #004A9E",
"3. c #055698",
"4. c #1C6892",
"5. c #246983",
"6. c #2A7897",
"7. c #2D758E",
"8. c #004DA5",
"9. c #0456A7",
"0. c #0357B5",
"q. c #1C73AB",
"w. c #0D63B2",
"e. c #2669AF",
"r. c #3471AE",
"t. c #246AB1",
"y. c #3472B4",
"u. c #3976B5",
"i. c #2879B0",
"p. c #517DAE",
"a. c #005DCA",
"s. c #0875D6",
"d. c #006EEB",
"f. c #006BE2",
"g. c #0678E4",
"h. c #0075FB",
"j. c #357CC7",
"k. c #008484",
"l. c #008B8B",
"z. c #0C8686",
"x. c #009393",
"c. c #009B9B",
"v. c #0F9797",
"b. c #149C9C",
"n. c #128383",
"m. c #338E90",
"M. c #2E8AB3",
"N. c #00A3A3",
"B. c #00ABAB",
"V. c #00B4B4",
"C. c #00BDBD",
"Z. c #08B1B1",
"A. c #12B7B7",
"S. c #37A5A4",
"D. c #4F8F8C",
"F. c #798A88",
"G. c #6AB391",
"H. c #5381B0",
"J. c #6EB0A7",
"K. c #5EA792",
"L. c #2B92CB",
"P. c #3A86D6",
"I. c #2791D3",
"U. c #3A93C7",
"Y. c #3D92EA",
"T. c #388DE7",
"R. c #79A3CD",
"E. c #4196EB",
"W. c #799DC5",
"Q. c #00CACA",
"!. c #848484",
"~. c #8B8B8B",
"^. c #868988",
"/. c #8F8F91",
"(. c #899999",
"). c #949494",
"_. c #9B9B9B",
"`. c #A3A19F",
"'. c #B4AC94",
"]. c #B6B08E",
"[. c #8B98A6",
"{. c #959FA9",
"}. c #99A1A9",
"|. c #8AA8B8",
" X c #A4A3A3",
".X c #ACABAA",
"XX c #A6A7A9",
"oX c #B0AEAC",
"OX c #B3B1AF",
"+X c #B3B3B3",
"@X c #BBBBBB",
"#X c #B4B9B9",
"$X c #AFB0B2",
"%X c #C1BFBC",
"&X c #A9C1BF",
"*X c #CAC3A3",
"=X c #C4C2BF",
"-X c #A2B5CA",
";X c #A5B9CD",
":X c #A9BED5",
">X c #ADC2D9",
",X c #B2C6DA",
"<X c #A9C9C7",
"1X c #B9D1EC",
"2X c #C4C3C2",
"3X c #CBCBCB",
"4X c #C8C5C3",
"5X c #D5D5D5",
"6X c #DADADA",
"7X c #D6D6D8",
"8X c #D0CFCE",
"9X c #E3E0DE",
"0X c #C3DDF9",
"qX c #C7E2FD",
"wX c #D6E7F9",
"eX c #E4E4E4",
"rX c #ECEBEB",
"tX c #E8E8E7",
"yX c #F7F8F9",
/* pixels */
"                                                                                                                                ",
"                                                                                                                                ",
"                                                                                                                                ",
"                                                                                                                                ",
"                                                            . . . .                                                             ",
"                                                            % % % %                                                             ",
"                                                        . o 6 8 8 6 % .                                                         ",
"                                                        + 2 q D D 8 = o                                                         ",
"                                                    . + 0 q Z Z Z q 7 2 o .                                                     ",
"                                                    + 2 j N N k k l k y 2 %                                                     ",
"                                                    q j v n.b.b.v.n.m v j 8                                                     ",
"                                                    F K M l.B.V.N.x.k.M K F                                                     ",
"                                                    F K c n c.B.N.x.b v K F                                                     ",
"                                                    8 j a c l.B.V.c.x a j 8                                                     ",
"                                                    % & 5 g z.V.Q.Z.v 4 & %                                                     ",
"                                                    . O 2 h M b.A.b.l = . .                                                     ",
"                                                . . . O = y l N P N j = O . . .                                                 ",
"                                                0 6 3 4 5 9 S D F S 8 7 9 8 6 4                                                 ",
"                                            . 3 !.`.^.U S y A D D S q H  X@X XW 2 .                                             ",
"                                            2 H %XtX3X_.H Z A D F A q W 3XrX8X_.H 7                                             ",
"                                        . 2 W .XeXyXrX@XU j A F D A j U OX3X+XOX%X_.6 .                                         ",
"                                        6 H XX6XtXrXeX+XU 9 A D A A 8 L XX=XOX@X6X@XJ 2                                         ",
"                                    . 7 ).4X6X7X3X%X$X^.D 7 S D S y 6 H +X6X4X+XXX_.).T 2 . . . . . . . . . . .                 ",
"                                    3 U 3XyX6X2X$XXX`.!.A 6 Z A y 9 0 F {.@X.X_._. X3XoXU 8 8 q e 8 9 7 7 7 7 6                 ",
"                                . 0 !.@X9X7X.X).`..X+X).D 6 y y 9 6 0 j Y E U E oX7XrXtX3X=X4X4X=X%XoX.X.XoX$X^.3 .             ",
"                                . 6  XeXeX3X).F.~._..X).A 3 9 8 6 3 3 9 L U A U `.5XyXyXwX0X0X0X0X0X,X>X:X>X,X{.G 0             ",
"                                . 3 ).6XeX3X).E Y *.~.T y 4 9 8 7 3 2 y E ^.U U T `.eXwXR.U.P.P.P.P.u.u.y.y.y.H.}.^.6 .         ",
"                                6 J _.2X2X#X).R D L p.R A 6 8 9 0 0 9 F T T J A U ).9X0XP.a.6.m.7.7.9.3.7.5.3.u.>X$X7 .         ",
"                            . 6 ^.+X#XXX~.!.).E q q ~. XR H 8 0 2 y Y T F 6 = 6 T OXtX0XT.M.#.[ ` ~ 4.6.#.( 5.y.,X.X7 .         ",
"                            . 3 ^.#XXX/.E T E J * = !.+X.X!.S 2 & 9 Y W Z = . & H `.eX0XY.M.:.O. .[ ^ / [ _ V u.>X.X7 .         ",
"                        . . . $ k P W R ~.R Z & . = Y .X7X@XF & & 2 9 Z D y % . & H 8XqXY.s.L.G.O. .[ ` ] ) B y.>X.X7 . . .     ",
"                        ; ; # ; < f k U T U 2 . . = Y XX5X@XU 9 Z Z y Z A y % . . 8 2XqXE.d.h.I.>.X.} } ] ( B y.:X.X7 . . .     ",
"                    . ; z x s i z x c g 5 2     . 3 !.$X'.).R E /.).~.Y y 2 o . . 8 4XqXE.f.d.g.I.K.' | ] ( C y.-X X7 . . .     ",
"                    . : k.N.b b l.x.b i @ .     . 4 *.'.=.*.).].*X*X'.*.A - o . . e 4XqXE.f.d.I.I.G.' { ` ! 5.e.-X`.7 . . .     ",
"                    . , l.B.b n V.C.x.d # .     . - Q @.@.%.,.1.<.,.%.+.t w * . . e 2XqXE.d.h.L.>.o.| ` D.q.9.r.-X{.0 . . .     ",
"                    . : l.B.b b c.c.b i # .     . - Q @.@.%.,.1.<.1.%.+.t w * . . e 4XqXE.d.h.U.X. .[ $.D.q.9.y.-X`.7 . . .     ",
"                    . : 4.N.b s u , ; #         . 2 *.'.*.*.=.].*X%X'.*.r - O . . e 4XqXE.d.h.U.' _ ^ D.~ ! 5.e.-X`.6 . . .     ",
"                    . ; z x s < X . . .         2 D ).$XXX{. XXX`.{.^.Y Z 4 % O . 8 %X0XE.s.L.G.` ` ^ ^ ~ ! 5.r.-X`.6 . . .     ",
"                        ; ; # @             . 4 T /./. X8XeX5X@X~.U S Z A A 8 2 O 9 +X,XP.M.-...] _ _ $.^ q.9.y.-X`.6 . . .     ",
"                        . . . .             . 0 _.2X X X8X9X5X@X~.U A j A D A 3 o 7 .X>Xj.7.-.o.{ { _ $.i.a.9.r.-X`.6 . . .     ",
"                                            . 7  X6X3X+XXX`. X X.X`.~.Y Z 6 q 0 o 7 .X>Xu.w.M.G.o.o./ q.w.8.8.r.-X`.6 . . .     ",
"                                            . 0 _.8X3X+X/.!./. XOXoX`.E j 3 6 4 o 7 oX,Xr.0.d.L.:.;.K.M.9.2.2.r.;X`.7 . . .     ",
"                                            . 3 !.oX X_./.)..X.X X/.R U Z 6 3 & . 7 OX,Xu.9.a.s.L.G.;.-.7.2.2.r.;X X6 .         ",
"                                            . 2 !.XX_./.~._.@X@X`.!.Y H S 9 3 % . 3 !.{.H.e.9.a.h.M.O...I 9.t.H.[.E 4 .         ",
"                                            . 0 ).@XXX).^.).+X2X.X/.Y J S 7 3 % O o 2 J [.W.e.0.a.m.O...I t.W.[.G 2 o .         ",
"                                            . 6 `.8X+X_.~.^.(.(.^.F.Y J A 9 2 & O . . 2 E {.H.e.w.6.#.&.D.H.[.R 2 . . .         ",
"                                            . 6  X5X+X_.~.T P k C V J H S 9 4 % O . . o 2 J [.W.t.2.5.D.|.[.G 2 O . . . . .     ",
"                                            3 L %X8X).W U P v x x c N K j 9 3 2 + O . . . 2 E [.p.r.y.p.|.F.5 . . . . . . .     ",
"                                        . 3 R @X6X@XF = & a x.V.c.k.c g p 5 9 6 2 + O . . O 2 G [.-X-X|.D.C < # X . . . . . . . ",
"                                        . 3 F. X.X^.0 . . , l.B.N.c.l.b z p 5 3 = + O . . . . 2 F.&X<XJ.C d d i , @ O . . . . . ",
"                                            6 7 6 6         : s l.B.C.V.l.s > o o O . . . . . $ k m.S.m.m z n k.x u @ . . . . . ",
"                                            . . . .         . ; k.C.Q.V.x.z , @ . . . . . X : u d b c.c.b b x.c.l.z : X . . . . ",
"                                                            . , N.Q.B.x.b z z u @ . . . . : k.c.k.k.c.c.k.n l.k.b d u ; X .     ",
"                                                            . , l.c.k.b x b x.n < @ ; ; # i B.Q.l.x b b z z z d i u < ; X .     ",
"                                                                , u d x b x.C.B.z s x b z n N.N.x u , ; # # # # # @ @ X         ",
"                                                                . @ , i d n V.C.l.n x.x.b x b z u ; X . . . . . . . . .         ",
"                                                                    @ @ # < n c.c.x.x.b < # ; # @ X                             ",
"                                                                    . . . # i z b b x i # . . . . .                             ",
"                                                                            # # ; ; # #                                         ",
"                                                                            . . . . . .                                         ",
"                                                                                                                                ",
"                                                                                                                                ",
"                                                                                                                                ",
"                                                                                                                                "
};
