/* XPM */
static char *_c890f6ac3ce4962f17faba27d56cfcfDsUGReTYIXouHJdS[] = {
/* columns rows colors chars-per-pixel */
"64 64 171 2 ",
"   c None",
".  c #000000",
"X  c #0A0A0A",
"o  c #1E1E1E",
"O  c #3E1D00",
"+  c #242424",
"@  c #2C2C2C",
"#  c #333333",
"$  c #38393A",
"%  c #442201",
"&  c #4D2600",
"*  c #4E2802",
"=  c #502600",
"-  c #562B00",
";  c #5D2C00",
":  c #5F3102",
">  c #5C3208",
",  c #492F14",
"<  c #4E3215",
"1  c #4E361D",
"2  c #503314",
"3  c #5E3913",
"4  c #543618",
"5  c #5C3B19",
"6  c #53391E",
"7  c #612F00",
"8  c #643201",
"9  c #6C3600",
"0  c #693807",
"q  c #643609",
"w  c #62380F",
"e  c #713700",
"r  c #723900",
"t  c #7C3E00",
"y  c #753E08",
"u  c #633C14",
"i  c #683F16",
"p  c #653F19",
"a  c #563B20",
"s  c #7F4000",
"d  c #7A4108",
"f  c #6E461E",
"g  c #71481F",
"h  c #7E4B19",
"j  c #58422D",
"k  c #5F4B37",
"l  c #5C4B3A",
"z  c #644323",
"x  c #6D4721",
"c  c #6F4923",
"v  c #68492B",
"b  c #66492C",
"n  c #724C25",
"m  c #744E28",
"M  c #7E5023",
"N  c #76512C",
"B  c #78522C",
"V  c #604D3A",
"C  c #6F5338",
"Z  c #715232",
"A  c #76593C",
"S  c #7E5F3F",
"D  c #5F544A",
"F  c #555555",
"G  c #5D5D5D",
"H  c #66584A",
"J  c #6C5C4C",
"K  c #675848",
"L  c #725E4B",
"P  c #765D44",
"I  c #665D54",
"U  c #6D5E50",
"Y  c #7C6145",
"T  c #75614D",
"R  c #7A634B",
"E  c #6D665F",
"W  c #776859",
"Q  c #626262",
"!  c #6C6C6C",
"~  c #736A62",
"^  c #796F67",
"/  c #7C756D",
"(  c #7A726A",
")  c #747474",
"_  c #7A7673",
"`  c #7A7A7B",
"'  c #7F7B76",
"]  c #803E00",
"[  c #824100",
"{  c #8C4600",
"}  c #84470B",
"|  c #944A00",
" . c #9A4D00",
".. c #9F5000",
"X. c #804F1F",
"o. c #82501F",
"O. c #A25100",
"+. c #815223",
"@. c #8C5621",
"#. c #816141",
"$. c #84674B",
"%. c #86684A",
"&. c #886B4E",
"*. c #8A6F53",
"=. c #846F5B",
"-. c #8C7155",
";. c #9D7954",
":. c #837363",
">. c #887765",
",. c #8A7967",
"<. c #87796C",
"1. c #847B73",
"2. c #8A7F73",
"3. c #96816C",
"4. c #9B846C",
"5. c #81807F",
"6. c #8E8276",
"7. c #908377",
"8. c #9A8774",
"9. c #9B8976",
"0. c #92877C",
"q. c #93887E",
"w. c #9D8C7A",
"e. c #7F8080",
"r. c #868686",
"t. c #868788",
"y. c #8C8C8C",
"u. c #878A8C",
"i. c #938B83",
"p. c #988E84",
"a. c #9A9086",
"s. c #979088",
"d. c #8F9090",
"f. c #939393",
"g. c #9C9C9C",
"h. c #989897",
"j. c #A89888",
"k. c #A59C92",
"l. c #AA9E93",
"z. c #ACA196",
"x. c #ABA299",
"c. c #B3A79A",
"v. c #B2A89E",
"b. c #9C9EA0",
"n. c #9EA0A2",
"m. c #A4A5A5",
"M. c #ACACAC",
"N. c #B2AAA2",
"B. c #B9AEA3",
"V. c #BBB2A9",
"C. c #AEAFB0",
"Z. c #AFB0B1",
"A. c #B3B3B4",
"S. c #BBBBBB",
"D. c #B6B9BB",
"F. c #C3C1BF",
"G. c #BDBFC0",
"H. c #BFC1C3",
"J. c #C4C4C4",
"K. c #C9C8C6",
"L. c #C5C7C8",
"P. c #C7C8CA",
"I. c #CBCBCB",
"U. c #C8C5C2",
"Y. c #CDCED0",
"T. c #D4D4D4",
"R. c #D6D7D8",
"E. c #D7D8D9",
"W. c #DCDCDC",
"Q. c #E3E3E3",
"!. c #E9E9E9",
/* pixels */
"                                                                [ s s s s ]                                                     ",
"                                                                s s s s [ {                                                     ",
"                                                        s s s s s s t { |  ...O.                                                ",
"                                                        s [ [ { { [ { {  ... . .                                                ",
"                                                [ t s t s { |  . . . . . . .{ {  .O.                                            ",
"                                                s [ [ { { {  .O...O. . .O. .{ [ |  .                                            ",
"                                    s [ [ t [ [ s [ |  .|  ...O.O. .{ {  . .{ t [ {                                             ",
"                                    [ s s [ [ [ { {  .O... . . .O.| { [ | | [ s ] [                                             ",
"                        [ t [ [ [ s s t [ [ |  .|  ...O.O. .{ {  . .[ [ [ { [ s [ [ s s                                         ",
"                        s [ [ t [ [ [ { { {  .O.O... . . . .| { | | [ [ s s t [ ] s [ ]                                         ",
"                [ [ s t s [ s t t [ |  . . . .O.O. .{ {  .O. .| { [ [ [ s s [ [ [ ] s t                                         ",
"                t [ s [ s [ [ { { { |  ...O.O... .| { { |  . .| { t s [ [ s t r t t t }                                         ",
"        ] ] ] ] [ s s s t [ |  . .| { {  .O.O. .{ { | | { { [ [ [ s s [ s t 9 9 8 9 r @.j.K.I.Y.                                ",
"        M M X.h d t t s { { |  .O. .{ {  . . .| { { | | { t t [ t [ [ t t r 8 ; ; 0 X.;.B.I.R.R.                                ",
"    e.' :.:.:.R f 9 t { | | { {  . . . .O. .| { | | { { [ s s ] [ [ [ t 9 8 8 ; ; c 4.B.U.T.W.W.R.I.L.F.J.G.                    ",
"    t.t.t.` / L u 7 r [ | | { {  ...O... .| { { | | [ ] s ] [ t t r t r 8 ; ; q f *.B.L.S.S.S.J.I.I.L.G.S.J.                    ",
"    h.f.u./ C u 8 ; 8 r [ { |  ...O.O. .{ { | | { [ [ s s [ [ t e 8 9 8 7 7 - x 8.N.K.S.f.) _ f.F.I.K.J.F.J.I.T.Y.Y.            ",
"    m.h.1.J z 3 3 3 : 8 r [ | O.O... .| { { | | { t s [ [ t t r 7 ; 7 q c Z B -.N.L.S.m.r.) ) y.S.J.M.m.D.L.I.Y.T.T.            ",
"m.n.m.i.A z V D D l 3 8 8 r | O.O. .{ { | | { { [ [ [ ] [ t 9 8 7 ; ; x 2.z.l.B.J.S.y.r.m.A.A.S.L.M.) ) m.I.I.T.T.T.W.Q.        ",
"x.h.s.:.Z b I ! ! I 5 - ; 9 { |  .| { {  .| [ t t [ ] ] t 9 8 q c N m *.B.F.A.A.I.S.f.f.S.T.T.K.M.t.! ! f.A.K.I.S.S.T.Q.        ",
"m.i.P Z T ( _ ` ` ~ 6 & - 8 9 r [ { | | { { [ t ] ] [ t e 8 7 x 2.z.l.c.S.A.y.d.L.E.I.L.Y.T.I.M.) ! y.h.` y.S.S.y.d.K.!.Q.W.    ",
"m.7.n p ~ t.u.r./ K < % - 8 ; 9 s { | | [ ] s [ ] ] t e 7 7 g -.v.I.I.J.C.d.! ` J.W.I.J.I.Y.K.m.) ) C.A.y.y.S.S.f.y.M.I.W.Q.    ",
"n.7.c p W t.h.i.A 4 & % - 8 7 9 { | { { [ [ [ [ ] t e 8 7 x ,.B.S.I.Y.S.y.! I ` K.I.h.d.S.I.L.S.m.C.L.I.S.S.I.I.K.Z.t.f.K.Q.    ",
"M.q.n f / y.i.W f - < 4 > ; - 9 { | [ s s s t r t e 7 8 x *.N.G.Z.M.A.m.y.` e.d.A.Z.r.y.S.L.M.g.x.m.C.S.I.R.R.T.K.Z.y.f.I.!.    ",
"S.j.m x 2.i.Y p * < K J p - & - t { [ s [ t 9 9 8 8 ; g 2.v.F.Z.t.) ) y.M.U.J.Z.y.r.m.S.J.M._ G I Q ) d.S.E.W.I.f.y.M.I.W.Q.    ",
"L.l.N v 0.q.c - 2 l / ^ z & % & 9 [ s s t r 8 7 ; q f *.N.L.K.A.d.` ` d.A.Y.W.K.f.t.S.I.Z.d.! G G Q ! d.S.I.I.M.y.f.I.E.S.N.    ",
"J.l.m x q.q.c 3 K ) ` ^ a % O & 9 [ [ t 9 8 7 ; - f 3.N.S.J.I.K.F.J.J.A.d.f.I.W.F.S.Y.A._ ! y.m.M.M.Z.S.I.S.f.y.Z.Y.Q.A.G #     ",
"P.x.%.S >.>.A Z R / e.~ 1 % , 5 y s t r 8 7 ; q g *.N.L.L.F.S.F.E.W.Y.M.r.d.J.W.R.R.T.M.) ! d.Z.P.R.R.E.E.A.) ) m.Y.Q.m.# .     ",
"    x.9.+.P >.>.C C / ~ 1 , H L h t e 8 8 ; ; f 2.v.S.K.I.S.y.d.I.Y.h.r.m.F.I.T.R.T.K.S.M.y.! _ A.R.R.R.W.F.` Q ) g.Y.m.# .     ",
"    D.l.N m p.a.n u P L a l _ <.M e 8 ; ; q g *.N.K.L.J.S.m.y.y.V.C.r.d.S.T.T.L.A.A.S.S.M.f.! ' A.I.S.F.E.I.h.` _ g.Y.M.$ .     ",
". $ n.x.N m k.k.m ; w v I _ f.2.m 8 7 ; ; g 2.N.S.L.I.S.y.t.A.A.d.t.m.S.Y.T.T.D.` ) M.M.` ! f.D.K.S.t.f.I.W.I.J.S.I.Q.M.$ .     ",
". @ f.N.*.#.w.w.%.B N P 1.h.b.i.n ; ; q g *.v.K.K.F.S.m.t.d.A.Z.y.y.S.T.Y.K.A.f.! ) M.m.Q Q Z.R.R.S.d.y.M.J.J.I.W.E.S.r.@ .     ",
". @ f.F.N.9.#.Y w.x.l.k.h.g.m.q.n ; - f 3.v.S.L.I.A.y.y.A.A.d.t.m.S.I.T.U.M._ ! y.C.L.A.! ! A.T.T.Y.K.Z.y.` ` h.I.S.Q @         ",
". + ! m.G.v.&.S 9.N.S.H.A.m.s.=.p 8 g *.N.L.L.I.R.S.) ) M.A.y.y.S.T.T.Y.K.m.) ) M.F.A.b.r.f.S.T.T.T.K.A.y.` ` h.Y.M.# .         ",
". X o F m.F.N.8.#.*.v.P.J.x.$.u 7 c 3.N.S.L.I.R.Q.S.` Q ) t.M.S.I.T.Y.I.J.S.m.M.S.m.) ) k.G.L.T.W.K.f.y.Z.G.F.I.Q.M.# .         ",
". . . o ! m.G.v.&.S 8.z.x.,.f 7 f *.v.L.L.S.A.S.S.A.f.` _ r.m.S.I.T.Y.I.J.S.m.M.F.M.) ` D.R.E.Y.K.M.y.f.K.Q.!.R.S.1.@ .         ",
"    . X o F m.F.v.9.#.m m g 7 g ,.N.S.L.I.S.y.` ` f.A.J.S.m.r.s.S.Y.I.L.J.m.) _ A.J.A.A.L.E.W.L.f.y.Z.I.W.Q.Q.S.Q + X .         ",
"    . . . o ! m.G.N.-.N B m B -.B.I.L.I.T.S.` G ! y.M.I.T.S.y.y.S.F.M.m.S.m.` ` A.T.T.T.T.T.P.C.y.y.A.I.W.Q.Q.M.# . . .         ",
"        . X o F m.F.V.c.c.c.v.V.K.I.I.T.W.F.` ! n.m.y.f.F.K.S.D.F.M.) ) M.G.A.A.K.T.T.E.W.U.f.y.Z.Z.y.f.U.Q.!.m.# .             ",
"        . . . o ! m.I.E.R.R.E.E.R.T.T.T.K.Z.y.t.M.M.r.y.D.Y.Y.I.L.m.) ! y.n.M.S.K.Y.Y.E.W.G.` ` J.I.f.f.L.!.!.M.$ .             ",
"            . X o F M.W.R.R.W.W.W.W.Q.K.f.t.M.M.y.r.m.S.F.J.J.L.F.S.M.d.! G G ` A.T.Y.T.Q.F._ _ J.W.I.K.R.!.!.M.$ .             ",
"            . . . @ ` M.I.E.W.Q.Q.W.U.Z.r.r.m.m.t.r.m.S.S.F.J.S.J.S.M.d.) G G _ D.T.T.W.W.L.f.h.K.W.I.I.E.R.S.` + .             ",
"                    + G A.Q.Q.W.Q.K.f.t.m.m.t.y.m.m.r.t.Z.J.F.J.L.m.) ! h.Z.M.A.U.T.W.W.W.E.L.I.W.I.f.h.I.S.Q + X .             ",
"                    . @ r.S.R.!.Q.J.d.y.S.F.y.d.S.S.y.r.M.J.J.S.M.d.! ) h.S.I.T.R.T.W.Q.Q.Q.!.W.I.M.t.f.I.M.# . . .             ",
"                        @ G A.!.Q.Y.S.S.I.I.S.D.J.S.M.M.S.J.J.M.) ! h.g.) ` A.W.W.W.W.Q.Q.Q.!.K.h.t.Z.I.W.m.# .                 ",
"                        . @ r.M.k.m.K.R.R.T.T.I.L.S.J.J.J.A.M.y.! 1.S.S.` _ A.W.W.Q.Q.W.K.G.G.C.t.f.K.!.!.m.$ .                 ",
"                            @ # # G Z.W.E.Y.I.K.J.J.F.J.J.m.) ! h.D.I.Y.A.D.Y.W.Q.Q.Q.I.f._ ` y.M.K.W.!.!.m.$ .                 ",
"                            . . . + ) n.n.g.f.k.A.J.J.J.L.m.) _ A.Y.A.A.P.E.W.Q.W.W.K.Z.d.` ` f.I.Q.Q.Q.!.M.# .                 ",
"                                . X + # # @ @ F g.I.L.J.L.S.m.M.K.S.` ` A.E.W.Q.Q.L.s.y.Z.J.J.L.E.Q.Q.Q.!.M.# .                 ",
"                                . . . . . . . o ! h.f.f.f.g.S.Y.T.A.) ' D.E.W.Q.Q.L.h.y.Z.I.W.Q.Q.Q.Q.T.S.t.# .                 ",
"                                        . . . X + # @ @ @ F M.R.R.I.A.A.T.W.Q.Q.Q.E.I.Z.y.f.I.!.Q.Q.Q.A.I @                     ",
"                                        . . . . . . . . . + ) m.g.M.K.W.Q.W.W.Q.Q.E.I.A.y.t.M.P.E.Q.!.m.# .                     ",
"                                                . . . . . X + # # G M.W.W.Q.Q.Q.!.I.h.y.Z.Z.y.f.K.!.!.m.# .                     ",
"                                                . . . . . . . . . + ) A.R.!.Q.E.K.m.) ` J.I.f.s.L.Q.!.m.$ .                     ",
"                                                        . . . . . X o I S.!.!.I.h.) G ` J.E.I.L.R.Q.!.M.# .                     ",
"                                                        . . . . . . . + ` A.M.g.r.` ` h.I.Q.Q.Q.Q.T.S.r.# .                     ",
"                                                                . . . X @ $ # F h.S.L.I.W.Q.Q.Q.!.A.G @                         ",
"                                                                . . . . . . . + ) m.M.D.T.W.W.!.!.m.# .                         ",
"                                                                        . . . X + $ # G A.W.W.W.W.g.# .                         ",
"                                                                        . . . . . . . + ) k.b.b.b.` @ .                         ",
"                                                                                    . X + # # # # @                             ",
"                                                                                    . . . . . . . .                             ",
"                                                                                                                                ",
"                                                                                                                                "
};
